Khula-wt937.36.ufo
<glyph name="numbersign.deva" format="1">
  <advance width="1218"/>
  <unicode hex="0023"/>
  <outline>
    <contour>
      <point x="934" y="738" type="line"/>
      <point x="904" y="574" type="line"/>
      <point x="1125" y="574" type="line"/>
      <point x="1125" y="355" type="line"/>
      <point x="863" y="355" type="line"/>
      <point x="796" y="0" type="line"/>
      <point x="564" y="0" type="line"/>
      <point x="630" y="355" type="line"/>
      <point x="469" y="355" type="line"/>
      <point x="405" y="0" type="line"/>
      <point x="174" y="0" type="line"/>
      <point x="240" y="355" type="line"/>
      <point x="34" y="355" type="line"/>
      <point x="34" y="574" type="line"/>
      <point x="282" y="574" type="line"/>
      <point x="313" y="738" type="line"/>
      <point x="96" y="738" type="line"/>
      <point x="96" y="962" type="line"/>
      <point x="355" y="962" type="line"/>
      <point x="420" y="1316" type="line"/>
      <point x="652" y="1316" type="line"/>
      <point x="584" y="962" type="line"/>
      <point x="745" y="962" type="line"/>
      <point x="809" y="1316" type="line"/>
      <point x="1042" y="1316" type="line"/>
      <point x="975" y="962" type="line"/>
      <point x="1183" y="962" type="line"/>
      <point x="1183" y="738" type="line"/>
    </contour>
    <contour>
      <point x="512" y="574" type="line"/>
      <point x="672" y="574" type="line"/>
      <point x="702" y="738" type="line"/>
      <point x="542" y="738" type="line"/>
    </contour>
  </outline>
</glyph>
<glyph name="percent.deva" format="1">
  <advance width="1496"/>
  <unicode hex="0025"/>
  <outline>
    <contour>
      <point x="248" y="923" type="curve" smooth="yes"/>
      <point x="248" y="776"/>
      <point x="256" y="705"/>
      <point x="311" y="705" type="curve" smooth="yes"/>
      <point x="358" y="705"/>
      <point x="380" y="776"/>
      <point x="380" y="923" type="curve" smooth="yes"/>
      <point x="380" y="1072"/>
      <point x="367" y="1146"/>
      <point x="311" y="1146" type="curve" smooth="yes"/>
      <point x="256" y="1146"/>
      <point x="248" y="1076"/>
    </contour>
    <contour>
      <point x="609" y="923" type="curve" smooth="yes"/>
      <point x="609" y="644"/>
      <point x="512" y="508"/>
      <point x="311" y="508" type="curve" smooth="yes"/>
      <point x="115" y="508"/>
      <point x="15" y="647"/>
      <point x="15" y="923" type="curve" smooth="yes"/>
      <point x="15" y="1211"/>
      <point x="114" y="1335"/>
      <point x="311" y="1335" type="curve" smooth="yes"/>
      <point x="510" y="1335"/>
      <point x="609" y="1195"/>
    </contour>
    <contour>
      <point x="1116" y="402" type="curve" smooth="yes"/>
      <point x="1116" y="245"/>
      <point x="1124" y="178"/>
      <point x="1182" y="178" type="curve" smooth="yes"/>
      <point x="1238" y="178"/>
      <point x="1252" y="236"/>
      <point x="1252" y="402" type="curve" smooth="yes"/>
      <point x="1252" y="559"/>
      <point x="1238" y="613"/>
      <point x="1182" y="613" type="curve" smooth="yes"/>
      <point x="1124" y="613"/>
      <point x="1116" y="550"/>
    </contour>
    <contour>
      <point x="1480" y="402" type="curve" smooth="yes"/>
      <point x="1480" y="127"/>
      <point x="1377" y="-9"/>
      <point x="1176" y="-9" type="curve" smooth="yes"/>
      <point x="984" y="-9"/>
      <point x="886" y="117"/>
      <point x="886" y="402" type="curve" smooth="yes"/>
      <point x="886" y="677"/>
      <point x="977" y="813"/>
      <point x="1176" y="813" type="curve" smooth="yes"/>
      <point x="1368" y="813"/>
      <point x="1480" y="690"/>
    </contour>
    <contour>
      <point x="1255" y="1316" type="line"/>
      <point x="525" y="0" type="line"/>
      <point x="249" y="0" type="line"/>
      <point x="979" y="1316" type="line"/>
    </contour>
  </outline>
</glyph>
<glyph name="quotesingle.deva" format="1">
  <advance width="674"/>
  <unicode hex="0027"/>
  <outline>
    <contour>
      <point x="491" y="1316" type="line"/>
      <point x="454" y="841" type="line"/>
      <point x="220" y="841" type="line"/>
      <point x="183" y="1316" type="line"/>
    </contour>
  </outline>
</glyph>
<glyph name="comma.deva" format="1">
  <advance width="660"/>
  <unicode hex="002C"/>
  <outline>
    <contour>
      <point x="0" y="0" type="line"/>
      <point x="660" y="0" type="line"/>
      <point x="660" y="20" type="line"/>
      <point x="0" y="20" type="line"/>
    </contour>
  </outline>
</glyph>
<glyph name="hyphen.deva" format="1">
  <advance width="745"/>
  <unicode hex="002D"/>
  <outline>
    <contour>
      <point x="98" y="360" type="line"/>
      <point x="98" y="628" type="line"/>
      <point x="601" y="628" type="line"/>
      <point x="601" y="360" type="line"/>
    </contour>
  </outline>
</glyph>
<glyph name="slash.deva" format="1">
  <advance width="803"/>
  <unicode hex="002F"/>
  <outline>
    <contour>
      <point x="799" y="1333" type="line"/>
      <point x="308" y="-17" type="line"/>
      <point x="10" y="-17" type="line"/>
      <point x="500" y="1333" type="line"/>
    </contour>
  </outline>
</glyph>
<glyph name="two.deva" format="1">
  <advance width="1060"/>
  <unicode hex="0032"/>
  <outline>
    <contour>
      <point x="1046" y="0" type="line"/>
      <point x="54" y="0" type="line"/>
      <point x="54" y="280" type="line"/>
      <point x="388" y="574" type="line"/>
      <point x="518" y="696"/>
      <point x="591" y="766"/>
      <point x="606" y="784" type="curve" smooth="yes"/>
      <point x="637" y="827"/>
      <point x="661" y="876"/>
      <point x="661" y="948" type="curve" smooth="yes"/>
      <point x="661" y="1276"/>
      <point x="378" y="1437"/>
      <point x="-73" y="1289" type="curve" smooth="yes"/>
      <point x="-140" y="1140"/>
      <point x="-147" y="1029"/>
      <point x="-96" y="956" type="curve" smooth="yes"/>
      <point x="40" y="884"/>
      <point x="140" y="872"/>
      <point x="201" y="925" type="curve"/>
      <point x="31" y="1144" type="line"/>
      <point x="186" y="1269"/>
      <point x="348" y="1335"/>
      <point x="518" y="1335" type="curve" smooth="yes"/>
      <point x="665" y="1335"/>
      <point x="784" y="1300"/>
      <point x="869" y="1231" type="curve" smooth="yes"/>
      <point x="955" y="1162"/>
      <point x="996" y="1077"/>
      <point x="996" y="970" type="curve" smooth="yes"/>
      <point x="996" y="895"/>
      <point x="970" y="818"/>
      <point x="917" y="737" type="curve" smooth="yes"/>
      <point x="861" y="656"/>
      <point x="752" y="540"/>
      <point x="587" y="400" type="curve" smooth="yes"/>
      <point x="450" y="315" type="line"/>
      <point x="450" y="299" type="line"/>
      <point x="1046" y="299" type="line"/>
    </contour>
  </outline>
</glyph>
<glyph name="four.deva" format="1">
  <advance width="1060"/>
  <unicode hex="0034"/>
  <outline>
    <contour>
      <point x="987" y="199" type="line"/>
      <point x="889" y="199" type="line"/>
      <point x="889" y="0" type="line"/>
      <point x="570" y="0" type="line"/>
      <point x="570" y="199" type="line"/>
      <point x="39" y="199" type="line"/>
      <point x="39" y="545" type="line"/>
      <point x="578" y="1323" type="line"/>
      <point x="889" y="1323" type="line"/>
      <point x="889" y="514" type="line"/>
      <point x="987" y="514" type="line"/>
    </contour>
    <contour>
      <point x="570" y="514" type="line"/>
      <point x="570" y="1139" type="line"/>
      <point x="570" y="934"/>
      <point x="570" y="861"/>
      <point x="567" y="924" type="curve"/>
      <point x="556" y="924" type="line"/>
      <point x="475" y="764"/>
      <point x="479" y="740"/>
      <point x="566" y="863" type="curve"/>
      <point x="315" y="514" type="line"/>
    </contour>
  </outline>
</glyph>
<glyph name="seven.deva" format="1">
  <advance width="1078"/>
  <unicode hex="0037"/>
  <outline>
    <contour>
      <point x="194" y="0" type="line"/>
      <point x="653" y="1033" type="line"/>
      <point x="71" y="1033" type="line"/>
      <point x="71" y="1314" type="line"/>
      <point x="1015" y="1314" type="line"/>
      <point x="1015" y="1112" type="line"/>
      <point x="545" y="0" type="line"/>
    </contour>
  </outline>
</glyph>
<glyph name="equal.deva" format="1">
  <advance width="1044"/>
  <unicode hex="003D"/>
  <outline>
    <contour>
      <point x="68" y="736" type="line"/>
      <point x="68" y="968" type="line"/>
      <point x="975" y="968" type="line"/>
      <point x="975" y="736" type="line"/>
    </contour>
    <contour>
      <point x="68" y="329" type="line"/>
      <point x="68" y="563" type="line"/>
      <point x="975" y="563" type="line"/>
      <point x="975" y="329" type="line"/>
    </contour>
  </outline>
</glyph>
<glyph name="A" format="1">
  <advance width="1348"/>
  <unicode hex="0041"/>
  <outline>
    <contour>
      <point x="1577" y="-1404" type="line"/>
      <point x="2536" y="279" type="line"/>
      <point x="968" y="1683" type="line"/>
      <point x="624" y="0" type="line"/>
      <point x="-1601" y="-3997" type="line"/>
      <point x="314" y="1321" type="line"/>
      <point x="-734" y="5318" type="line"/>
      <point x="1659" y="0" type="line"/>
    </contour>
    <contour>
      <point x="2239" y="583" type="line"/>
      <point x="201" y="2226" type="line"/>
      <point x="125" y="2431"/>
      <point x="582" y="1255"/>
      <point x="497" y="1556" type="curve"/>
      <point x="490" y="1211"/>
      <point x="468" y="800"/>
      <point x="435" y="322" type="curve"/>
      <point x="484" y="495"/>
      <point x="-86" y="-990"/>
      <point x="-28" y="-848" type="curve"/>
    </contour>
  </outline>
</glyph>
<glyph name="D" format="1">
  <advance width="1352"/>
  <unicode hex="0044"/>
  <outline>
    <contour>
      <point x="1257" y="685" type="curve" smooth="yes"/>
      <point x="1257" y="465"/>
      <point x="1196" y="296"/>
      <point x="1075" y="178" type="curve" smooth="yes"/>
      <point x="954" y="59"/>
      <point x="785" y="0"/>
      <point x="566" y="0" type="curve" smooth="yes"/>
      <point x="145" y="0" type="line"/>
      <point x="145" y="1316" type="line"/>
      <point x="597" y="1316" type="line"/>
      <point x="807" y="1316"/>
      <point x="969" y="1262"/>
      <point x="1084" y="1153" type="curve" smooth="yes"/>
      <point x="1199" y="1045"/>
      <point x="1257" y="889"/>
    </contour>
    <contour>
      <point x="905" y="672" type="curve" smooth="yes"/>
      <point x="905" y="922"/>
      <point x="804" y="1042"/>
      <point x="597" y="1042" type="curve" smooth="yes"/>
      <point x="485" y="1042" type="line"/>
      <point x="485" y="279" type="line"/>
      <point x="572" y="279" type="line"/>
      <point x="801" y="279"/>
      <point x="905" y="408"/>
    </contour>
  </outline>
</glyph>
<glyph name="E" format="1">
  <advance width="1013"/>
  <unicode hex="0045"/>
  <outline>
    <contour>
      <point x="922" y="0" type="line"/>
      <point x="145" y="0" type="line"/>
      <point x="145" y="1316" type="line"/>
      <point x="922" y="1316" type="line"/>
      <point x="922" y="1042" type="line"/>
      <point x="485" y="1042" type="line"/>
      <point x="485" y="818" type="line"/>
      <point x="891" y="818" type="line"/>
      <point x="891" y="545" type="line"/>
      <point x="485" y="545" type="line"/>
      <point x="485" y="278" type="line"/>
      <point x="922" y="278" type="line"/>
    </contour>
  </outline>
</glyph>
<glyph name="H" format="1">
  <advance width="1408"/>
  <unicode hex="0048"/>
  <outline>
    <contour>
      <point x="1263" y="0" type="line"/>
      <point x="922" y="0" type="line"/>
      <point x="922" y="543" type="line"/>
      <point x="486" y="543" type="line"/>
      <point x="486" y="0" type="line"/>
      <point x="145" y="0" type="line"/>
      <point x="145" y="1316" type="line"/>
      <point x="486" y="1316" type="line"/>
      <point x="486" y="822" type="line"/>
      <point x="922" y="822" type="line"/>
      <point x="922" y="1316" type="line"/>
      <point x="1263" y="1316" type="line"/>
    </contour>
  </outline>
</glyph>
<glyph name="K" format="1">
  <advance width="1254"/>
  <unicode hex="004B"/>
  <outline>
    <contour>
      <point x="1254" y="0" type="line"/>
      <point x="871" y="0" type="line"/>
      <point x="596" y="515" type="line"/>
      <point x="485" y="446" type="line"/>
      <point x="485" y="0" type="line"/>
      <point x="145" y="0" type="line"/>
      <point x="145" y="1316" type="line"/>
      <point x="485" y="1316" type="line"/>
      <point x="485" y="737" type="line"/>
      <point x="502" y="770"/>
      <point x="545" y="832"/>
      <point x="596" y="905" type="curve"/>
      <point x="888" y="1316" type="line"/>
      <point x="1259" y="1316" type="line"/>
      <point x="838" y="728" type="line"/>
    </contour>
  </outline>
</glyph>
<glyph name="L" format="1">
  <advance width="1064"/>
  <unicode hex="004C"/>
  <outline>
    <contour>
      <point x="145" y="0" type="line"/>
      <point x="145" y="1316" type="line"/>
      <point x="485" y="1316" type="line"/>
      <point x="485" y="275" type="line"/>
      <point x="997" y="275" type="line"/>
      <point x="997" y="0" type="line"/>
    </contour>
  </outline>
</glyph>
<glyph name="N" format="1">
  <advance width="1524"/>
  <unicode hex="004E"/>
  <outline>
    <contour>
      <point x="1379" y="0" type="line"/>
      <point x="937" y="0" type="line"/>
      <point x="437" y="942" type="line"/>
      <point x="429" y="942" type="line"/>
      <point x="440" y="797"/>
      <point x="446" y="686"/>
      <point x="446" y="609" type="curve" smooth="yes"/>
      <point x="446" y="0" type="line"/>
      <point x="145" y="0" type="line"/>
      <point x="145" y="1316" type="line"/>
      <point x="586" y="1316" type="line"/>
      <point x="1083" y="385" type="line"/>
      <point x="1089" y="385" type="line"/>
      <point x="1080" y="517"/>
      <point x="1076" y="622"/>
      <point x="1076" y="704" type="curve" smooth="yes"/>
      <point x="1076" y="1316" type="line"/>
      <point x="1379" y="1316" type="line"/>
    </contour>
  </outline>
</glyph>
<glyph name="R" format="1">
  <advance width="1238"/>
  <unicode hex="0052"/>
  <outline>
    <contour>
      <point x="485" y="485" type="line"/>
      <point x="485" y="0" type="line"/>
      <point x="145" y="0" type="line"/>
      <point x="145" y="1316" type="line"/>
      <point x="570" y="1316" type="line"/>
      <point x="926" y="1316"/>
      <point x="1102" y="1186"/>
      <point x="1102" y="928" type="curve" smooth="yes"/>
      <point x="1102" y="774"/>
      <point x="1026" y="656"/>
      <point x="875" y="574" type="curve"/>
      <point x="1257" y="0" type="line"/>
      <point x="872" y="0" type="line"/>
      <point x="590" y="485" type="line"/>
    </contour>
    <contour>
      <point x="485" y="741" type="line"/>
      <point x="562" y="741" type="line"/>
      <point x="695" y="741"/>
      <point x="760" y="798"/>
      <point x="760" y="913" type="curve" smooth="yes"/>
      <point x="760" y="1011"/>
      <point x="696" y="1058"/>
      <point x="565" y="1058" type="curve" smooth="yes"/>
      <point x="485" y="1058" type="line"/>
    </contour>
  </outline>
</glyph>
<glyph name="S" format="1">
  <advance width="1060"/>
  <unicode hex="0053"/>
  <outline>
    <contour>
      <point x="996" y="396" type="curve"/>
      <point x="999" y="161"/>
      <point x="808" y="-8"/>
      <point x="512" y="-10" type="curve"/>
      <point x="425" y="-15"/>
      <point x="347" y="-12"/>
      <point x="281" y="-1" type="curve" smooth="yes"/>
      <point x="215" y="10"/>
      <point x="148" y="31"/>
      <point x="82" y="63" type="curve"/>
      <point x="82" y="366" type="line"/>
      <point x="153" y="331"/>
      <point x="229" y="302"/>
      <point x="306" y="285" type="curve" smooth="yes"/>
      <point x="389" y="268"/>
      <point x="460" y="265"/>
      <point x="516" y="276" type="curve" smooth="yes"/>
      <point x="613" y="280"/>
      <point x="656" y="321"/>
      <point x="655" y="375" type="curve" smooth="yes"/>
      <point x="653" y="394"/>
      <point x="646" y="411"/>
      <point x="633" y="425" type="curve" smooth="yes"/>
      <point x="621" y="439"/>
      <point x="601" y="454"/>
      <point x="573" y="470" type="curve" smooth="yes"/>
      <point x="544" y="486"/>
      <point x="483" y="516"/>
      <point x="391" y="560" type="curve" smooth="yes"/>
      <point x="309" y="601"/>
      <point x="247" y="642"/>
      <point x="208" y="683" type="curve" smooth="yes"/>
      <point x="129" y="759"/>
      <point x="95" y="850"/>
      <point x="101" y="973" type="curve" smooth="yes"/>
      <point x="107" y="1089"/>
      <point x="156" y="1179"/>
      <point x="247" y="1241" type="curve" smooth="yes"/>
      <point x="339" y="1304"/>
      <point x="460" y="1333"/>
      <point x="611" y="1329" type="curve" smooth="yes"/>
      <point x="736" y="1329"/>
      <point x="859" y="1289"/>
      <point x="990" y="1231" type="curve"/>
      <point x="981" y="1235"/>
      <point x="872" y="985"/>
      <point x="864" y="985" type="curve"/>
      <point x="738" y="1036"/>
      <point x="632" y="1056"/>
      <point x="550" y="1046" type="curve" smooth="yes"/>
      <point x="465" y="1042"/>
      <point x="429" y="1006"/>
      <point x="431" y="960" type="curve" smooth="yes"/>
      <point x="432" y="933"/>
      <point x="446" y="910"/>
      <point x="474" y="889" type="curve" smooth="yes"/>
      <point x="502" y="868"/>
      <point x="574" y="832"/>
      <point x="689" y="780" type="curve" smooth="yes"/>
      <point x="804" y="730"/>
      <point x="884" y="675"/>
      <point x="929" y="616" type="curve"/>
      <point x="974" y="558"/>
      <point x="996" y="485"/>
    </contour>
  </outline>
</glyph>
<glyph name="V" format="1">
  <advance width="1197"/>
  <unicode hex="0056"/>
  <outline>
    <contour>
      <point x="835" y="1316" type="line"/>
      <point x="1197" y="1316" type="line"/>
      <point x="780" y="0" type="line"/>
      <point x="418" y="0" type="line"/>
      <point x="0" y="1316" type="line"/>
      <point x="356" y="1316" type="line"/>
      <point x="570" y="597" type="line"/>
      <point x="556" y="615"/>
      <point x="566" y="538"/>
      <point x="595" y="370" type="curve"/>
      <point x="648" y="624"/>
      <point x="688" y="803"/>
      <point x="723" y="906" type="curve" smooth="yes"/>
    </contour>
  </outline>
</glyph>
<glyph name="X" format="1">
  <advance width="1311"/>
  <unicode hex="0058"/>
  <outline>
    <contour>
      <point x="1305" y="0" type="line"/>
      <point x="913" y="0" type="line"/>
      <point x="649" y="425" type="line"/>
      <point x="387" y="0" type="line"/>
      <point x="4" y="0" type="line"/>
      <point x="440" y="674" type="line"/>
      <point x="31" y="1316" type="line"/>
      <point x="406" y="1316" type="line"/>
      <point x="651" y="900" type="line"/>
      <point x="888" y="1316" type="line"/>
      <point x="1274" y="1316" type="line"/>
      <point x="858" y="649" type="line"/>
    </contour>
  </outline>
</glyph>
<glyph name="Y" format="1">
  <advance width="1208"/>
  <unicode hex="0059"/>
  <outline>
    <contour>
      <point x="604" y="814" type="line"/>
      <point x="841" y="1316" type="line"/>
      <point x="1208" y="1316" type="line"/>
      <point x="775" y="514" type="line"/>
      <point x="775" y="0" type="line"/>
      <point x="433" y="0" type="line"/>
      <point x="433" y="503" type="line"/>
      <point x="0" y="1316" type="line"/>
      <point x="369" y="1316" type="line"/>
    </contour>
  </outline>
</glyph>
<glyph name="Z" format="1">
  <advance width="1120"/>
  <unicode hex="005A"/>
  <outline>
    <contour>
      <point x="1072" y="0" type="line"/>
      <point x="57" y="0" type="line"/>
      <point x="57" y="212" type="line"/>
      <point x="637" y="1041" type="line"/>
      <point x="70" y="1041" type="line"/>
      <point x="70" y="1316" type="line"/>
      <point x="1057" y="1316" type="line"/>
      <point x="1057" y="1105" type="line"/>
      <point x="477" y="275" type="line"/>
      <point x="1072" y="275" type="line"/>
    </contour>
  </outline>
</glyph>
<glyph name="bracketleft.deva" format="1">
  <advance width="599"/>
  <unicode hex="005B"/>
  <outline>
    <contour>
      <point x="555" y="-309" type="line"/>
      <point x="109" y="-309" type="line"/>
      <point x="109" y="1350" type="line"/>
      <point x="555" y="1350" type="line"/>
      <point x="555" y="1129" type="line"/>
      <point x="384" y="1129" type="line"/>
      <point x="384" y="-88" type="line"/>
      <point x="555" y="-88" type="line"/>
    </contour>
  </outline>
</glyph>
<glyph name="backslash.deva" format="1">
  <advance width="803"/>
  <unicode hex="005C"/>
  <outline>
    <contour>
      <point x="305" y="1333" type="line"/>
      <point x="795" y="-17" type="line"/>
      <point x="497" y="-17" type="line"/>
      <point x="6" y="1333" type="line"/>
    </contour>
  </outline>
</glyph>
<glyph name="bracketright.deva" format="1">
  <advance width="599"/>
  <unicode hex="005D"/>
  <outline>
    <contour>
      <point x="42" y="-88" type="line"/>
      <point x="214" y="-88" type="line"/>
      <point x="214" y="1129" type="line"/>
      <point x="42" y="1129" type="line"/>
      <point x="42" y="1350" type="line"/>
      <point x="489" y="1350" type="line"/>
      <point x="489" y="-309" type="line"/>
      <point x="42" y="-309" type="line"/>
    </contour>
  </outline>
</glyph>
<glyph name="asciicircum.deva" format="1">
  <advance width="839"/>
  <unicode hex="005E"/>
  <outline>
    <contour>
      <point x="-62" y="469" type="line"/>
      <point x="244" y="1326" type="line"/>
      <point x="418" y="1326" type="line"/>
      <point x="892" y="469" type="line"/>
      <point x="613" y="469" type="line"/>
      <point x="342" y="1012" type="line"/>
      <point x="217" y="469" type="line"/>
    </contour>
  </outline>
</glyph>
<glyph name="underscore.deva" format="1">
  <advance width="914"/>
  <unicode hex="005F"/>
  <outline>
    <contour>
      <point x="917" y="-336" type="line"/>
      <point x="-4" y="-336" type="line"/>
      <point x="-4" y="-124" type="line"/>
      <point x="917" y="-124" type="line"/>
    </contour>
  </outline>
</glyph>
<glyph name="c" format="1">
  <advance width="880"/>
  <unicode hex="0063"/>
  <outline>
    <contour>
      <point x="550" y="-18" type="curve" smooth="yes"/>
      <point x="395" y="-18"/>
      <point x="281" y="26"/>
      <point x="202" y="114" type="curve" smooth="yes"/>
      <point x="127" y="199"/>
      <point x="91" y="326"/>
      <point x="91" y="499" type="curve" smooth="yes"/>
      <point x="91" y="673"/>
      <point x="128" y="803"/>
      <point x="198" y="893" type="curve" smooth="yes"/>
      <point x="269" y="980"/>
      <point x="385" y="1025"/>
      <point x="544" y="1025" type="curve" smooth="yes"/>
      <point x="480" y="1025"/>
      <point x="428" y="1050"/>
      <point x="384" y="1098" type="curve" smooth="yes"/>
      <point x="573" y="1058"/>
      <point x="795" y="1248"/>
      <point x="904" y="1192" type="curve"/>
      <point x="1161" y="1107"/>
      <point x="1197" y="554"/>
      <point x="1387" y="554" type="curve"/>
      <point x="1852" y="662"/>
      <point x="1884" y="1199"/>
      <point x="1642" y="2043" type="curve" smooth="yes"/>
      <point x="833" y="2442"/>
      <point x="337" y="2239"/>
      <point x="152" y="1439" type="curve" smooth="yes"/>
      <point x="-36" y="688"/>
      <point x="100" y="260"/>
      <point x="537" y="260" type="curve" smooth="yes"/>
      <point x="598" y="260"/>
      <point x="688" y="284"/>
      <point x="808" y="332" type="curve"/>
      <point x="808" y="48" type="line"/>
      <point x="733" y="5"/>
      <point x="647" y="-18"/>
    </contour>
  </outline>
</glyph>
<glyph name="d" format="1">
  <advance width="1180"/>
  <unicode hex="0064"/>
  <outline>
    <contour>
      <point x="0" y="0" type="line"/>
      <point x="1180" y="0" type="line"/>
      <point x="1180" y="20" type="line"/>
      <point x="0" y="20" type="line"/>
    </contour>
  </outline>
</glyph>
<glyph name="e" format="1">
  <advance width="1130"/>
  <unicode hex="0065"/>
  <outline>
    <contour>
      <point x="611" y="-18" type="curve" smooth="yes"/>
      <point x="443" y="-18"/>
      <point x="312" y="27"/>
      <point x="219" y="117" type="curve" smooth="yes"/>
      <point x="126" y="208"/>
      <point x="79" y="335"/>
      <point x="79" y="502" type="curve" smooth="yes"/>
      <point x="79" y="672"/>
      <point x="122" y="804"/>
      <point x="208" y="896" type="curve" smooth="yes"/>
      <point x="294" y="989"/>
      <point x="418" y="1035"/>
      <point x="576" y="1035" type="curve" smooth="yes"/>
      <point x="869" y="1035"/>
      <point x="1037" y="879"/>
      <point x="1043" y="596" type="curve" smooth="yes"/>
      <point x="1049" y="590"/>
      <point x="1052" y="438"/>
      <point x="1052" y="427" type="curve"/>
      <point x="474" y="419" type="line"/>
      <point x="478" y="314"/>
      <point x="499" y="251"/>
      <point x="624" y="251" type="curve" smooth="yes"/>
      <point x="681" y="232"/>
      <point x="743" y="228"/>
      <point x="806" y="238" type="curve" smooth="yes"/>
      <point x="862" y="249"/>
      <point x="922" y="269"/>
      <point x="987" y="299" type="curve"/>
      <point x="987" y="56" type="line"/>
      <point x="932" y="28"/>
      <point x="876" y="9"/>
      <point x="818" y="-2" type="curve" smooth="yes"/>
      <point x="760" y="-13"/>
      <point x="691" y="-18"/>
    </contour>
    <contour>
      <point x="588" y="805" type="curve" smooth="yes"/>
      <point x="499" y="805"/>
      <point x="435" y="750"/>
      <point x="425" y="632" type="curve"/>
      <point x="745" y="632" type="line"/>
      <point x="744" y="738"/>
      <point x="685" y="805"/>
    </contour>
  </outline>
</glyph>
<glyph name="h" format="1">
  <advance width="1264"/>
  <unicode hex="0068"/>
  <outline>
    <contour>
      <point x="794" y="0" type="line"/>
      <point x="794" y="650" type="line"/>
      <point x="794" y="702"/>
      <point x="754" y="759"/>
      <point x="655" y="759" type="curve" smooth="yes"/>
      <point x="523" y="759"/>
      <point x="474" y="672"/>
      <point x="474" y="443" type="curve" smooth="yes"/>
      <point x="474" y="0" type="line"/>
      <point x="140" y="0" type="line"/>
      <point x="140" y="1400" type="line"/>
      <point x="474" y="1400" type="line"/>
      <point x="474" y="1040" type="line"/>
      <point x="474" y="834"/>
      <point x="482" y="1043"/>
      <point x="461" y="911" type="curve"/>
      <point x="476" y="911" type="line"/>
      <point x="493" y="939"/>
      <point x="621" y="1021"/>
      <point x="682" y="1021" type="curve" smooth="yes"/>
      <point x="980" y="1021"/>
      <point x="1131" y="942"/>
      <point x="1131" y="652" type="curve" smooth="yes"/>
      <point x="1131" y="0" type="line"/>
    </contour>
  </outline>
</glyph>
<glyph name="i" format="1">
  <advance width="588"/>
  <unicode hex="0069"/>
  <outline>
    <contour>
      <point x="461" y="0" type="line"/>
      <point x="126" y="0" type="line"/>
      <point x="126" y="1017" type="line"/>
      <point x="461" y="1017" type="line"/>
    </contour>
    <contour>
      <point x="117" y="1271" type="curve" smooth="yes"/>
      <point x="117" y="1375"/>
      <point x="170" y="1424"/>
      <point x="296" y="1424" type="curve" smooth="yes"/>
      <point x="420" y="1424"/>
      <point x="475" y="1372"/>
      <point x="475" y="1271" type="curve" smooth="yes"/>
      <point x="475" y="1171"/>
      <point x="414" y="1122"/>
      <point x="296" y="1122" type="curve" smooth="yes"/>
      <point x="177" y="1122"/>
      <point x="117" y="1171"/>
    </contour>
  </outline>
</glyph>
<glyph name="j" format="1">
  <advance width="614"/>
  <unicode hex="006A"/>
  <outline>
    <contour>
      <point x="57" y="-443" type="curve" smooth="yes"/>
      <point x="-27" y="-443"/>
      <point x="-95" y="-435"/>
      <point x="-136" y="-420" type="curve"/>
      <point x="-136" y="-166" type="line"/>
      <point x="-95" y="-178"/>
      <point x="-48" y="-184"/>
      <point x="4" y="-184" type="curve" smooth="yes"/>
      <point x="111" y="-184"/>
      <point x="140" y="-139"/>
      <point x="140" y="-38" type="curve" smooth="yes"/>
      <point x="140" y="1010" type="line"/>
      <point x="474" y="1010" type="line"/>
      <point x="474" y="-33" type="line"/>
      <point x="474" y="-331"/>
      <point x="351" y="-443"/>
    </contour>
    <contour>
      <point x="131" y="1266" type="curve" smooth="yes"/>
      <point x="131" y="1367"/>
      <point x="222" y="1404"/>
      <point x="313" y="1404" type="curve" smooth="yes"/>
      <point x="394" y="1404"/>
      <point x="488" y="1369"/>
      <point x="488" y="1266" type="curve" smooth="yes"/>
      <point x="488" y="1153"/>
      <point x="394" y="1127"/>
      <point x="313" y="1127" type="curve" smooth="yes"/>
      <point x="222" y="1127"/>
      <point x="131" y="1168"/>
    </contour>
  </outline>
</glyph>
<glyph name="k" format="1">
  <advance width="1195"/>
  <unicode hex="006B"/>
  <outline>
    <contour>
      <point x="450" y="567" type="line"/>
      <point x="491" y="633"/>
      <point x="527" y="686"/>
      <point x="559" y="725" type="curve" smooth="yes"/>
      <point x="795" y="1017" type="line"/>
      <point x="1170" y="1017" type="line"/>
      <point x="813" y="584" type="line"/>
      <point x="1193" y="0" type="line"/>
      <point x="809" y="0" type="line"/>
      <point x="575" y="373" type="line"/>
      <point x="461" y="285" type="line"/>
      <point x="461" y="0" type="line"/>
      <point x="124" y="0" type="line"/>
      <point x="124" y="1400" type="line"/>
      <point x="461" y="1400" type="line"/>
      <point x="461" y="834" type="line"/>
      <point x="461" y="744"/>
      <point x="455" y="656"/>
      <point x="442" y="567" type="curve"/>
    </contour>
  </outline>
</glyph>
<glyph name="n" format="1">
  <advance width="1227"/>
  <unicode hex="006E"/>
  <outline>
    <contour>
      <point x="771" y="0" type="line"/>
      <point x="771" y="563" type="line"/>
      <point x="771" y="701"/>
      <point x="730" y="770"/>
      <point x="639" y="770" type="curve" smooth="yes"/>
      <point x="577" y="770"/>
      <point x="531" y="746"/>
      <point x="502" y="698" type="curve" smooth="yes"/>
      <point x="473" y="651"/>
      <point x="460" y="568"/>
      <point x="460" y="452" type="curve" smooth="yes"/>
      <point x="460" y="0" type="line"/>
      <point x="124" y="0" type="line"/>
      <point x="124" y="1017" type="line"/>
      <point x="378" y="1017" type="line"/>
      <point x="421" y="890" type="line"/>
      <point x="440" y="890" type="line"/>
      <point x="501" y="987"/>
      <point x="610" y="1035"/>
      <point x="749" y="1035" type="curve" smooth="yes"/>
      <point x="975" y="1035"/>
      <point x="1106" y="900"/>
      <point x="1106" y="661" type="curve" smooth="yes"/>
      <point x="1106" y="0" type="line"/>
    </contour>
  </outline>
</glyph>
<glyph name="o" format="1">
  <advance width="1169"/>
  <unicode hex="006F"/>
  <outline>
    <contour>
      <point x="1088" y="511" type="curve"/>
      <point x="1088" y="344"/>
      <point x="1043" y="214"/>
      <point x="954" y="122" type="curve" smooth="yes"/>
      <point x="866" y="29"/>
      <point x="741" y="-18"/>
      <point x="581" y="-18" type="curve" smooth="yes"/>
      <point x="417" y="-18"/>
      <point x="289" y="42"/>
      <point x="205" y="155" type="curve" smooth="yes"/>
      <point x="121" y="256"/>
      <point x="82" y="384"/>
      <point x="89" y="541" type="curve" smooth="yes"/>
      <point x="96" y="701"/>
      <point x="146" y="823"/>
      <point x="239" y="908" type="curve" smooth="yes"/>
      <point x="333" y="993"/>
      <point x="458" y="1031"/>
      <point x="613" y="1024" type="curve"/>
      <point x="896" y="1020"/>
      <point x="1092" y="815"/>
    </contour>
    <contour>
      <point x="421" y="511" type="curve" smooth="yes"/>
      <point x="421" y="329"/>
      <point x="467" y="232"/>
      <point x="585" y="232" type="curve" smooth="yes"/>
      <point x="701" y="232"/>
      <point x="747" y="329"/>
      <point x="747" y="511" type="curve" smooth="yes"/>
      <point x="747" y="692"/>
      <point x="702" y="784"/>
      <point x="583" y="784" type="curve" smooth="yes"/>
      <point x="468" y="784"/>
      <point x="421" y="692"/>
    </contour>
  </outline>
</glyph>
<glyph name="r" format="1">
  <advance width="856"/>
  <unicode hex="0072"/>
  <outline>
    <contour>
      <point x="725" y="1035" type="curve" smooth="yes"/>
      <point x="757" y="1035"/>
      <point x="787" y="1032"/>
      <point x="815" y="1027" type="curve" smooth="yes"/>
      <point x="833" y="1019" type="line"/>
      <point x="830" y="1020"/>
      <point x="799" y="709"/>
      <point x="796" y="709" type="curve"/>
      <point x="763" y="715"/>
      <point x="722" y="717"/>
      <point x="670" y="712" type="curve" smooth="yes"/>
      <point x="524" y="708"/>
      <point x="459" y="634"/>
      <point x="459" y="503" type="curve" smooth="yes"/>
      <point x="459" y="0" type="line"/>
      <point x="124" y="0" type="line"/>
      <point x="124" y="1017" type="line"/>
      <point x="374" y="1017" type="line"/>
      <point x="426" y="854" type="line"/>
      <point x="442" y="854" type="line"/>
      <point x="472" y="909"/>
      <point x="513" y="953"/>
      <point x="566" y="986" type="curve" smooth="yes"/>
      <point x="618" y="1019"/>
      <point x="671" y="1035"/>
    </contour>
  </outline>
</glyph>
<glyph name="w" format="1">
  <advance width="1740"/>
  <unicode hex="0077"/>
  <outline>
    <contour>
      <point x="1018" y="0" type="line"/>
      <point x="937" y="352" type="line"/>
      <point x="935" y="357"/>
      <point x="901" y="486"/>
      <point x="840" y="729" type="curve"/>
      <point x="830" y="729" type="line"/>
      <point x="733" y="306"/>
      <point x="706" y="183"/>
      <point x="634" y="-46" type="curve" smooth="yes"/>
      <point x="6" y="-1973" type="line"/>
      <point x="-31" y="0" type="line"/>
      <point x="-847" y="3970" type="line"/>
      <point x="628" y="1010" type="line"/>
      <point x="886" y="16"/>
      <point x="795" y="-745"/>
      <point x="928" y="-1268" type="curve" smooth="yes"/>
      <point x="1061" y="-1788"/>
      <point x="662" y="-426"/>
      <point x="683" y="-608" type="curve"/>
      <point x="571" y="-184"/>
      <point x="526" y="128"/>
      <point x="493" y="327" type="curve"/>
      <point x="521" y="468"/>
      <point x="546" y="646"/>
      <point x="607" y="863" type="curve" smooth="yes"/>
      <point x="561" y="661"/>
      <point x="531" y="552"/>
      <point x="524" y="535" type="curve"/>
      <point x="644" y="1010" type="line"/>
      <point x="1051" y="1010" type="line"/>
      <point x="1179" y="532" type="line"/>
      <point x="1186" y="544"/>
      <point x="1196" y="475"/>
      <point x="1217" y="332" type="curve"/>
      <point x="1228" y="332" type="line"/>
      <point x="1224" y="303"/>
      <point x="1176" y="118"/>
      <point x="1086" y="-215" type="curve" smooth="yes"/>
      <point x="1130" y="-34"/>
      <point x="929" y="-757"/>
      <point x="1392" y="1010" type="curve"/>
      <point x="1744" y="1010" type="line"/>
      <point x="1450" y="0" type="line"/>
    </contour>
  </outline>
</glyph>
<glyph name="y" format="1">
  <advance width="1107"/>
  <unicode hex="0079"/>
  <outline>
    <contour>
      <point x="-2" y="1017" type="line"/>
      <point x="352" y="1017" type="line"/>
      <point x="527" y="435" type="line"/>
      <point x="538" y="395"/>
      <point x="546" y="353"/>
      <point x="550" y="309" type="curve"/>
      <point x="557" y="309" type="line"/>
      <point x="563" y="352"/>
      <point x="572" y="394"/>
      <point x="585" y="433" type="curve" smooth="yes"/>
      <point x="764" y="1017" type="line"/>
      <point x="1107" y="1017" type="line"/>
      <point x="701" y="-71" type="line"/>
      <point x="650" y="-206"/>
      <point x="589" y="-301"/>
      <point x="517" y="-356" type="curve" smooth="yes"/>
      <point x="443" y="-414"/>
      <point x="348" y="-443"/>
      <point x="229" y="-443" type="curve" smooth="yes"/>
      <point x="182" y="-443"/>
      <point x="135" y="-438"/>
      <point x="86" y="-428" type="curve"/>
      <point x="86" y="-163" type="line"/>
      <point x="118" y="-170"/>
      <point x="155" y="-174"/>
      <point x="196" y="-174" type="curve" smooth="yes"/>
      <point x="229" y="-174"/>
      <point x="257" y="-167"/>
      <point x="281" y="-152" type="curve" smooth="yes"/>
      <point x="304" y="-139"/>
      <point x="325" y="-120"/>
      <point x="343" y="-95" type="curve" smooth="yes"/>
      <point x="360" y="-70"/>
      <point x="379" y="-34"/>
      <point x="398" y="13" type="curve"/>
    </contour>
  </outline>
</glyph>
<glyph name="z" format="1">
  <advance width="928"/>
  <unicode hex="007A"/>
  <outline>
    <contour>
      <point x="880" y="0" type="line"/>
      <point x="46" y="0" type="line"/>
      <point x="46" y="193" type="line"/>
      <point x="478" y="761" type="line"/>
      <point x="71" y="761" type="line"/>
      <point x="71" y="1017" type="line"/>
      <point x="860" y="1017" type="line"/>
      <point x="860" y="808" type="line"/>
      <point x="446" y="257" type="line"/>
      <point x="880" y="257" type="line"/>
    </contour>
  </outline>
</glyph>
<glyph name="braceleft.deva" format="1">
  <advance width="235"/>
  <unicode hex="007B"/>
  <outline>
    <contour>
      <point x="357" y="-186" type="line"/>
      <point x="357" y="-309"/>
      <point x="454" y="-335"/>
      <point x="477" y="-335" type="curve"/>
      <point x="477" y="-595" type="line"/>
      <point x="-87" y="-583"/>
      <point x="-356" y="-225"/>
      <point x="-208" y="383" type="curve" smooth="yes"/>
      <point x="-60" y="247"/>
      <point x="16" y="1133"/>
      <point x="16" y="849" type="curve"/>
      <point x="16" y="1352"/>
      <point x="-294" y="633"/>
      <point x="-874" y="633" type="curve"/>
      <point x="-874" y="260"/>
      <point x="-665" y="581"/>
      <point x="-248" y="575" type="curve"/>
      <point x="380" y="587"/>
      <point x="642" y="583"/>
      <point x="642" y="1046" type="curve" smooth="yes"/>
      <point x="197" y="1036"/>
      <point x="16" y="1971"/>
      <point x="16" y="1611" type="curve"/>
      <point x="16" y="1985"/>
      <point x="145" y="1326"/>
      <point x="406" y="1532" type="curve" smooth="yes"/>
      <point x="668" y="1199"/>
      <point x="691" y="1026"/>
      <point x="477" y="1013" type="curve"/>
      <point x="477" y="755" type="line"/>
      <point x="420" y="760"/>
      <point x="357" y="706"/>
      <point x="357" y="622" type="curve" smooth="yes"/>
      <point x="357" y="380" type="line"/>
      <point x="357" y="333"/>
      <point x="239" y="238"/>
      <point x="58" y="217" type="curve"/>
      <point x="58" y="201" type="line"/>
      <point x="242" y="181"/>
      <point x="357" y="86"/>
      <point x="357" y="15" type="curve" smooth="yes"/>
    </contour>
  </outline>
</glyph>
<glyph name="bar.deva" format="1">
  <advance width="944"/>
  <unicode hex="007C"/>
  <outline>
    <contour>
      <point x="356" y="1400" type="line"/>
      <point x="588" y="1400" type="line"/>
      <point x="588" y="-405" type="line"/>
      <point x="356" y="-405" type="line"/>
    </contour>
  </outline>
</glyph>
<glyph name="asciitilde.deva" format="1">
  <advance width="1044"/>
  <unicode hex="007E"/>
  <outline>
    <contour>
      <point x="276" y="587" type="curve" smooth="yes"/>
      <point x="211" y="587"/>
      <point x="140" y="550"/>
      <point x="67" y="478" type="curve"/>
      <point x="67" y="721" type="line"/>
      <point x="129" y="786"/>
      <point x="208" y="818"/>
      <point x="303" y="818" type="curve" smooth="yes"/>
      <point x="344" y="818"/>
      <point x="383" y="814"/>
      <point x="419" y="806" type="curve" smooth="yes"/>
      <point x="456" y="798"/>
      <point x="501" y="783"/>
      <point x="554" y="762" type="curve" smooth="yes"/>
      <point x="633" y="729"/>
      <point x="703" y="712"/>
      <point x="767" y="712" type="curve" smooth="yes"/>
      <point x="828" y="712"/>
      <point x="908" y="753"/>
      <point x="975" y="821" type="curve"/>
      <point x="975" y="578" type="line"/>
      <point x="912" y="513"/>
      <point x="833" y="480"/>
      <point x="739" y="480" type="curve" smooth="yes"/>
      <point x="692" y="480"/>
      <point x="650" y="485"/>
      <point x="608" y="496" type="curve" smooth="yes"/>
      <point x="570" y="506"/>
      <point x="527" y="521"/>
      <point x="479" y="541" type="curve" smooth="yes"/>
      <point x="404" y="572"/>
      <point x="337" y="587"/>
    </contour>
  </outline>
</glyph>
<glyph name="multiply.deva" format="1">
  <advance width="1044"/>
  <unicode hex="00D7"/>
  <outline>
    <contour>
      <point x="389" y="684" type="line"/>
      <point x="176" y="898" type="line"/>
      <point x="301" y="1028" type="line"/>
      <point x="550" y="782" type="line"/>
      <point x="770" y="995" type="line"/>
      <point x="899" y="870" type="line"/>
      <point x="647" y="618" type="line"/>
      <point x="863" y="400" type="line"/>
      <point x="736" y="273" type="line"/>
      <point x="484" y="523" type="line"/>
      <point x="268" y="308" type="line"/>
      <point x="145" y="436" type="line"/>
    </contour>
  </outline>
</glyph>
<glyph name="anusvaradeva" format="1">
  <advance width="0"/>
  <unicode hex="0902"/>
  <outline>
    <contour>
      <point x="-376" y="1758" type="curve" smooth="yes"/>
      <point x="-262" y="1758"/>
      <point x="-213" y="1681"/>
      <point x="-213" y="1614" type="curve" smooth="yes"/>
      <point x="-213" y="1547"/>
      <point x="-262" y="1468"/>
      <point x="-376" y="1468" type="curve" smooth="yes"/>
      <point x="-483" y="1468"/>
      <point x="-539" y="1543"/>
      <point x="-539" y="1614" type="curve" smooth="yes"/>
      <point x="-539" y="1682"/>
      <point x="-485" y="1758"/>
    </contour>
    <contour>
      <point x="-539" y="1293" type="move" name="_top"/>
    </contour>
  </outline>
</glyph>
<glyph name="aadeva" format="1">
  <advance width="2375"/>
  <unicode hex="0906"/>
  <outline>
    <contour>
      <point x="691" y="783" type="line"/>
      <point x="830" y="720"/>
      <point x="946" y="610"/>
      <point x="946" y="425" type="curve" smooth="yes"/>
      <point x="946" y="234"/>
      <point x="789" y="79"/>
      <point x="537" y="79" type="curve" smooth="yes"/>
      <point x="355" y="79"/>
      <point x="211" y="135"/>
      <point x="64" y="230" type="curve"/>
      <point x="128" y="480" type="line"/>
      <point x="251" y="395"/>
      <point x="357" y="355"/>
      <point x="462" y="355" type="curve" smooth="yes"/>
      <point x="569" y="355"/>
      <point x="625" y="409"/>
      <point x="625" y="491" type="curve" smooth="yes"/>
      <point x="625" y="553"/>
      <point x="578" y="600"/>
      <point x="498" y="630" type="curve"/>
    </contour>
    <contour>
      <point x="886" y="943" type="curve" smooth="yes"/>
      <point x="886" y="721"/>
      <point x="699" y="592"/>
      <point x="328" y="566" type="curve" smooth="yes"/>
      <point x="304" y="564" type="line"/>
      <point x="244" y="821" type="line"/>
      <point x="256" y="822" type="line"/>
      <point x="532" y="841"/>
      <point x="579" y="892"/>
      <point x="579" y="971" type="curve" smooth="yes"/>
      <point x="579" y="1021"/>
      <point x="539" y="1049"/>
      <point x="462" y="1049" type="curve" smooth="yes"/>
      <point x="376" y="1049"/>
      <point x="296" y="1024"/>
      <point x="184" y="964" type="curve"/>
      <point x="107" y="1224" type="line"/>
      <point x="212" y="1272"/>
      <point x="320" y="1302"/>
      <point x="479" y="1302" type="curve" smooth="yes"/>
      <point x="735" y="1302"/>
      <point x="886" y="1155"/>
    </contour>
    <contour>
      <point x="722" y="699" type="line"/>
      <point x="786" y="676"/>
      <point x="853" y="664"/>
      <point x="938" y="664" type="curve" smooth="yes"/>
      <point x="1031" y="664"/>
      <point x="1156" y="695"/>
      <point x="1221" y="756" type="curve"/>
      <point x="1221" y="435" type="line"/>
      <point x="1191" y="428"/>
      <point x="1104" y="416"/>
      <point x="1047" y="416" type="curve" smooth="yes"/>
      <point x="951" y="416"/>
      <point x="879" y="424"/>
      <point x="777" y="437" type="curve"/>
    </contour>
    <contour>
      <point x="1839" y="1104" type="line"/>
      <point x="2187" y="1104" type="line"/>
      <point x="2187" y="0" type="line"/>
      <point x="1839" y="0" type="line"/>
    </contour>
    <contour>
      <point x="1176" y="1104" type="line"/>
      <point x="1524" y="1104" type="line"/>
      <point x="1524" y="0" type="line"/>
      <point x="1176" y="0" type="line"/>
    </contour>
    <contour>
      <point x="2405" y="1065" type="line"/>
      <point x="1009" y="1065" type="line"/>
      <point x="1009" y="1293" type="line"/>
      <point x="2405" y="1293" type="line"/>
    </contour>
  </outline>
</glyph>
<glyph name="ideva" format="1">
  <advance width="1149"/>
  <unicode hex="0907"/>
  <outline>
    <contour>
      <point x="557" y="142" type="line"/>
      <point x="868" y="-187" type="line"/>
      <point x="655" y="-320" type="line"/>
      <point x="309" y="59" type="line"/>
      <point x="443" y="-33" type="line"/>
      <point x="177" y="-33"/>
      <point x="80" y="83"/>
      <point x="80" y="167" type="curve" smooth="yes"/>
      <point x="80" y="244"/>
      <point x="147" y="317"/>
      <point x="248" y="317" type="curve" smooth="yes"/>
      <point x="339" y="317"/>
      <point x="423" y="277"/>
      <point x="530" y="170" type="curve"/>
    </contour>
    <contour>
      <point x="599" y="1086" type="line"/>
      <point x="947" y="1086" type="line"/>
      <point x="947" y="723" type="line"/>
      <point x="478" y="723" type="line"/>
      <point x="402" y="723"/>
      <point x="373" y="690"/>
      <point x="373" y="648" type="curve" smooth="yes"/>
      <point x="373" y="611"/>
      <point x="398" y="588"/>
      <point x="461" y="558" type="curve"/>
      <point x="347" y="574" type="line"/>
      <point x="442" y="608"/>
      <point x="553" y="631"/>
      <point x="688" y="631" type="curve" smooth="yes"/>
      <point x="897" y="631"/>
      <point x="1050" y="510"/>
      <point x="1050" y="332" type="curve" smooth="yes"/>
      <point x="1050" y="132"/>
      <point x="882" y="-21"/>
      <point x="508" y="-21" type="curve"/>
      <point x="457" y="218" type="line"/>
      <point x="675" y="218"/>
      <point x="742" y="275"/>
      <point x="742" y="326" type="curve" smooth="yes"/>
      <point x="742" y="367"/>
      <point x="704" y="388"/>
      <point x="640" y="388" type="curve" smooth="yes"/>
      <point x="579" y="388"/>
      <point x="490" y="368"/>
      <point x="412" y="335" type="curve"/>
      <point x="403" y="335" type="line"/>
      <point x="156" y="447"/>
      <point x="70" y="565"/>
      <point x="70" y="700" type="curve" smooth="yes"/>
      <point x="70" y="828"/>
      <point x="165" y="946"/>
      <point x="400" y="946" type="curve" smooth="yes"/>
      <point x="666" y="946" type="line"/>
      <point x="599" y="880" type="line"/>
    </contour>
    <contour>
      <point x="1179" y="1065" type="line"/>
      <point x="-30" y="1065" type="line"/>
      <point x="-30" y="1293" type="line"/>
      <point x="1179" y="1293" type="line"/>
    </contour>
  </outline>
</glyph>
<glyph name="udeva" format="1">
  <advance width="1125"/>
  <unicode hex="0909"/>
  <outline>
    <contour>
      <point x="323" y="539" type="line"/>
      <point x="262" y="808" type="line"/>
      <point x="288" y="810" type="line"/>
      <point x="568" y="829"/>
      <point x="624" y="892"/>
      <point x="624" y="969" type="curve" smooth="yes"/>
      <point x="624" y="1029"/>
      <point x="592" y="1065"/>
      <point x="479" y="1078" type="curve"/>
      <point x="562" y="1265" type="line"/>
      <point x="797" y="1241"/>
      <point x="936" y="1140"/>
      <point x="936" y="928" type="curve" smooth="yes"/>
      <point x="936" y="727"/>
      <point x="766" y="568"/>
      <point x="351" y="541" type="curve" smooth="yes"/>
    </contour>
    <contour>
      <point x="-30" y="1065" type="line"/>
      <point x="-30" y="1293" type="line"/>
      <point x="1155" y="1293" type="line"/>
      <point x="1155" y="1065" type="line"/>
    </contour>
    <contour>
      <point x="708" y="754" type="line"/>
      <point x="897" y="688"/>
      <point x="1024" y="536"/>
      <point x="1024" y="361" type="curve" smooth="yes"/>
      <point x="1024" y="146"/>
      <point x="869" y="-4"/>
      <point x="582" y="-4" type="curve" smooth="yes"/>
      <point x="386" y="-4"/>
      <point x="195" y="65"/>
      <point x="35" y="174" type="curve"/>
      <point x="120" y="433" type="line"/>
      <point x="249" y="339"/>
      <point x="399" y="282"/>
      <point x="507" y="282" type="curve" smooth="yes"/>
      <point x="623" y="282"/>
      <point x="688" y="338"/>
      <point x="688" y="418" type="curve" smooth="yes"/>
      <point x="688" y="490"/>
      <point x="632" y="565"/>
      <point x="502" y="589" type="curve"/>
    </contour>
    <contour>
      <point x="499" y="1293" type="move" name="top"/>
    </contour>
  </outline>
</glyph>
<glyph name="rvocalicdeva" format="1">
  <advance width="1824"/>
  <unicode hex="090B"/>
  <outline>
    <contour>
      <point x="1116" y="1065" type="line"/>
      <point x="1116" y="1293" type="line"/>
      <point x="1854" y="1293" type="line"/>
      <point x="1854" y="1065" type="line"/>
    </contour>
    <contour>
      <point x="1017" y="765" type="line"/>
      <point x="1059" y="710"/>
      <point x="1103" y="687"/>
      <point x="1177" y="687" type="curve" smooth="yes"/>
      <point x="1235" y="687"/>
      <point x="1295" y="697"/>
      <point x="1384" y="733" type="curve"/>
      <point x="1277" y="646" type="line"/>
      <point x="1250" y="700"/>
      <point x="1232" y="742"/>
      <point x="1232" y="787" type="curve" smooth="yes"/>
      <point x="1232" y="854"/>
      <point x="1283" y="912"/>
      <point x="1402" y="912" type="curve" smooth="yes"/>
      <point x="1585" y="912"/>
      <point x="1731" y="812"/>
      <point x="1731" y="707" type="curve" smooth="yes"/>
      <point x="1731" y="539"/>
      <point x="1512" y="425"/>
      <point x="1206" y="425" type="curve" smooth="yes"/>
      <point x="1097" y="425"/>
      <point x="993" y="447"/>
      <point x="893" y="503" type="curve"/>
    </contour>
    <contour>
      <point x="1335" y="524" type="curve"/>
      <point x="1574" y="639" type="line"/>
      <point x="1682" y="510"/>
      <point x="1734" y="407"/>
      <point x="1734" y="293" type="curve" smooth="yes"/>
      <point x="1734" y="154"/>
      <point x="1622" y="17"/>
      <point x="1396" y="-8" type="curve"/>
      <point x="1234" y="198" type="line"/>
      <point x="1378" y="230"/>
      <point x="1427" y="284"/>
      <point x="1427" y="351" type="curve" smooth="yes"/>
      <point x="1427" y="403"/>
      <point x="1401" y="456"/>
    </contour>
    <component base="taradeva"/>
    <contour>
      <point x="919" y="1280" type="move" name="mark0"/>
    </contour>
  </outline>
</glyph>
<glyph name="lvocalicdeva" format="1">
  <advance width="1700"/>
  <unicode hex="090C"/>
  <outline>
    <contour>
      <point x="1036" y="637" type="curve"/>
      <point x="832" y="467" type="line"/>
      <point x="743" y="570"/>
      <point x="665" y="618"/>
      <point x="570" y="618" type="curve" smooth="yes"/>
      <point x="454" y="618"/>
      <point x="387" y="532"/>
      <point x="387" y="436" type="curve" smooth="yes"/>
      <point x="387" y="341"/>
      <point x="445" y="253"/>
      <point x="598" y="107" type="curve"/>
      <point x="354" y="-22" type="line"/>
      <point x="175" y="140"/>
      <point x="70" y="321"/>
      <point x="70" y="510" type="curve" smooth="yes"/>
      <point x="70" y="740"/>
      <point x="233" y="909"/>
      <point x="468" y="909" type="curve" smooth="yes"/>
      <point x="687" y="909"/>
      <point x="836" y="831"/>
    </contour>
    <contour>
      <point x="-30" y="1065" type="line"/>
      <point x="-30" y="1293" type="line"/>
      <point x="1730" y="1293" type="line"/>
      <point x="1730" y="1065" type="line"/>
    </contour>
    <contour>
      <point x="1014" y="1104" type="line"/>
      <point x="1363" y="1104" type="line"/>
      <point x="1363" y="813" type="line"/>
      <point x="1014" y="813" type="line"/>
    </contour>
    <contour>
      <point x="1521" y="218" type="curve"/>
      <point x="1513" y="218" type="line"/>
      <point x="1370" y="218"/>
      <point x="1315" y="163"/>
      <point x="1315" y="113" type="curve" smooth="yes"/>
      <point x="1315" y="63"/>
      <point x="1343" y="32"/>
      <point x="1422" y="32" type="curve" smooth="yes"/>
      <point x="1479" y="32"/>
      <point x="1528" y="47"/>
      <point x="1605" y="81" type="curve"/>
      <point x="1641" y="-140" type="line"/>
      <point x="1553" y="-172"/>
      <point x="1487" y="-179"/>
      <point x="1403" y="-179" type="curve" smooth="yes"/>
      <point x="1177" y="-179"/>
      <point x="1019" y="-52"/>
      <point x="1019" y="100" type="curve" smooth="yes"/>
      <point x="1019" y="256"/>
      <point x="1162" y="379"/>
      <point x="1330" y="379" type="curve" smooth="yes"/>
      <point x="1370" y="379"/>
      <point x="1410" y="373"/>
      <point x="1444" y="362" type="curve"/>
      <point x="1207" y="285" type="line"/>
      <point x="1249" y="345"/>
      <point x="1281" y="414"/>
      <point x="1281" y="498" type="curve" smooth="yes"/>
      <point x="1281" y="565"/>
      <point x="1236" y="604"/>
      <point x="1172" y="604" type="curve" smooth="yes"/>
      <point x="1075" y="604"/>
      <point x="972" y="485"/>
      <point x="924" y="245" type="curve"/>
      <point x="628" y="349" type="line"/>
      <point x="693" y="643"/>
      <point x="843" y="893"/>
      <point x="1149" y="893" type="curve" smooth="yes"/>
      <point x="1418" y="893"/>
      <point x="1591" y="716"/>
      <point x="1591" y="486" type="curve" smooth="yes"/>
      <point x="1591" y="391"/>
      <point x="1560" y="298"/>
    </contour>
    <contour>
      <point x="1139" y="1280" type="move" name="mark0"/>
    </contour>
  </outline>
</glyph>
<glyph name="edeva" format="1">
  <advance width="1332"/>
  <unicode hex="090F"/>
  <outline>
    <contour>
      <point x="1162" y="1106" type="line"/>
      <point x="1162" y="739" type="line"/>
      <point x="1162" y="599"/>
      <point x="1125" y="509"/>
      <point x="1033" y="413" type="curve"/>
      <point x="762" y="546" type="line"/>
      <point x="799" y="630"/>
      <point x="814" y="694"/>
      <point x="814" y="809" type="curve" smooth="yes"/>
      <point x="814" y="1106" type="line"/>
    </contour>
    <contour>
      <point x="-30" y="1065" type="line"/>
      <point x="-30" y="1293" type="line"/>
      <point x="1362" y="1293" type="line"/>
      <point x="1362" y="1065" type="line"/>
    </contour>
    <contour>
      <point x="135" y="1106" type="line"/>
      <point x="483" y="1106" type="line"/>
      <point x="483" y="691" type="line"/>
      <point x="483" y="577"/>
      <point x="507" y="542"/>
      <point x="611" y="473" type="curve" smooth="yes"/>
      <point x="994" y="221" type="line"/>
      <point x="1122" y="136"/>
      <point x="1165" y="63"/>
      <point x="1165" y="-26" type="curve" smooth="yes"/>
      <point x="1165" y="-91"/>
      <point x="1139" y="-157"/>
      <point x="1107" y="-211" type="curve"/>
      <point x="746" y="-133" type="line"/>
      <point x="764" y="-98"/>
      <point x="779" y="-70"/>
      <point x="779" y="-37" type="curve" smooth="yes"/>
      <point x="779" y="-4"/>
      <point x="764" y="25"/>
      <point x="713" y="60" type="curve" smooth="yes"/>
      <point x="324" y="322" type="line"/>
      <point x="175" y="421"/>
      <point x="135" y="512"/>
      <point x="135" y="688" type="curve" smooth="yes"/>
    </contour>
    <contour>
      <point x="-36" y="8" type="move" name="x44"/>
    </contour>
  </outline>
</glyph>
<glyph name="kadeva" format="1">
  <advance width="1732"/>
  <unicode hex="0915"/>
  <outline>
    <contour>
      <point x="961" y="354" type="curve"/>
      <point x="953" y="824" type="line"/>
      <point x="996" y="833"/>
      <point x="1073" y="843"/>
      <point x="1150" y="843" type="curve" smooth="yes"/>
      <point x="1424" y="843"/>
      <point x="1622" y="684"/>
      <point x="1622" y="445" type="curve" smooth="yes"/>
      <point x="1622" y="325"/>
      <point x="1574" y="205"/>
      <point x="1499" y="108" type="curve"/>
      <point x="1202" y="211" type="line"/>
      <point x="1267" y="305"/>
      <point x="1304" y="386"/>
      <point x="1304" y="466" type="curve" smooth="yes"/>
      <point x="1304" y="525"/>
      <point x="1266" y="564"/>
      <point x="1200" y="564" type="curve" smooth="yes"/>
      <point x="1122" y="564"/>
      <point x="1042" y="497"/>
    </contour>
    <contour>
      <point x="-30" y="1065" type="line"/>
      <point x="-30" y="1293" type="line"/>
      <point x="1762" y="1293" type="line"/>
      <point x="1762" y="1065" type="line"/>
    </contour>
    <contour>
      <point x="705" y="613" type="curve"/>
      <point x="705" y="247" type="line"/>
      <point x="638" y="212"/>
      <point x="574" y="194"/>
      <point x="487" y="194" type="curve" smooth="yes"/>
      <point x="229" y="194"/>
      <point x="51" y="384"/>
      <point x="51" y="596" type="curve" smooth="yes"/>
      <point x="51" y="782"/>
      <point x="178" y="925"/>
      <point x="410" y="928" type="curve" smooth="yes"/>
      <point x="539" y="930"/>
      <point x="630" y="907"/>
      <point x="724" y="864" type="curve"/>
      <point x="724" y="626" type="line"/>
      <point x="640" y="666"/>
      <point x="586" y="680"/>
      <point x="494" y="680" type="curve" smooth="yes"/>
      <point x="398" y="680"/>
      <point x="343" y="626"/>
      <point x="343" y="556" type="curve" smooth="yes"/>
      <point x="343" y="488"/>
      <point x="389" y="451"/>
      <point x="466" y="451" type="curve" smooth="yes"/>
      <point x="545" y="451"/>
      <point x="639" y="503"/>
    </contour>
    <contour>
      <point x="683" y="1104" type="line"/>
      <point x="1031" y="1104" type="line"/>
      <point x="1031" y="0" type="line"/>
      <point x="683" y="0" type="line"/>
    </contour>
    <contour>
      <point x="683" y="0" type="move" name="btm"/>
    </contour>
    <contour>
      <point x="683" y="1293" type="move" name="top"/>
    </contour>
  </outline>
</glyph>
<glyph name="khadeva" format="1">
  <advance width="1861"/>
  <unicode hex="0916"/>
  <outline>
    <contour>
      <point x="1366" y="713" type="curve"/>
      <point x="1366" y="350" type="line"/>
      <point x="1307" y="315"/>
      <point x="1239" y="299"/>
      <point x="1146" y="299" type="curve" smooth="yes"/>
      <point x="907" y="299"/>
      <point x="734" y="480"/>
      <point x="734" y="669" type="curve" smooth="yes"/>
      <point x="734" y="833"/>
      <point x="844" y="967"/>
      <point x="1082" y="967" type="curve" smooth="yes"/>
      <point x="1207" y="967"/>
      <point x="1302" y="941"/>
      <point x="1369" y="902" type="curve"/>
      <point x="1369" y="690" type="line"/>
      <point x="1300" y="725"/>
      <point x="1223" y="741"/>
      <point x="1146" y="741" type="curve" smooth="yes"/>
      <point x="1062" y="741"/>
      <point x="1011" y="687"/>
      <point x="1011" y="635" type="curve" smooth="yes"/>
      <point x="1011" y="580"/>
      <point x="1051" y="539"/>
      <point x="1112" y="539" type="curve" smooth="yes"/>
      <point x="1210" y="539"/>
      <point x="1304" y="611"/>
    </contour>
    <contour>
      <point x="256" y="723" type="line"/>
      <point x="392" y="762"/>
      <point x="424" y="836"/>
      <point x="424" y="950" type="curve" smooth="yes"/>
      <point x="424" y="1151" type="line"/>
      <point x="772" y="1151" type="line"/>
      <point x="772" y="933" type="line"/>
      <point x="772" y="723"/>
      <point x="721" y="539"/>
      <point x="461" y="415" type="curve"/>
    </contour>
    <contour>
      <point x="-30" y="1065" type="line"/>
      <point x="-30" y="1293" type="line"/>
      <point x="1891" y="1293" type="line"/>
      <point x="1891" y="1065" type="line"/>
    </contour>
    <contour>
      <point x="373" y="631" type="line"/>
      <point x="417" y="558"/>
      <point x="473" y="486"/>
      <point x="524" y="436" type="curve" smooth="yes"/>
      <point x="696" y="263"/>
      <point x="882" y="208"/>
      <point x="1077" y="208" type="curve" smooth="yes"/>
      <point x="1256" y="208"/>
      <point x="1387" y="251"/>
      <point x="1527" y="339" type="curve"/>
      <point x="1637" y="100" type="line"/>
      <point x="1504" y="27"/>
      <point x="1334" y="-26"/>
      <point x="1047" y="-26" type="curve" smooth="yes"/>
      <point x="779" y="-26"/>
      <point x="478" y="88"/>
      <point x="295" y="271" type="curve" smooth="yes"/>
      <point x="182" y="384"/>
      <point x="103" y="494"/>
      <point x="62" y="582" type="curve" smooth="yes"/>
      <point x="39" y="629"/>
      <point x="28" y="671"/>
      <point x="28" y="705" type="curve" smooth="yes"/>
      <point x="28" y="789"/>
      <point x="95" y="856"/>
      <point x="181" y="856" type="curve" smooth="yes"/>
      <point x="266" y="856"/>
      <point x="313" y="820"/>
      <point x="381" y="733" type="curve" smooth="yes"/>
      <point x="427" y="673" type="line"/>
    </contour>
    <contour>
      <point x="1324" y="1104" type="line"/>
      <point x="1672" y="1104" type="line"/>
      <point x="1672" y="0" type="line"/>
      <point x="1324" y="0" type="line"/>
    </contour>
    <contour>
      <point x="1324" y="1293" type="move" name="top"/>
    </contour>
  </outline>
</glyph>
<glyph name="ngadeva" format="1">
  <advance width="1284"/>
  <unicode hex="0919"/>
  <outline>
    <contour>
      <point x="1178" y="1065" type="line"/>
      <point x="1178" y="1293" type="line"/>
      <point x="1314" y="1293" type="line"/>
      <point x="1314" y="1065" type="line"/>
    </contour>
    <contour>
      <point x="1251" y="812" type="curve" smooth="yes"/>
      <point x="1383" y="812"/>
      <point x="1426" y="732"/>
      <point x="1426" y="668" type="curve" smooth="yes"/>
      <point x="1426" y="604"/>
      <point x="1375" y="524"/>
      <point x="1251" y="524" type="curve" smooth="yes"/>
      <point x="1117" y="524"/>
      <point x="1072" y="605"/>
      <point x="1072" y="668" type="curve" smooth="yes"/>
      <point x="1072" y="731"/>
      <point x="1121" y="812"/>
    </contour>
    <component base="ddadeva"/>
    <contour>
      <point x="511" y="-14" type="move" name="btm"/>
    </contour>
    <contour>
      <point x="691" y="1293" type="move" name="top"/>
    </contour>
  </outline>
</glyph>
<glyph name="cadeva" format="1">
  <advance width="1500"/>
  <unicode hex="091A"/>
  <outline>
    <contour>
      <point x="62" y="634" type="line"/>
      <point x="62" y="908" type="line"/>
      <point x="832" y="908" type="line"/>
      <point x="832" y="634" type="line"/>
    </contour>
    <contour>
      <point x="1008" y="591" type="curve"/>
      <point x="1008" y="182" type="line"/>
      <point x="949" y="157"/>
      <point x="865" y="138"/>
      <point x="760" y="138" type="curve" smooth="yes"/>
      <point x="478" y="138"/>
      <point x="297" y="295"/>
      <point x="297" y="527" type="curve" smooth="yes"/>
      <point x="297" y="720"/>
      <point x="426" y="878"/>
      <point x="750" y="878" type="curve"/>
      <point x="782" y="637" type="line"/>
      <point x="666" y="638"/>
      <point x="609" y="564"/>
      <point x="609" y="499" type="curve" smooth="yes"/>
      <point x="609" y="444"/>
      <point x="650" y="405"/>
      <point x="729" y="405" type="curve" smooth="yes"/>
      <point x="841" y="405"/>
      <point x="956" y="472"/>
    </contour>
    <contour>
      <point x="-30" y="1065" type="line"/>
      <point x="-30" y="1293" type="line"/>
      <point x="1530" y="1293" type="line"/>
      <point x="1530" y="1065" type="line"/>
    </contour>
    <contour>
      <point x="963" y="1104" type="line"/>
      <point x="1312" y="1104" type="line"/>
      <point x="1312" y="0" type="line"/>
      <point x="963" y="0" type="line"/>
    </contour>
    <contour>
      <point x="963" y="1293" type="move" name="top"/>
    </contour>
  </outline>
</glyph>
<glyph name="jadeva" format="1">
  <advance width="1686"/>
  <unicode hex="091C"/>
  <outline>
    <contour>
      <point x="-30" y="1065" type="line"/>
      <point x="-30" y="1293" type="line"/>
      <point x="1716" y="1293" type="line"/>
      <point x="1716" y="1065" type="line"/>
    </contour>
    <contour>
      <point x="775" y="624" type="line"/>
      <point x="809" y="709" type="line"/>
      <point x="918" y="640"/>
      <point x="989" y="533"/>
      <point x="989" y="369" type="curve" smooth="yes"/>
      <point x="989" y="188"/>
      <point x="851" y="42"/>
      <point x="629" y="42" type="curve" smooth="yes"/>
      <point x="391" y="42"/>
      <point x="177" y="179"/>
      <point x="8" y="416" type="curve"/>
      <point x="166" y="648" type="line"/>
      <point x="353" y="404"/>
      <point x="461" y="343"/>
      <point x="553" y="343" type="curve" smooth="yes"/>
      <point x="629" y="343"/>
      <point x="678" y="391"/>
      <point x="678" y="461" type="curve" smooth="yes"/>
      <point x="678" y="548"/>
      <point x="607" y="629"/>
      <point x="441" y="668" type="curve"/>
      <point x="441" y="908" type="line"/>
      <point x="1200" y="908" type="line"/>
      <point x="1200" y="624" type="line"/>
    </contour>
    <contour>
      <point x="1149" y="1104" type="line"/>
      <point x="1498" y="1104" type="line"/>
      <point x="1498" y="0" type="line"/>
      <point x="1149" y="0" type="line"/>
    </contour>
    <contour>
      <point x="1149" y="1293" type="move" name="top"/>
    </contour>
  </outline>
</glyph>
<glyph name="nyadeva" format="1">
  <advance width="1863"/>
  <unicode hex="091E"/>
  <outline>
    <contour>
      <point x="926" y="692" type="line"/>
      <point x="1000" y="680"/>
      <point x="1070" y="673"/>
      <point x="1132" y="673" type="curve" smooth="yes"/>
      <point x="1238" y="673"/>
      <point x="1344" y="698"/>
      <point x="1408" y="731" type="curve"/>
      <point x="1408" y="414" type="line"/>
      <point x="1361" y="404"/>
      <point x="1289" y="393"/>
      <point x="1198" y="393" type="curve" smooth="yes"/>
      <point x="1116" y="393"/>
      <point x="978" y="406"/>
      <point x="926" y="418" type="curve"/>
    </contour>
    <contour>
      <point x="1041" y="513" type="curve" smooth="yes"/>
      <point x="1041" y="249"/>
      <point x="853" y="99"/>
      <point x="623" y="99" type="curve" smooth="yes"/>
      <point x="416" y="99"/>
      <point x="223" y="183"/>
      <point x="20" y="359" type="curve"/>
      <point x="131" y="599" type="line"/>
      <point x="310" y="439"/>
      <point x="433" y="380"/>
      <point x="555" y="380" type="curve" smooth="yes"/>
      <point x="682" y="380"/>
      <point x="741" y="451"/>
      <point x="740" y="535" type="curve" smooth="yes"/>
      <point x="739" y="614"/>
      <point x="670" y="675"/>
      <point x="576" y="675" type="curve" smooth="yes"/>
      <point x="491" y="675"/>
      <point x="403" y="638"/>
      <point x="346" y="592" type="curve"/>
      <point x="227" y="837" type="line"/>
      <point x="299" y="891"/>
      <point x="420" y="944"/>
      <point x="570" y="944" type="curve" smooth="yes"/>
      <point x="833" y="944"/>
      <point x="1041" y="776"/>
    </contour>
    <contour>
      <point x="-30" y="1065" type="line"/>
      <point x="-30" y="1293" type="line"/>
      <point x="1893" y="1293" type="line"/>
      <point x="1893" y="1065" type="line"/>
    </contour>
    <contour>
      <point x="1326" y="1104" type="line"/>
      <point x="1674" y="1104" type="line"/>
      <point x="1674" y="0" type="line"/>
      <point x="1326" y="0" type="line"/>
    </contour>
    <contour>
      <point x="1326" y="1293" type="move" name="top"/>
    </contour>
  </outline>
</glyph>
<glyph name="ttadeva" format="1">
  <advance width="1221"/>
  <unicode hex="091F"/>
  <outline>
    <contour>
      <point x="669" y="1102" type="line"/>
      <point x="1017" y="1102" type="line"/>
      <point x="1017" y="654" type="line"/>
      <point x="667" y="654" type="line"/>
      <point x="490" y="654"/>
      <point x="410" y="567"/>
      <point x="410" y="460" type="curve" smooth="yes"/>
      <point x="410" y="351"/>
      <point x="499" y="273"/>
      <point x="665" y="273" type="curve" smooth="yes"/>
      <point x="777" y="273"/>
      <point x="872" y="293"/>
      <point x="1021" y="348" type="curve"/>
      <point x="1085" y="65" type="line"/>
      <point x="954" y="24"/>
      <point x="856" y="8"/>
      <point x="708" y="8" type="curve" smooth="yes"/>
      <point x="311" y="8"/>
      <point x="68" y="232"/>
      <point x="68" y="502" type="curve" smooth="yes"/>
      <point x="68" y="759"/>
      <point x="252" y="908"/>
      <point x="568" y="908" type="curve" smooth="yes"/>
      <point x="709" y="908" type="line"/>
      <point x="669" y="865" type="line"/>
    </contour>
    <contour>
      <point x="1251" y="1065" type="line"/>
      <point x="-30" y="1065" type="line"/>
      <point x="-30" y="1293" type="line"/>
      <point x="1251" y="1293" type="line"/>
    </contour>
    <contour>
      <point x="529" y="25" type="move" name="btm"/>
    </contour>
    <contour>
      <point x="623" y="1293" type="move" name="top"/>
    </contour>
  </outline>
</glyph>
<glyph name="tthadeva" format="1">
  <advance width="1354"/>
  <unicode hex="0920"/>
  <outline>
    <contour>
      <point x="967" y="484" type="curve" smooth="yes"/>
      <point x="967" y="558"/>
      <point x="925" y="608"/>
      <point x="869" y="655" type="curve"/>
      <point x="683" y="655" type="line"/>
      <point x="482" y="655"/>
      <point x="396" y="572"/>
      <point x="396" y="461" type="curve" smooth="yes"/>
      <point x="396" y="348"/>
      <point x="494" y="257"/>
      <point x="665" y="257" type="curve" smooth="yes"/>
      <point x="852" y="257"/>
      <point x="967" y="345"/>
    </contour>
    <contour>
      <point x="1384" y="1065" type="line"/>
      <point x="-30" y="1065" type="line"/>
      <point x="-30" y="1293" type="line"/>
      <point x="1384" y="1293" type="line"/>
    </contour>
    <contour>
      <point x="792" y="1086" type="line"/>
      <point x="1140" y="1086" type="line"/>
      <point x="1140" y="736" type="line"/>
      <point x="1041" y="855" type="line"/>
      <point x="1148" y="791"/>
      <point x="1271" y="633"/>
      <point x="1271" y="434" type="curve" smooth="yes"/>
      <point x="1271" y="206"/>
      <point x="1084" y="7"/>
      <point x="717" y="7" type="curve" smooth="yes"/>
      <point x="296" y="7"/>
      <point x="68" y="250"/>
      <point x="68" y="509" type="curve" smooth="yes"/>
      <point x="68" y="755"/>
      <point x="245" y="908"/>
      <point x="566" y="908" type="curve" smooth="yes"/>
      <point x="853" y="908" type="line"/>
      <point x="792" y="851" type="line"/>
    </contour>
    <contour>
      <point x="529" y="25" type="move" name="btm"/>
    </contour>
    <contour>
      <point x="722" y="1293" type="move" name="top"/>
    </contour>
  </outline>
</glyph>
<glyph name="ddadeva" format="1">
  <advance width="1261"/>
  <unicode hex="0921"/>
  <outline>
    <contour>
      <point x="691" y="1086" type="line"/>
      <point x="1039" y="1086" type="line"/>
      <point x="1039" y="723" type="line"/>
      <point x="522" y="723" type="line"/>
      <point x="446" y="723"/>
      <point x="419" y="687"/>
      <point x="419" y="648" type="curve" smooth="yes"/>
      <point x="419" y="612"/>
      <point x="442" y="588"/>
      <point x="507" y="558" type="curve"/>
      <point x="395" y="575" type="line"/>
      <point x="484" y="612"/>
      <point x="602" y="635"/>
      <point x="759" y="635" type="curve" smooth="yes"/>
      <point x="997" y="635"/>
      <point x="1159" y="508"/>
      <point x="1159" y="322" type="curve" smooth="yes"/>
      <point x="1159" y="121"/>
      <point x="1016" y="-23"/>
      <point x="649" y="-23" type="curve" smooth="yes"/>
      <point x="451" y="-23"/>
      <point x="276" y="18"/>
      <point x="55" y="131" type="curve"/>
      <point x="115" y="378" type="line"/>
      <point x="310" y="267"/>
      <point x="487" y="219"/>
      <point x="623" y="219" type="curve" smooth="yes"/>
      <point x="779" y="219"/>
      <point x="835" y="273"/>
      <point x="835" y="323" type="curve" smooth="yes"/>
      <point x="835" y="365"/>
      <point x="794" y="387"/>
      <point x="706" y="387" type="curve" smooth="yes"/>
      <point x="619" y="387"/>
      <point x="528" y="365"/>
      <point x="460" y="335" type="curve"/>
      <point x="452" y="335" type="line"/>
      <point x="206" y="443"/>
      <point x="116" y="564"/>
      <point x="116" y="701" type="curve" smooth="yes"/>
      <point x="116" y="821"/>
      <point x="203" y="946"/>
      <point x="446" y="946" type="curve" smooth="yes"/>
      <point x="758" y="946" type="line"/>
      <point x="691" y="880" type="line"/>
    </contour>
    <contour>
      <point x="1291" y="1065" type="line"/>
      <point x="-30" y="1065" type="line"/>
      <point x="-30" y="1293" type="line"/>
      <point x="1291" y="1293" type="line"/>
    </contour>
    <contour>
      <point x="473" y="-9" type="move" name="btm"/>
    </contour>
    <contour>
      <point x="691" y="1293" type="move" name="top"/>
    </contour>
  </outline>
</glyph>
<glyph name="ddhadeva" format="1">
  <advance width="1306"/>
  <unicode hex="0922"/>
  <outline>
    <contour>
      <point x="1336" y="1065" type="line"/>
      <point x="-30" y="1065" type="line"/>
      <point x="-30" y="1293" type="line"/>
      <point x="1336" y="1293" type="line"/>
    </contour>
    <contour>
      <point x="742" y="1095" type="line"/>
      <point x="1089" y="1095" type="line"/>
      <point x="1089" y="666" type="line"/>
      <point x="693" y="666" type="line"/>
      <point x="447" y="666"/>
      <point x="382" y="557"/>
      <point x="382" y="427" type="curve" smooth="yes"/>
      <point x="382" y="297"/>
      <point x="532" y="191"/>
      <point x="747" y="191" type="curve" smooth="yes"/>
      <point x="901" y="191"/>
      <point x="970" y="249"/>
      <point x="970" y="315" type="curve" smooth="yes"/>
      <point x="970" y="354"/>
      <point x="936" y="381"/>
      <point x="874" y="381" type="curve" smooth="yes"/>
      <point x="796" y="381"/>
      <point x="744" y="322"/>
      <point x="744" y="248" type="curve" smooth="yes"/>
      <point x="744" y="203"/>
      <point x="755" y="160"/>
      <point x="779" y="114" type="curve"/>
      <point x="533" y="86" type="line"/>
      <point x="492" y="150"/>
      <point x="479" y="209"/>
      <point x="479" y="280" type="curve" smooth="yes"/>
      <point x="479" y="435"/>
      <point x="610" y="574"/>
      <point x="867" y="574" type="curve" smooth="yes"/>
      <point x="1090" y="574"/>
      <point x="1224" y="449"/>
      <point x="1224" y="303" type="curve" smooth="yes"/>
      <point x="1224" y="117"/>
      <point x="1072" y="-4"/>
      <point x="750" y="-4" type="curve" smooth="yes"/>
      <point x="315" y="-4"/>
      <point x="67" y="239"/>
      <point x="67" y="496" type="curve" smooth="yes"/>
      <point x="67" y="714"/>
      <point x="199" y="908"/>
      <point x="585" y="908" type="curve" smooth="yes"/>
      <point x="783" y="908" type="line"/>
      <point x="742" y="874" type="line"/>
    </contour>
    <contour>
      <point x="553" y="15" type="move" name="btm"/>
    </contour>
    <contour>
      <point x="705" y="1293" type="move" name="top"/>
    </contour>
  </outline>
</glyph>
<glyph name="nnadeva" format="1">
  <advance width="1828"/>
  <unicode hex="0923"/>
  <outline>
    <contour>
      <point x="712" y="1086" type="line"/>
      <point x="1060" y="1086" type="line"/>
      <point x="1060" y="730" type="line"/>
      <point x="1060" y="452"/>
      <point x="916" y="265"/>
      <point x="602" y="265" type="curve" smooth="yes"/>
      <point x="279" y="265"/>
      <point x="112" y="468"/>
      <point x="112" y="728" type="curve" smooth="yes"/>
      <point x="112" y="1086" type="line"/>
      <point x="460" y="1086" type="line"/>
      <point x="460" y="661" type="line"/>
      <point x="460" y="572"/>
      <point x="506" y="516"/>
      <point x="582" y="516" type="curve" smooth="yes"/>
      <point x="662" y="516"/>
      <point x="712" y="573"/>
      <point x="712" y="695" type="curve" smooth="yes"/>
    </contour>
    <contour>
      <point x="-30" y="1065" type="line"/>
      <point x="-30" y="1293" type="line"/>
      <point x="1858" y="1293" type="line"/>
      <point x="1858" y="1065" type="line"/>
    </contour>
    <contour>
      <point x="1291" y="1104" type="line"/>
      <point x="1639" y="1104" type="line"/>
      <point x="1639" y="0" type="line"/>
      <point x="1291" y="0" type="line"/>
    </contour>
    <contour>
      <point x="1263" y="1293" type="move" name="top"/>
    </contour>
  </outline>
</glyph>
<glyph name="tadeva" format="1">
  <advance width="1342"/>
  <unicode hex="0924"/>
  <outline>
    <contour>
      <point x="873" y="908" type="line"/>
      <point x="873" y="619" type="line"/>
      <point x="659" y="619" type="line"/>
      <point x="479" y="619"/>
      <point x="419" y="528"/>
      <point x="419" y="418" type="curve" smooth="yes"/>
      <point x="419" y="321"/>
      <point x="466" y="212"/>
      <point x="559" y="49" type="curve"/>
      <point x="271" y="-33" type="line"/>
      <point x="151" y="162"/>
      <point x="87" y="347"/>
      <point x="89" y="505" type="curve" smooth="yes"/>
      <point x="92" y="732"/>
      <point x="233" y="908"/>
      <point x="579" y="908" type="curve" smooth="yes"/>
    </contour>
    <contour>
      <point x="-30" y="1065" type="line"/>
      <point x="-30" y="1293" type="line"/>
      <point x="1372" y="1293" type="line"/>
      <point x="1372" y="1065" type="line"/>
    </contour>
    <contour>
      <point x="806" y="1104" type="line"/>
      <point x="1154" y="1104" type="line"/>
      <point x="1154" y="0" type="line"/>
      <point x="806" y="0" type="line"/>
    </contour>
    <contour>
      <point x="806" y="1293" type="move" name="top"/>
    </contour>
  </outline>
</glyph>
<glyph name="thadeva" format="1">
  <advance width="1504"/>
  <unicode hex="0925"/>
  <outline>
    <contour>
      <point x="801" y="926" type="curve" smooth="yes"/>
      <point x="801" y="712"/>
      <point x="629" y="577"/>
      <point x="416" y="515" type="curve"/>
      <point x="417" y="620" type="line"/>
      <point x="492" y="535"/>
      <point x="571" y="490"/>
      <point x="678" y="490" type="curve" smooth="yes"/>
      <point x="831" y="490"/>
      <point x="962" y="564"/>
      <point x="1023" y="726" type="curve"/>
      <point x="1023" y="248" type="line"/>
      <point x="955" y="222"/>
      <point x="892" y="212"/>
      <point x="784" y="212" type="curve" smooth="yes"/>
      <point x="507" y="212"/>
      <point x="231" y="380"/>
      <point x="95" y="670" type="curve"/>
      <point x="95" y="676" type="line"/>
      <point x="317" y="715"/>
      <point x="505" y="828"/>
      <point x="505" y="967" type="curve" smooth="yes"/>
      <point x="505" y="1055"/>
      <point x="450" y="1105"/>
      <point x="392" y="1105" type="curve" smooth="yes"/>
      <point x="343" y="1105"/>
      <point x="315" y="1071"/>
      <point x="315" y="1022" type="curve" smooth="yes"/>
      <point x="315" y="962"/>
      <point x="366" y="904"/>
      <point x="490" y="856" type="curve"/>
      <point x="391" y="712" type="line"/>
      <point x="115" y="794"/>
      <point x="12" y="927"/>
      <point x="12" y="1082" type="curve" smooth="yes"/>
      <point x="12" y="1219"/>
      <point x="114" y="1340"/>
      <point x="324" y="1340" type="curve" smooth="yes"/>
      <point x="628" y="1340"/>
      <point x="801" y="1138"/>
    </contour>
    <contour>
      <point x="967" y="1104" type="line"/>
      <point x="1315" y="1104" type="line"/>
      <point x="1315" y="0" type="line"/>
      <point x="967" y="0" type="line"/>
    </contour>
    <contour>
      <point x="1534" y="1065" type="line"/>
      <point x="887" y="1065" type="line"/>
      <point x="887" y="1293" type="line"/>
      <point x="1534" y="1293" type="line"/>
    </contour>
    <contour>
      <point x="967" y="1293" type="move" name="top"/>
    </contour>
  </outline>
</glyph>
<glyph name="nadeva" format="1">
  <advance width="1327"/>
  <unicode hex="0928"/>
  <outline>
    <contour>
      <point x="826" y="849" type="line"/>
      <point x="826" y="566" type="line"/>
      <point x="439" y="566" type="line"/>
      <point x="489" y="617" type="line"/>
      <point x="489" y="380" type="line"/>
      <point x="489" y="291"/>
      <point x="444" y="238"/>
      <point x="374" y="238" type="curve" smooth="yes"/>
      <point x="325" y="238"/>
      <point x="274" y="263"/>
      <point x="215" y="322" type="curve" smooth="yes"/>
      <point x="143" y="394"/>
      <point x="60" y="540"/>
      <point x="60" y="676" type="curve" smooth="yes"/>
      <point x="60" y="787"/>
      <point x="117" y="849"/>
      <point x="251" y="849" type="curve" smooth="yes"/>
    </contour>
    <contour>
      <point x="-30" y="1065" type="line"/>
      <point x="-30" y="1293" type="line"/>
      <point x="1357" y="1293" type="line"/>
      <point x="1357" y="1065" type="line"/>
    </contour>
    <contour>
      <point x="790" y="1104" type="line"/>
      <point x="1138" y="1104" type="line"/>
      <point x="1138" y="0" type="line"/>
      <point x="790" y="0" type="line"/>
    </contour>
    <contour>
      <point x="790" y="1293" type="move" name="top"/>
    </contour>
  </outline>
</glyph>
<glyph name="phadeva" format="1">
  <advance width="1822"/>
  <unicode hex="092B"/>
  <outline>
    <contour>
      <point x="470" y="1171" type="line"/>
      <point x="470" y="708" type="line"/>
      <point x="470" y="618"/>
      <point x="512" y="571"/>
      <point x="586" y="571" type="curve" smooth="yes"/>
      <point x="661" y="571"/>
      <point x="738" y="606"/>
      <point x="802" y="678" type="curve"/>
      <point x="802" y="315" type="line"/>
      <point x="754" y="301"/>
      <point x="698" y="295"/>
      <point x="628" y="295" type="curve" smooth="yes"/>
      <point x="319" y="295"/>
      <point x="122" y="475"/>
      <point x="122" y="787" type="curve" smooth="yes"/>
      <point x="122" y="1171" type="line"/>
    </contour>
    <contour>
      <point x="-30" y="1065" type="line"/>
      <point x="-30" y="1293" type="line"/>
      <point x="1852" y="1293" type="line"/>
      <point x="1852" y="1065" type="line"/>
    </contour>
    <contour>
      <point x="772" y="1104" type="line"/>
      <point x="1120" y="1104" type="line"/>
      <point x="1120" y="0" type="line"/>
      <point x="772" y="0" type="line"/>
    </contour>
    <contour>
      <point x="1051" y="349" type="curve"/>
      <point x="1042" y="819" type="line"/>
      <point x="1086" y="827"/>
      <point x="1162" y="838"/>
      <point x="1240" y="838" type="curve" smooth="yes"/>
      <point x="1513" y="838"/>
      <point x="1712" y="679"/>
      <point x="1712" y="439" type="curve" smooth="yes"/>
      <point x="1712" y="320"/>
      <point x="1663" y="200"/>
      <point x="1588" y="102" type="curve"/>
      <point x="1292" y="206" type="line"/>
      <point x="1357" y="299"/>
      <point x="1394" y="381"/>
      <point x="1394" y="461" type="curve" smooth="yes"/>
      <point x="1394" y="520"/>
      <point x="1355" y="558"/>
      <point x="1290" y="558" type="curve" smooth="yes"/>
      <point x="1211" y="558"/>
      <point x="1132" y="491"/>
    </contour>
    <contour>
      <point x="772" y="0" type="move" name="btm"/>
    </contour>
    <contour>
      <point x="772" y="1293" type="move" name="top"/>
    </contour>
  </outline>
</glyph>
<glyph name="badeva" format="1">
  <advance width="1294"/>
  <unicode hex="092C"/>
  <outline>
    <contour>
      <point x="782" y="437" type="line"/>
      <point x="655" y="343" type="line"/>
      <point x="349" y="693" type="line"/>
      <point x="475" y="786" type="line"/>
    </contour>
    <contour>
      <point x="1324" y="1065" type="line"/>
      <point x="-30" y="1065" type="line"/>
      <point x="-30" y="1293" type="line"/>
      <point x="1324" y="1293" type="line"/>
    </contour>
    <contour>
      <point x="795" y="571" type="curve"/>
      <point x="795" y="214" type="line"/>
      <point x="730" y="179"/>
      <point x="655" y="159"/>
      <point x="560" y="159" type="curve" smooth="yes"/>
      <point x="250" y="159"/>
      <point x="58" y="376"/>
      <point x="58" y="615" type="curve" smooth="yes"/>
      <point x="58" y="811"/>
      <point x="216" y="952"/>
      <point x="464" y="952" type="curve" smooth="yes"/>
      <point x="619" y="952"/>
      <point x="747" y="926"/>
      <point x="851" y="883" type="curve"/>
      <point x="851" y="634" type="line"/>
      <point x="735" y="681"/>
      <point x="653" y="706"/>
      <point x="555" y="706" type="curve" smooth="yes"/>
      <point x="437" y="706"/>
      <point x="369" y="654"/>
      <point x="369" y="559" type="curve" smooth="yes"/>
      <point x="369" y="484"/>
      <point x="427" y="420"/>
      <point x="513" y="420" type="curve" smooth="yes"/>
      <point x="619" y="420"/>
      <point x="713" y="468"/>
    </contour>
    <contour>
      <point x="757" y="1104" type="line"/>
      <point x="1105" y="1104" type="line"/>
      <point x="1105" y="0" type="line"/>
      <point x="757" y="0" type="line"/>
    </contour>
    <contour>
      <point x="757" y="1293" type="move" name="top"/>
    </contour>
  </outline>
</glyph>
<glyph name="bhadeva" format="1">
  <advance width="1545"/>
  <unicode hex="092D"/>
  <outline>
    <contour>
      <point x="1008" y="1104" type="line"/>
      <point x="1356" y="1104" type="line"/>
      <point x="1356" y="0" type="line"/>
      <point x="1008" y="0" type="line"/>
    </contour>
    <contour>
      <point x="1575" y="1065" type="line"/>
      <point x="931" y="1065" type="line"/>
      <point x="931" y="1293" type="line"/>
      <point x="1575" y="1293" type="line"/>
    </contour>
    <contour>
      <point x="443" y="693" type="line"/>
      <point x="407" y="663" type="line"/>
      <point x="407" y="994" type="line"/>
      <point x="407" y="1089"/>
      <point x="358" y="1141"/>
      <point x="293" y="1141" type="curve" smooth="yes"/>
      <point x="243" y="1141"/>
      <point x="211" y="1106"/>
      <point x="211" y="1062" type="curve" smooth="yes"/>
      <point x="211" y="1004"/>
      <point x="261" y="956"/>
      <point x="421" y="955" type="curve"/>
      <point x="424" y="755" type="line"/>
      <point x="73" y="756"/>
      <point x="-84" y="912"/>
      <point x="-84" y="1104" type="curve" smooth="yes"/>
      <point x="-84" y="1245"/>
      <point x="17" y="1379"/>
      <point x="258" y="1379" type="curve" smooth="yes"/>
      <point x="527" y="1379"/>
      <point x="727" y="1205"/>
      <point x="727" y="949" type="curve" smooth="yes"/>
      <point x="727" y="650" type="line"/>
      <point x="694" y="693" type="line"/>
      <point x="1036" y="693" type="line"/>
      <point x="1036" y="410" type="line"/>
      <point x="677" y="410" type="line"/>
      <point x="727" y="459" type="line"/>
      <point x="727" y="329" type="line"/>
      <point x="727" y="240"/>
      <point x="694" y="187"/>
      <point x="606" y="187" type="curve" smooth="yes"/>
      <point x="524" y="187"/>
      <point x="410" y="239"/>
      <point x="331" y="318" type="curve" smooth="yes"/>
      <point x="261" y="387"/>
      <point x="207" y="486"/>
      <point x="207" y="572" type="curve" smooth="yes"/>
      <point x="207" y="643"/>
      <point x="251" y="693"/>
      <point x="337" y="693" type="curve" smooth="yes"/>
    </contour>
    <contour>
      <point x="1008" y="1293" type="move" name="top"/>
    </contour>
  </outline>
</glyph>
<glyph name="yadeva" format="1">
  <advance width="1422"/>
  <unicode hex="092F"/>
  <outline>
    <contour>
      <point x="-30" y="1065" type="line"/>
      <point x="-30" y="1293" type="line"/>
      <point x="1452" y="1293" type="line"/>
      <point x="1452" y="1065" type="line"/>
    </contour>
    <contour>
      <point x="320" y="1104" type="line"/>
      <point x="669" y="1104" type="line"/>
      <point x="669" y="933" type="line"/>
      <point x="669" y="713"/>
      <point x="577" y="588"/>
      <point x="343" y="518" type="curve"/>
      <point x="343" y="622" type="line"/>
      <point x="408" y="539"/>
      <point x="484" y="490"/>
      <point x="598" y="490" type="curve" smooth="yes"/>
      <point x="753" y="490"/>
      <point x="874" y="570"/>
      <point x="931" y="703" type="curve"/>
      <point x="931" y="245" type="line"/>
      <point x="875" y="223"/>
      <point x="805" y="212"/>
      <point x="711" y="212" type="curve" smooth="yes"/>
      <point x="404" y="212"/>
      <point x="142" y="397"/>
      <point x="12" y="668" type="curve"/>
      <point x="12" y="674" type="line"/>
      <point x="229" y="745"/>
      <point x="320" y="823"/>
      <point x="320" y="956" type="curve" smooth="yes"/>
    </contour>
    <contour>
      <point x="885" y="1104" type="line"/>
      <point x="1233" y="1104" type="line"/>
      <point x="1233" y="0" type="line"/>
      <point x="885" y="0" type="line"/>
    </contour>
    <contour>
      <point x="885" y="1293" type="move" name="top"/>
    </contour>
  </outline>
</glyph>
<glyph name="ladeva" format="1">
  <advance width="1653"/>
  <unicode hex="0932"/>
  <outline>
    <contour>
      <point x="1038" y="635" type="curve"/>
      <point x="833" y="465" type="line"/>
      <point x="744" y="570"/>
      <point x="664" y="618"/>
      <point x="570" y="618" type="curve" smooth="yes"/>
      <point x="453" y="618"/>
      <point x="387" y="532"/>
      <point x="387" y="436" type="curve" smooth="yes"/>
      <point x="387" y="341"/>
      <point x="445" y="253"/>
      <point x="598" y="107" type="curve"/>
      <point x="354" y="-22" type="line"/>
      <point x="175" y="139"/>
      <point x="69" y="321"/>
      <point x="69" y="509" type="curve" smooth="yes"/>
      <point x="69" y="740"/>
      <point x="233" y="908"/>
      <point x="468" y="908" type="curve" smooth="yes"/>
      <point x="687" y="908"/>
      <point x="838" y="830"/>
    </contour>
    <contour>
      <point x="1117" y="1104" type="line"/>
      <point x="1465" y="1104" type="line"/>
      <point x="1465" y="0" type="line"/>
      <point x="1117" y="0" type="line"/>
    </contour>
    <contour>
      <point x="-30" y="1065" type="line"/>
      <point x="-30" y="1293" type="line"/>
      <point x="1683" y="1293" type="line"/>
      <point x="1683" y="1065" type="line"/>
    </contour>
    <contour>
      <point x="1234" y="997" type="line"/>
      <point x="1234" y="598" type="line"/>
      <point x="801" y="197" type="line"/>
      <point x="585" y="396" type="line"/>
    </contour>
    <contour>
      <point x="1117" y="1293" type="move" name="top"/>
    </contour>
  </outline>
</glyph>
<glyph name="vadeva" format="1">
  <advance width="1294"/>
  <unicode hex="0935"/>
  <outline>
    <contour>
      <point x="1324" y="1065" type="line"/>
      <point x="-30" y="1065" type="line"/>
      <point x="-30" y="1293" type="line"/>
      <point x="1324" y="1293" type="line"/>
    </contour>
    <contour>
      <point x="795" y="575" type="curve"/>
      <point x="795" y="214" type="line"/>
      <point x="730" y="179"/>
      <point x="655" y="159"/>
      <point x="560" y="159" type="curve" smooth="yes"/>
      <point x="250" y="159"/>
      <point x="58" y="376"/>
      <point x="58" y="615" type="curve" smooth="yes"/>
      <point x="58" y="811"/>
      <point x="216" y="952"/>
      <point x="464" y="952" type="curve" smooth="yes"/>
      <point x="619" y="952"/>
      <point x="747" y="926"/>
      <point x="851" y="883" type="curve"/>
      <point x="851" y="632" type="line"/>
      <point x="735" y="679"/>
      <point x="656" y="699"/>
      <point x="558" y="699" type="curve" smooth="yes"/>
      <point x="439" y="699"/>
      <point x="380" y="634"/>
      <point x="380" y="556" type="curve" smooth="yes"/>
      <point x="380" y="481"/>
      <point x="437" y="425"/>
      <point x="513" y="425" type="curve" smooth="yes"/>
      <point x="619" y="425"/>
      <point x="704" y="472"/>
    </contour>
    <contour>
      <point x="757" y="1104" type="line"/>
      <point x="1105" y="1104" type="line"/>
      <point x="1105" y="0" type="line"/>
      <point x="757" y="0" type="line"/>
    </contour>
    <contour>
      <point x="757" y="1293" type="move" name="top"/>
    </contour>
  </outline>
</glyph>
<glyph name="shadeva" format="1">
  <advance width="1694"/>
  <unicode hex="0936"/>
  <outline>
    <contour>
      <point x="634" y="425" type="line"/>
      <point x="928" y="119" type="line"/>
      <point x="729" y="-63" type="line"/>
      <point x="378" y="300" type="line"/>
    </contour>
    <contour>
      <point x="296" y="225" type="curve" smooth="yes"/>
      <point x="156" y="225"/>
      <point x="102" y="310"/>
      <point x="102" y="415" type="curve" smooth="yes"/>
      <point x="102" y="535"/>
      <point x="185" y="651"/>
      <point x="301" y="651" type="curve" smooth="yes"/>
      <point x="385" y="651"/>
      <point x="449" y="607"/>
      <point x="532" y="529" type="curve"/>
      <point x="419" y="546" type="line"/>
      <point x="590" y="599"/>
      <point x="689" y="721"/>
      <point x="689" y="888" type="curve" smooth="yes"/>
      <point x="689" y="996"/>
      <point x="614" y="1075"/>
      <point x="515" y="1075" type="curve" smooth="yes"/>
      <point x="460" y="1075"/>
      <point x="425" y="1038"/>
      <point x="425" y="992" type="curve" smooth="yes"/>
      <point x="425" y="915"/>
      <point x="510" y="854"/>
      <point x="764" y="850" type="curve"/>
      <point x="684" y="647" type="line"/>
      <point x="272" y="682"/>
      <point x="130" y="845"/>
      <point x="130" y="1031" type="curve" smooth="yes"/>
      <point x="130" y="1185"/>
      <point x="246" y="1317"/>
      <point x="482" y="1317" type="curve" smooth="yes"/>
      <point x="772" y="1317"/>
      <point x="974" y="1133"/>
      <point x="974" y="843" type="curve" smooth="yes"/>
      <point x="974" y="487"/>
      <point x="570" y="225"/>
    </contour>
    <contour>
      <point x="1157" y="1104" type="line"/>
      <point x="1506" y="1104" type="line"/>
      <point x="1506" y="0" type="line"/>
      <point x="1157" y="0" type="line"/>
    </contour>
    <contour>
      <point x="1724" y="1065" type="line"/>
      <point x="1020" y="1065" type="line"/>
      <point x="1020" y="1293" type="line"/>
      <point x="1724" y="1293" type="line"/>
    </contour>
    <contour>
      <point x="1157" y="1293" type="move" name="top"/>
    </contour>
  </outline>
</glyph>
<glyph name="sadeva" format="1">
  <advance width="1609"/>
  <unicode hex="0938"/>
  <outline>
    <contour>
      <point x="832" y="94" type="line"/>
      <point x="583" y="-67" type="line"/>
      <point x="106" y="554" type="line"/>
      <point x="53" y="622"/>
      <point x="28" y="679"/>
      <point x="28" y="739" type="curve" smooth="yes"/>
      <point x="28" y="816"/>
      <point x="84" y="885"/>
      <point x="176" y="885" type="curve" smooth="yes"/>
      <point x="244" y="885"/>
      <point x="293" y="848"/>
      <point x="335" y="793" type="curve" smooth="yes"/>
      <point x="432" y="664" type="line"/>
      <point x="416" y="643" type="line"/>
    </contour>
    <contour>
      <point x="265" y="718" type="line"/>
      <point x="392" y="762"/>
      <point x="441" y="823"/>
      <point x="441" y="955" type="curve" smooth="yes"/>
      <point x="441" y="1123" type="line"/>
      <point x="789" y="1123" type="line"/>
      <point x="789" y="901" type="line"/>
      <point x="789" y="710"/>
      <point x="671" y="552"/>
      <point x="449" y="449" type="curve"/>
    </contour>
    <contour>
      <point x="-30" y="1065" type="line"/>
      <point x="-30" y="1293" type="line"/>
      <point x="1639" y="1293" type="line"/>
      <point x="1639" y="1065" type="line"/>
    </contour>
    <contour>
      <point x="520" y="508" type="curve"/>
      <point x="654" y="740" type="line"/>
      <point x="721" y="716"/>
      <point x="803" y="705"/>
      <point x="862" y="705" type="curve" smooth="yes"/>
      <point x="946" y="705"/>
      <point x="1013" y="711"/>
      <point x="1099" y="729" type="curve"/>
      <point x="1099" y="437" type="line"/>
      <point x="1038" y="427"/>
      <point x="993" y="421"/>
      <point x="916" y="421" type="curve" smooth="yes"/>
      <point x="780" y="421"/>
      <point x="654" y="448"/>
    </contour>
    <contour>
      <point x="1072" y="1104" type="line"/>
      <point x="1420" y="1104" type="line"/>
      <point x="1420" y="0" type="line"/>
      <point x="1072" y="0" type="line"/>
    </contour>
    <contour>
      <point x="1072" y="1293" type="move" name="top"/>
    </contour>
  </outline>
</glyph>
<glyph name="avagrahadeva" format="1">
  <advance width="1200"/>
  <unicode hex="093D"/>
  <outline>
    <contour>
      <point x="1045" y="362" type="curve" smooth="yes"/>
      <point x="1045" y="139"/>
      <point x="875" y="6"/>
      <point x="631" y="6" type="curve" smooth="yes"/>
      <point x="449" y="6"/>
      <point x="262" y="51"/>
      <point x="78" y="167" type="curve"/>
      <point x="146" y="427" type="line"/>
      <point x="310" y="319"/>
      <point x="439" y="271"/>
      <point x="545" y="271" type="curve" smooth="yes"/>
      <point x="652" y="271"/>
      <point x="720" y="315"/>
      <point x="720" y="394" type="curve" smooth="yes"/>
      <point x="720" y="468"/>
      <point x="684" y="508"/>
      <point x="490" y="654" type="curve" smooth="yes"/>
      <point x="296" y="800"/>
      <point x="230" y="890"/>
      <point x="230" y="1028" type="curve" smooth="yes"/>
      <point x="230" y="1176"/>
      <point x="343" y="1293"/>
      <point x="594" y="1293" type="curve" smooth="yes"/>
      <point x="1022" y="1293" type="line"/>
      <point x="1022" y="1065" type="line"/>
      <point x="692" y="1065" type="line"/>
      <point x="608" y="1065"/>
      <point x="576" y="1030"/>
      <point x="575" y="977" type="curve" smooth="yes"/>
      <point x="574" y="930"/>
      <point x="613" y="892"/>
      <point x="768" y="779" type="curve" smooth="yes"/>
      <point x="972" y="628"/>
      <point x="1045" y="517"/>
    </contour>
  </outline>
</glyph>
<glyph name="iivowelsigndeva" format="1">
  <advance width="676"/>
  <unicode hex="0940"/>
  <outline>
    <contour>
      <point x="138" y="1239" type="line"/>
      <point x="52" y="1442"/>
      <point x="-71" y="1535"/>
      <point x="-184" y="1535" type="curve" smooth="yes"/>
      <point x="-257" y="1535"/>
      <point x="-297" y="1485"/>
      <point x="-297" y="1420" type="curve" smooth="yes"/>
      <point x="-297" y="1357"/>
      <point x="-262" y="1304"/>
      <point x="-214" y="1251" type="curve"/>
      <point x="-557" y="1251" type="line"/>
      <point x="-599" y="1324"/>
      <point x="-630" y="1398"/>
      <point x="-630" y="1504" type="curve" smooth="yes"/>
      <point x="-630" y="1658"/>
      <point x="-522" y="1828"/>
      <point x="-254" y="1828" type="curve" smooth="yes"/>
      <point x="67" y="1828"/>
      <point x="333" y="1620"/>
      <point x="484" y="1239" type="curve"/>
    </contour>
    <component base="aavowelsigndeva"/>
  </outline>
</glyph>
<glyph name="uvowelsigndeva" format="1">
  <advance width="0"/>
  <unicode hex="0941"/>
  <outline>
    <contour>
      <point x="-739" y="-66" type="line"/>
      <point x="-639" y="-4"/>
      <point x="-538" y="42"/>
      <point x="-374" y="42" type="curve" smooth="yes"/>
      <point x="-128" y="42"/>
      <point x="3" y="-110"/>
      <point x="3" y="-314" type="curve" smooth="yes"/>
      <point x="3" y="-521"/>
      <point x="-164" y="-658"/>
      <point x="-397" y="-658" type="curve" smooth="yes"/>
      <point x="-633" y="-658"/>
      <point x="-855" y="-574"/>
      <point x="-1079" y="-386" type="curve"/>
      <point x="-974" y="-164" type="line"/>
      <point x="-767" y="-349"/>
      <point x="-608" y="-412"/>
      <point x="-472" y="-412" type="curve" smooth="yes"/>
      <point x="-343" y="-412"/>
      <point x="-290" y="-361"/>
      <point x="-290" y="-297" type="curve" smooth="yes"/>
      <point x="-290" y="-243"/>
      <point x="-330" y="-207"/>
      <point x="-397" y="-207" type="curve" smooth="yes"/>
      <point x="-462" y="-207"/>
      <point x="-534" y="-237"/>
      <point x="-617" y="-292" type="curve"/>
    </contour>
    <contour>
      <point x="-539" y="0" type="move" name="_btm"/>
    </contour>
  </outline>
</glyph>
<glyph name="rrvocalicvowelsigndeva" format="1">
  <advance width="0"/>
  <unicode hex="0944"/>
  <outline>
    <contour>
      <point x="-40" y="-767" type="line"/>
      <point x="-110" y="-792"/>
      <point x="-203" y="-811"/>
      <point x="-296" y="-811" type="curve" smooth="yes"/>
      <point x="-541" y="-811"/>
      <point x="-632" y="-689"/>
      <point x="-632" y="-570" type="curve" smooth="yes"/>
      <point x="-632" y="-419"/>
      <point x="-476" y="-316"/>
      <point x="-237" y="-316" type="curve"/>
      <point x="-188" y="-446" type="line"/>
      <point x="-300" y="-447"/>
      <point x="-372" y="-499"/>
      <point x="-372" y="-556" type="curve" smooth="yes"/>
      <point x="-372" y="-600"/>
      <point x="-338" y="-633"/>
      <point x="-258" y="-633" type="curve" smooth="yes"/>
      <point x="-202" y="-633"/>
      <point x="-158" y="-622"/>
      <point x="-76" y="-592" type="curve"/>
    </contour>
    <contour>
      <point x="-117" y="-459" type="line"/>
      <point x="-216" y="-481"/>
      <point x="-275" y="-486"/>
      <point x="-357" y="-486" type="curve" smooth="yes"/>
      <point x="-612" y="-486"/>
      <point x="-759" y="-364"/>
      <point x="-759" y="-205" type="curve" smooth="yes"/>
      <point x="-759" y="-63"/>
      <point x="-604" y="50"/>
      <point x="-362" y="50" type="curve" smooth="yes"/>
      <point x="-285" y="50"/>
      <point x="-225" y="42"/>
      <point x="-189" y="34" type="curve"/>
      <point x="-189" y="-137" type="line"/>
      <point x="-227" y="-137"/>
      <point x="-272" y="-137"/>
      <point x="-312" y="-137" type="curve" smooth="yes"/>
      <point x="-419" y="-137"/>
      <point x="-459" y="-174"/>
      <point x="-459" y="-220" type="curve" smooth="yes"/>
      <point x="-459" y="-266"/>
      <point x="-417" y="-299"/>
      <point x="-348" y="-299" type="curve" smooth="yes"/>
      <point x="-291" y="-299"/>
      <point x="-243" y="-293"/>
      <point x="-156" y="-272" type="curve"/>
    </contour>
    <contour>
      <point x="-539" y="0" type="move" name="_btm"/>
    </contour>
  </outline>
</glyph>
<glyph name="ecandravowelsigndeva" format="1">
  <unicode hex="0945"/>
  <outline>
    <contour>
      <point x="116" y="1548" type="line"/>
      <point x="-10" y="1422"/>
      <point x="-165" y="1362"/>
      <point x="-358" y="1362" type="curve" smooth="yes"/>
      <point x="-546" y="1362"/>
      <point x="-698" y="1423"/>
      <point x="-849" y="1546" type="curve"/>
      <point x="-776" y="1773" type="line"/>
      <point x="-649" y="1669"/>
      <point x="-525" y="1607"/>
      <point x="-356" y="1607" type="curve" smooth="yes"/>
      <point x="-204" y="1607"/>
      <point x="-82" y="1671"/>
      <point x="31" y="1770" type="curve"/>
    </contour>
    <contour>
      <point x="-539" y="1293" type="move" name="_top"/>
    </contour>
  </outline>
</glyph>
<glyph name="prishthaevowelsign" format="1">
  <advance width="676"/>
  <unicode hex="094E"/>
  <outline>
    <contour>
      <point x="139" y="1104" type="line"/>
      <point x="488" y="1104" type="line"/>
      <point x="488" y="0" type="line"/>
      <point x="139" y="0" type="line"/>
    </contour>
    <contour>
      <point x="706" y="1065" type="line"/>
      <point x="139" y="1065" type="line"/>
      <point x="139" y="1293" type="line"/>
      <point x="706" y="1293" type="line"/>
    </contour>
  </outline>
</glyph>
<glyph name="uevowelsigndevaKSH" format="1">
  <unicode hex="0956"/>
  <outline>
    <contour>
      <point x="161" y="-252" type="line"/>
      <point x="24" y="-377"/>
      <point x="-144" y="-437"/>
      <point x="-355" y="-437" type="curve" smooth="yes"/>
      <point x="-560" y="-437"/>
      <point x="-725" y="-377"/>
      <point x="-889" y="-253" type="curve"/>
      <point x="-820" y="-37" type="line"/>
      <point x="-682" y="-140"/>
      <point x="-537" y="-193"/>
      <point x="-354" y="-193" type="curve" smooth="yes"/>
      <point x="-187" y="-193"/>
      <point x="-44" y="-138"/>
      <point x="78" y="-39" type="curve"/>
    </contour>
    <contour>
      <point x="-539" y="0" type="move" name="_btm"/>
    </contour>
  </outline>
</glyph>
<glyph name="onedeva" format="1">
  <advance width="1039"/>
  <unicode hex="0967"/>
  <outline>
    <contour>
      <point x="183" y="351" type="line"/>
      <point x="519" y="675" type="line"/>
      <point x="609" y="762"/>
      <point x="655" y="836"/>
      <point x="655" y="905" type="curve" smooth="yes"/>
      <point x="655" y="976"/>
      <point x="600" y="1038"/>
      <point x="519" y="1038" type="curve" smooth="yes"/>
      <point x="445" y="1038"/>
      <point x="389" y="984"/>
      <point x="389" y="912" type="curve" smooth="yes"/>
      <point x="389" y="827"/>
      <point x="478" y="749"/>
      <point x="658" y="717" type="curve"/>
      <point x="503" y="500" type="line"/>
      <point x="179" y="591"/>
      <point x="69" y="766"/>
      <point x="69" y="945" type="curve" smooth="yes"/>
      <point x="69" y="1132"/>
      <point x="212" y="1312"/>
      <point x="512" y="1312" type="curve" smooth="yes"/>
      <point x="810" y="1312"/>
      <point x="969" y="1103"/>
      <point x="969" y="911" type="curve" smooth="yes"/>
      <point x="969" y="769"/>
      <point x="921" y="676"/>
      <point x="826" y="574" type="curve" smooth="yes"/>
      <point x="573" y="301" type="line"/>
      <point x="526" y="418" type="line"/>
      <point x="781" y="205" type="line"/>
      <point x="881" y="121"/>
      <point x="912" y="50"/>
      <point x="912" y="-18" type="curve" smooth="yes"/>
      <point x="912" y="-85"/>
      <point x="885" y="-145"/>
      <point x="843" y="-207" type="curve"/>
      <point x="532" y="-119" type="line"/>
      <point x="552" y="-87"/>
      <point x="562" y="-63"/>
      <point x="562" y="-25" type="curve" smooth="yes"/>
      <point x="562" y="14"/>
      <point x="536" y="45"/>
      <point x="499" y="74" type="curve" smooth="yes"/>
      <point x="183" y="320" type="line"/>
    </contour>
  </outline>
</glyph>
<glyph name="fivedeva" format="1">
  <advance width="1271"/>
  <unicode hex="096B"/>
  <outline>
    <contour>
      <point x="423" y="670" type="curve" smooth="yes"/>
      <point x="423" y="550"/>
      <point x="501" y="474"/>
      <point x="606" y="474" type="curve" smooth="yes"/>
      <point x="694" y="474"/>
      <point x="767" y="508"/>
      <point x="875" y="596" type="curve"/>
      <point x="718" y="429" type="line"/>
      <point x="666" y="516"/>
      <point x="650" y="564"/>
      <point x="650" y="618" type="curve" smooth="yes"/>
      <point x="650" y="691"/>
      <point x="705" y="767"/>
      <point x="858" y="767" type="curve" smooth="yes"/>
      <point x="1062" y="767"/>
      <point x="1190" y="671"/>
      <point x="1190" y="566" type="curve" smooth="yes"/>
      <point x="1190" y="398"/>
      <point x="960" y="205"/>
      <point x="633" y="205" type="curve" smooth="yes"/>
      <point x="314" y="205"/>
      <point x="89" y="428"/>
      <point x="89" y="694" type="curve" smooth="yes"/>
      <point x="89" y="925"/>
      <point x="205" y="1155"/>
      <point x="446" y="1328" type="curve"/>
      <point x="758" y="1167" type="line"/>
      <point x="518" y="992"/>
      <point x="423" y="820"/>
    </contour>
    <contour>
      <point x="721" y="443" type="line"/>
      <point x="1002" y="560" type="line"/>
      <point x="1313" y="-72" type="line"/>
      <point x="1031" y="-190" type="line"/>
    </contour>
  </outline>
</glyph>
<glyph name="sevendeva" format="1">
  <advance width="1332"/>
  <unicode hex="096D"/>
  <outline>
    <contour>
      <point x="1070" y="477" type="curve"/>
      <point x="1069" y="476"/>
      <point x="986" y="265"/>
      <point x="986" y="265" type="curve"/>
      <point x="642" y="351"/>
      <point x="471" y="511"/>
      <point x="471" y="736" type="curve" smooth="yes"/>
      <point x="471" y="912"/>
      <point x="583" y="1056"/>
      <point x="810" y="1056" type="curve" smooth="yes"/>
      <point x="1059" y="1056"/>
      <point x="1269" y="864"/>
      <point x="1269" y="584" type="curve" smooth="yes"/>
      <point x="1269" y="265"/>
      <point x="1064" y="23"/>
      <point x="709" y="23" type="curve" smooth="yes"/>
      <point x="367" y="23"/>
      <point x="81" y="283"/>
      <point x="81" y="740" type="curve" smooth="yes"/>
      <point x="81" y="930"/>
      <point x="122" y="1135"/>
      <point x="185" y="1291" type="curve"/>
      <point x="497" y="1201" type="line"/>
      <point x="420" y="1020"/>
      <point x="383" y="825"/>
      <point x="383" y="652" type="curve" smooth="yes"/>
      <point x="383" y="430"/>
      <point x="505" y="295"/>
      <point x="686" y="295" type="curve" smooth="yes"/>
      <point x="854" y="295"/>
      <point x="965" y="462"/>
      <point x="965" y="629" type="curve" smooth="yes"/>
      <point x="965" y="715"/>
      <point x="911" y="777"/>
      <point x="855" y="777" type="curve" smooth="yes"/>
      <point x="804" y="777"/>
      <point x="774" y="741"/>
      <point x="774" y="685" type="curve" smooth="yes"/>
      <point x="774" y="597"/>
      <point x="842" y="512"/>
    </contour>
  </outline>
</glyph>
<glyph name="eightdeva" format="1">
  <advance width="1123"/>
  <unicode hex="096E"/>
  <outline>
    <contour>
      <point x="643" y="1316" type="line"/>
      <point x="931" y="1089" type="line"/>
      <point x="524" y="627" type="line"/>
      <point x="451" y="544"/>
      <point x="433" y="495"/>
      <point x="433" y="440" type="curve" smooth="yes"/>
      <point x="433" y="377"/>
      <point x="493" y="321"/>
      <point x="571" y="321" type="curve" smooth="yes"/>
      <point x="674" y="322"/>
      <point x="784" y="368"/>
      <point x="967" y="507" type="curve"/>
      <point x="1151" y="204" type="line"/>
      <point x="965" y="69"/>
      <point x="820" y="23"/>
      <point x="622" y="23" type="curve" smooth="yes"/>
      <point x="295" y="23"/>
      <point x="75" y="227"/>
      <point x="75" y="484" type="curve" smooth="yes"/>
      <point x="75" y="603"/>
      <point x="111" y="713"/>
      <point x="224" y="841" type="curve" smooth="yes"/>
    </contour>
  </outline>
</glyph>
<glyph name="awdevaKSH" format="1">
  <advance width="2375"/>
  <unicode hex="0975"/>
  <outline>
    <contour>
      <point x="1938" y="1208" type="line"/>
      <point x="1938" y="1499" type="line"/>
      <point x="1938" y="1554"/>
      <point x="1912" y="1588"/>
      <point x="1817" y="1588" type="curve" smooth="yes"/>
      <point x="1761" y="1588"/>
      <point x="1713" y="1558"/>
      <point x="1601" y="1558" type="curve" smooth="yes"/>
      <point x="1471" y="1558"/>
      <point x="1381" y="1616"/>
      <point x="1301" y="1717" type="curve"/>
      <point x="1405" y="1876" type="line"/>
      <point x="1486" y="1799"/>
      <point x="1537" y="1775"/>
      <point x="1594" y="1775" type="curve" smooth="yes"/>
      <point x="1685" y="1775"/>
      <point x="1766" y="1820"/>
      <point x="1909" y="1820" type="curve" smooth="yes"/>
      <point x="2071" y="1820"/>
      <point x="2187" y="1712"/>
      <point x="2187" y="1536" type="curve" smooth="yes"/>
      <point x="2187" y="1208" type="line"/>
    </contour>
    <contour>
      <point x="1760" y="1160" type="line"/>
      <point x="1709" y="1283" type="line"/>
      <point x="1682" y="1346"/>
      <point x="1645" y="1383"/>
      <point x="1566" y="1383" type="curve" smooth="yes"/>
      <point x="1498" y="1383"/>
      <point x="1449" y="1355"/>
      <point x="1328" y="1355" type="curve" smooth="yes"/>
      <point x="1184" y="1355"/>
      <point x="1078" y="1421"/>
      <point x="982" y="1523" type="curve"/>
      <point x="1094" y="1671" type="line"/>
      <point x="1182" y="1593"/>
      <point x="1249" y="1566"/>
      <point x="1320" y="1566" type="curve" smooth="yes"/>
      <point x="1428" y="1566"/>
      <point x="1506" y="1608"/>
      <point x="1608" y="1608" type="curve" smooth="yes"/>
      <point x="1816" y="1608"/>
      <point x="1880" y="1543"/>
      <point x="1956" y="1330" type="curve" smooth="yes"/>
      <point x="2018" y="1160" type="line"/>
    </contour>
    <component base="aadeva"/>
  </outline>
</glyph>
<glyph name="emdash.deva" format="1">
  <advance width="1947"/>
  <unicode hex="2014"/>
  <outline>
    <contour>
      <point x="98" y="377" type="line"/>
      <point x="98" y="616" type="line"/>
      <point x="1803" y="616" type="line"/>
      <point x="1803" y="377" type="line"/>
    </contour>
  </outline>
</glyph>
<glyph name="quotedblright.deva" format="1">
  <advance width="-226"/>
  <unicode hex="201D"/>
  <outline>
    <contour>
      <point x="-152" y="1316" type="line"/>
      <point x="-129" y="1290" type="line"/>
      <point x="-57" y="1530"/>
      <point x="8" y="1686"/>
      <point x="70" y="1755" type="curve" smooth="yes"/>
      <point x="-47" y="1437"/>
      <point x="7" y="1139"/>
      <point x="-122" y="865" type="curve"/>
      <point x="-174" y="693"/>
      <point x="-674" y="472"/>
      <point x="-731" y="208" type="curve"/>
      <point x="-620" y="634"/>
      <point x="-540" y="1001"/>
      <point x="-494" y="1316" type="curve"/>
    </contour>
    <contour>
      <point x="320" y="1316" type="line"/>
      <point x="339" y="1290" type="line"/>
      <point x="342" y="1302"/>
      <point x="336" y="1268"/>
      <point x="307" y="1188" type="curve" smooth="yes"/>
      <point x="278" y="1112"/>
      <point x="235" y="1002"/>
      <point x="170" y="865" type="curve"/>
      <point x="-99" y="865" type="line"/>
      <point x="-93" y="928"/>
      <point x="-78" y="1010"/>
      <point x="-58" y="1108" type="curve" smooth="yes"/>
      <point x="-38" y="1207"/>
      <point x="-24" y="1275"/>
      <point x="-23" y="1316" type="curve"/>
    </contour>
  </outline>
</glyph>
<glyph name="uni20B9.deva" format="1">
  <advance width="1264"/>
  <unicode hex="20B9"/>
  <outline>
    <contour>
      <point x="131" y="741" type="line"/>
      <point x="131" y="951" type="line"/>
      <point x="1086" y="951" type="line"/>
      <point x="1086" y="741" type="line"/>
    </contour>
    <contour>
      <point x="131" y="1083" type="line"/>
      <point x="131" y="1293" type="line"/>
      <point x="1086" y="1293" type="line"/>
      <point x="1086" y="1083" type="line"/>
    </contour>
    <contour>
      <point x="170" y="479" type="line"/>
      <point x="173" y="566" type="line"/>
      <point x="453" y="580"/>
      <point x="575" y="706"/>
      <point x="575" y="853" type="curve" smooth="yes"/>
      <point x="575" y="992"/>
      <point x="471" y="1084"/>
      <point x="335" y="1084" type="curve" smooth="yes"/>
      <point x="315" y="1084" type="line"/>
      <point x="318" y="1255" type="line"/>
      <point x="405" y="1255" type="line"/>
      <point x="714" y="1255"/>
      <point x="901" y="1060"/>
      <point x="901" y="836" type="curve" smooth="yes"/>
      <point x="901" y="612"/>
      <point x="752" y="469"/>
      <point x="516" y="389" type="curve"/>
      <point x="517" y="484" type="line"/>
      <point x="923" y="16" type="line"/>
      <point x="924" y="0" type="line"/>
      <point x="578" y="0" type="line"/>
    </contour>
  </outline>
</glyph>
<glyph name="aivowelsignrephdeva" format="1">
  <advance width="0"/>
  <outline>
    <component base="aivowelsigndeva"/>
    <component base="rephdeva" xOffset="84"/>
    <contour>
      <point x="-539" y="1293" type="move" name="_top"/>
    </contour>
  </outline>
</glyph>
<glyph name="bharaprehalfdeva" format="1">
  <advance width="953"/>
  <outline>
    <contour>
      <point x="1385" y="318" type="line"/>
      <point x="802" y="-148" type="line"/>
      <point x="605" y="57" type="line"/>
      <point x="1206" y="532" type="line"/>
    </contour>
    <contour>
      <point x="443" y="692" type="line"/>
      <point x="407" y="663" type="line"/>
      <point x="407" y="994" type="line"/>
      <point x="407" y="1089"/>
      <point x="358" y="1141"/>
      <point x="293" y="1141" type="curve" smooth="yes"/>
      <point x="243" y="1141"/>
      <point x="211" y="1106"/>
      <point x="211" y="1062" type="curve" smooth="yes"/>
      <point x="211" y="1004"/>
      <point x="261" y="956"/>
      <point x="421" y="955" type="curve"/>
      <point x="424" y="755" type="line"/>
      <point x="73" y="756"/>
      <point x="-84" y="912"/>
      <point x="-84" y="1104" type="curve" smooth="yes"/>
      <point x="-84" y="1245"/>
      <point x="17" y="1379"/>
      <point x="258" y="1379" type="curve" smooth="yes"/>
      <point x="527" y="1379"/>
      <point x="727" y="1205"/>
      <point x="727" y="949" type="curve" smooth="yes"/>
      <point x="727" y="650" type="line"/>
      <point x="694" y="693" type="line"/>
      <point x="1236" y="693" type="line"/>
      <point x="1257" y="410" type="line"/>
      <point x="677" y="410" type="line"/>
      <point x="727" y="459" type="line"/>
      <point x="727" y="329" type="line"/>
      <point x="727" y="240"/>
      <point x="694" y="187"/>
      <point x="606" y="187" type="curve" smooth="yes"/>
      <point x="524" y="187"/>
      <point x="410" y="239"/>
      <point x="331" y="318" type="curve" smooth="yes"/>
      <point x="261" y="387"/>
      <point x="207" y="486"/>
      <point x="207" y="572" type="curve" smooth="yes"/>
      <point x="207" y="643"/>
      <point x="251" y="692"/>
      <point x="337" y="692" type="curve" smooth="yes"/>
    </contour>
  </outline>
</glyph>
<glyph name="chayadeva" format="1">
  <advance width="2968"/>
  <outline>
    <contour>
      <point x="2431" y="1104" type="line"/>
      <point x="2779" y="1104" type="line"/>
      <point x="2779" y="-83" type="line"/>
      <point x="2431" y="-83" type="line"/>
    </contour>
    <contour>
      <point x="1266" y="743" type="line"/>
      <point x="1251" y="969" type="line"/>
      <point x="1881" y="969" type="line"/>
      <point x="2125" y="969"/>
      <point x="2231" y="853"/>
      <point x="2231" y="710" type="curve" smooth="yes"/>
      <point x="2231" y="554"/>
      <point x="2104" y="434"/>
      <point x="1929" y="386" type="curve"/>
      <point x="1930" y="489" type="line"/>
      <point x="1994" y="403"/>
      <point x="2069" y="358"/>
      <point x="2153" y="358" type="curve" smooth="yes"/>
      <point x="2309" y="358"/>
      <point x="2420" y="438"/>
      <point x="2477" y="571" type="curve"/>
      <point x="2477" y="113" type="line"/>
      <point x="2420" y="91"/>
      <point x="2362" y="80"/>
      <point x="2268" y="80" type="curve" smooth="yes"/>
      <point x="1989" y="80"/>
      <point x="1737" y="266"/>
      <point x="1609" y="536" type="curve"/>
      <point x="1609" y="542" type="line"/>
      <point x="1836" y="579"/>
      <point x="1912" y="634"/>
      <point x="1912" y="679" type="curve" smooth="yes"/>
      <point x="1912" y="720"/>
      <point x="1886" y="743"/>
      <point x="1795" y="743" type="curve" smooth="yes"/>
    </contour>
    <contour>
      <point x="1492" y="1065" type="line"/>
      <point x="1492" y="1293" type="line"/>
      <point x="2998" y="1293" type="line"/>
      <point x="2998" y="1065" type="line"/>
    </contour>
    <component base="chaprehalfdeva"/>
    <contour>
      <point x="2431" y="1293" type="move" name="top"/>
    </contour>
  </outline>
</glyph>
<glyph name="dagadeva" format="1">
  <advance width="1248"/>
  <outline>
    <contour>
      <point x="677" y="162" type="line"/>
      <point x="939" y="247" type="line"/>
      <point x="1225" y="-289" type="line"/>
      <point x="974" y="-398" type="line"/>
    </contour>
    <contour>
      <point x="-30" y="1065" type="line"/>
      <point x="-30" y="1293" type="line"/>
      <point x="1278" y="1293" type="line"/>
      <point x="1278" y="1065" type="line"/>
    </contour>
    <contour>
      <point x="669" y="51" type="curve" smooth="yes"/>
      <point x="316" y="51"/>
      <point x="68" y="240"/>
      <point x="68" y="511" type="curve" smooth="yes"/>
      <point x="68" y="737"/>
      <point x="221" y="908"/>
      <point x="577" y="908" type="curve" smooth="yes"/>
      <point x="771" y="908" type="line"/>
      <point x="701" y="852" type="line"/>
      <point x="701" y="1096" type="line"/>
      <point x="1050" y="1096" type="line"/>
      <point x="1050" y="665" type="line"/>
      <point x="672" y="665" type="line"/>
      <point x="472" y="665"/>
      <point x="391" y="588"/>
      <point x="391" y="471" type="curve" smooth="yes"/>
      <point x="391" y="366"/>
      <point x="483" y="292"/>
      <point x="607" y="292" type="curve" smooth="yes"/>
      <point x="700" y="292"/>
      <point x="746" y="294"/>
      <point x="862" y="319" type="curve"/>
      <point x="660" y="206" type="line"/>
      <point x="625" y="258"/>
      <point x="615" y="320"/>
      <point x="615" y="369" type="curve" smooth="yes"/>
      <point x="615" y="435"/>
      <point x="656" y="510"/>
      <point x="802" y="510" type="curve" smooth="yes"/>
      <point x="999" y="510"/>
      <point x="1150" y="411"/>
      <point x="1150" y="291" type="curve" smooth="yes"/>
      <point x="1150" y="169"/>
      <point x="988" y="51"/>
    </contour>
    <contour>
      <point x="501" y="248" type="line"/>
      <point x="562" y="-304" type="line"/>
      <point x="573" y="-398"/>
      <point x="551" y="-448"/>
      <point x="453" y="-448" type="curve" smooth="yes"/>
      <point x="296" y="-448"/>
      <point x="66" y="-315"/>
      <point x="66" y="-193" type="curve" smooth="yes"/>
      <point x="66" y="-143"/>
      <point x="100" y="-104"/>
      <point x="173" y="-96" type="curve" smooth="yes"/>
      <point x="285" y="-83" type="line"/>
      <point x="250" y="-122" type="line"/>
      <point x="212" y="216" type="line"/>
    </contour>
    <contour>
      <point x="582" y="-488" type="move" name="btm"/>
    </contour>
    <contour>
      <point x="652" y="1293" type="move" name="top"/>
    </contour>
  </outline>
</glyph>
<glyph name="dayaprehalfdeva" format="1">
  <advance width="1072"/>
  <outline>
    <contour>
      <point x="442" y="1105" type="line"/>
      <point x="790" y="1105" type="line"/>
      <point x="790" y="850" type="line"/>
      <point x="442" y="850" type="line"/>
    </contour>
    <contour>
      <point x="433" y="324" type="line"/>
      <point x="151" y="407"/>
      <point x="28" y="544"/>
      <point x="28" y="696" type="curve" smooth="yes"/>
      <point x="28" y="845"/>
      <point x="147" y="946"/>
      <point x="384" y="946" type="curve" smooth="yes"/>
      <point x="497" y="946"/>
      <point x="703" y="946"/>
      <point x="790" y="946" type="curve"/>
      <point x="790" y="741" type="line"/>
      <point x="730" y="741"/>
      <point x="577" y="741"/>
      <point x="533" y="741" type="curve"/>
      <point x="420" y="741"/>
      <point x="371" y="701"/>
      <point x="371" y="647" type="curve" smooth="yes"/>
      <point x="371" y="592"/>
      <point x="449" y="546"/>
      <point x="589" y="532" type="curve"/>
    </contour>
    <contour>
      <point x="1102" y="1065" type="line"/>
      <point x="-30" y="1065" type="line"/>
      <point x="-30" y="1293" type="line"/>
      <point x="1102" y="1293" type="line"/>
    </contour>
    <contour>
      <point x="363" y="338" type="curve" smooth="yes"/>
      <point x="363" y="506"/>
      <point x="500" y="641"/>
      <point x="870" y="641" type="curve" smooth="yes"/>
      <point x="876" y="641" type="line"/>
      <point x="953" y="405" type="line"/>
      <point x="942" y="405" type="line"/>
      <point x="769" y="405"/>
      <point x="696" y="356"/>
      <point x="696" y="301" type="curve" smooth="yes"/>
      <point x="696" y="258"/>
      <point x="733" y="225"/>
      <point x="806" y="225" type="curve" smooth="yes"/>
      <point x="972" y="225"/>
      <point x="1122" y="338"/>
      <point x="1269" y="667" type="curve"/>
      <point x="1477" y="436" type="line"/>
      <point x="1351" y="197"/>
      <point x="1137" y="-19"/>
      <point x="817" y="-19" type="curve" smooth="yes"/>
      <point x="532" y="-19"/>
      <point x="363" y="144"/>
    </contour>
  </outline>
</glyph>
<glyph name="ddaradeva" format="1">
  <advance width="1261"/>
  <outline>
    <component base="ddadeva"/>
    <component base="vattudeva" xOffset="1012" yOffset="5"/>
    <contour>
      <point x="544" y="-402" type="move" name="btm"/>
    </contour>
    <contour>
      <point x="691" y="1293" type="move" name="top"/>
    </contour>
  </outline>
</glyph>
<glyph name="eightdevaNEP" format="1">
  <advance width="1254"/>
  <outline>
    <contour>
      <point x="38" y="1043" type="line"/>
      <point x="38" y="1271" type="line"/>
      <point x="1195" y="1271" type="line"/>
      <point x="1195" y="1043" type="line"/>
    </contour>
    <contour>
      <point x="522" y="201" type="curve" smooth="yes"/>
      <point x="326" y="201"/>
      <point x="139" y="345"/>
      <point x="139" y="631" type="curve" smooth="yes"/>
      <point x="139" y="811"/>
      <point x="189" y="999"/>
      <point x="305" y="1176" type="curve"/>
      <point x="628" y="1063" type="line"/>
      <point x="505" y="905"/>
      <point x="454" y="765"/>
      <point x="454" y="639" type="curve" smooth="yes"/>
      <point x="454" y="545"/>
      <point x="508" y="482"/>
      <point x="576" y="482" type="curve" smooth="yes"/>
      <point x="678" y="482"/>
      <point x="772" y="504"/>
      <point x="909" y="504" type="curve" smooth="yes"/>
      <point x="1115" y="504"/>
      <point x="1246" y="364"/>
      <point x="1246" y="193" type="curve" smooth="yes"/>
      <point x="1246" y="80"/>
      <point x="1212" y="-8"/>
      <point x="1147" y="-113" type="curve"/>
      <point x="835" y="-41" type="line"/>
      <point x="889" y="27"/>
      <point x="933" y="100"/>
      <point x="933" y="160" type="curve" smooth="yes"/>
      <point x="933" y="208"/>
      <point x="903" y="233"/>
      <point x="848" y="234" type="curve" smooth="yes"/>
      <point x="775" y="235"/>
      <point x="648" y="201"/>
    </contour>
  </outline>
</glyph>
<glyph name="eshortvowelsignrephdeva" format="1">
  <outline>
    <contour>
      <point x="-433" y="1244" type="line"/>
      <point x="-485" y="1311"/>
      <point x="-526" y="1407"/>
      <point x="-526" y="1503" type="curve" smooth="yes"/>
      <point x="-526" y="1667"/>
      <point x="-377" y="1822"/>
      <point x="-114" y="1822" type="curve" smooth="yes"/>
      <point x="-51" y="1822"/>
      <point x="2" y="1814"/>
      <point x="54" y="1801" type="curve"/>
      <point x="43" y="1597" type="line"/>
      <point x="6" y="1605"/>
      <point x="-22" y="1608"/>
      <point x="-75" y="1608" type="curve" smooth="yes"/>
      <point x="-167" y="1608"/>
      <point x="-233" y="1529"/>
      <point x="-233" y="1435" type="curve" smooth="yes"/>
      <point x="-233" y="1372"/>
      <point x="-233" y="1325"/>
      <point x="-233" y="1244" type="curve"/>
    </contour>
    <component base="eshortvowelsigndeva"/>
    <contour>
      <point x="-539" y="1293" type="move" name="_top"/>
    </contour>
  </outline>
</glyph>
<glyph name="fivedevaNEP" format="1">
  <advance width="1116"/>
  <outline>
    <contour>
      <point x="302" y="122" type="line"/>
      <point x="545" y="195" type="line"/>
      <point x="716" y="-151" type="line"/>
      <point x="479" y="-244" type="line"/>
    </contour>
    <contour>
      <point x="373" y="296" type="curve" smooth="yes"/>
      <point x="555" y="299"/>
      <point x="648" y="396"/>
      <point x="674" y="622" type="curve" smooth="yes"/>
      <point x="746" y="1271" type="line"/>
      <point x="1058" y="1271" type="line"/>
      <point x="974" y="623" type="line"/>
      <point x="927" y="261"/>
      <point x="736" y="47"/>
      <point x="330" y="47" type="curve" smooth="yes"/>
      <point x="171" y="47"/>
      <point x="88" y="105"/>
      <point x="88" y="183" type="curve" smooth="yes"/>
      <point x="88" y="291"/>
      <point x="209" y="433"/>
      <point x="329" y="433" type="curve" smooth="yes"/>
      <point x="407" y="433"/>
      <point x="448" y="393"/>
      <point x="532" y="233" type="curve"/>
      <point x="240" y="233" type="line"/>
      <point x="244" y="232"/>
      <point x="370" y="296"/>
    </contour>
    <contour>
      <point x="828" y="886" type="curve"/>
      <point x="868" y="592" type="line"/>
      <point x="790" y="549"/>
      <point x="666" y="509"/>
      <point x="548" y="509" type="curve" smooth="yes"/>
      <point x="255" y="509"/>
      <point x="100" y="663"/>
      <point x="100" y="927" type="curve" smooth="yes"/>
      <point x="100" y="1271" type="line"/>
      <point x="402" y="1271" type="line"/>
      <point x="402" y="913" type="line"/>
      <point x="402" y="820"/>
      <point x="449" y="770"/>
      <point x="534" y="770" type="curve" smooth="yes"/>
      <point x="646" y="770"/>
      <point x="741" y="814"/>
    </contour>
  </outline>
</glyph>
<glyph name="garadeva" format="1">
  <advance width="1488"/>
  <outline>
    <contour>
      <point x="1518" y="1065" type="line"/>
      <point x="-30" y="1065" type="line"/>
      <point x="-30" y="1293" type="line"/>
      <point x="1518" y="1293" type="line"/>
    </contour>
    <contour>
      <point x="1185" y="285" type="line"/>
      <point x="462" y="-139" type="line"/>
      <point x="302" y="100" type="line"/>
      <point x="1016" y="528" type="line"/>
    </contour>
    <contour>
      <point x="642" y="1096" type="line"/>
      <point x="642" y="490" type="line"/>
      <point x="642" y="388"/>
      <point x="604" y="330"/>
      <point x="507" y="330" type="curve" smooth="yes"/>
      <point x="298" y="330"/>
      <point x="68" y="548"/>
      <point x="68" y="679" type="curve" smooth="yes"/>
      <point x="68" y="742"/>
      <point x="106" y="789"/>
      <point x="195" y="789" type="curve" smooth="yes"/>
      <point x="340" y="789" type="line"/>
      <point x="294" y="747" type="line"/>
      <point x="294" y="1096" type="line"/>
    </contour>
    <contour>
      <point x="951" y="1104" type="line"/>
      <point x="1299" y="1104" type="line"/>
      <point x="1299" y="0" type="line"/>
      <point x="951" y="0" type="line"/>
    </contour>
    <contour>
      <point x="951" y="1293" type="move" name="top"/>
    </contour>
  </outline>
</glyph>
<glyph name="garaprehalfdeva" format="1">
  <advance width="818"/>
  <outline>
    <contour>
      <point x="848" y="1065" type="line"/>
      <point x="-30" y="1065" type="line"/>
      <point x="-30" y="1293" type="line"/>
      <point x="848" y="1293" type="line"/>
    </contour>
    <contour>
      <point x="1248" y="290" type="line"/>
      <point x="561" y="-119" type="line"/>
      <point x="401" y="120" type="line"/>
      <point x="1079" y="532" type="line"/>
    </contour>
    <contour>
      <point x="642" y="1096" type="line"/>
      <point x="642" y="490" type="line"/>
      <point x="642" y="388"/>
      <point x="604" y="330"/>
      <point x="507" y="330" type="curve" smooth="yes"/>
      <point x="298" y="330"/>
      <point x="68" y="548"/>
      <point x="68" y="679" type="curve" smooth="yes"/>
      <point x="68" y="742"/>
      <point x="106" y="789"/>
      <point x="195" y="789" type="curve" smooth="yes"/>
      <point x="340" y="789" type="line"/>
      <point x="294" y="747" type="line"/>
      <point x="294" y="1096" type="line"/>
    </contour>
  </outline>
</glyph>
<glyph name="haladeva" format="1">
  <advance width="1768"/>
  <outline>
    <contour>
      <point x="1353" y="281" type="line"/>
      <point x="1353" y="20" type="line"/>
      <point x="1097" y="-202" type="line"/>
      <point x="946" y="-52" type="line"/>
    </contour>
    <contour>
      <point x="1231" y="62" type="curve"/>
      <point x="1099" y="-46" type="line"/>
      <point x="1053" y="26"/>
      <point x="1015" y="56"/>
      <point x="958" y="56" type="curve" smooth="yes"/>
      <point x="897" y="56"/>
      <point x="849" y="13"/>
      <point x="849" y="-42" type="curve" smooth="yes"/>
      <point x="849" y="-102"/>
      <point x="881" y="-141"/>
      <point x="943" y="-205" type="curve"/>
      <point x="790" y="-273" type="line"/>
      <point x="697" y="-192"/>
      <point x="631" y="-88"/>
      <point x="631" y="7" type="curve" smooth="yes"/>
      <point x="631" y="133"/>
      <point x="717" y="235"/>
      <point x="894" y="235" type="curve" smooth="yes"/>
      <point x="1037" y="235"/>
      <point x="1114" y="184"/>
    </contour>
    <contour>
      <point x="1798" y="1065" type="line"/>
      <point x="-30" y="1065" type="line"/>
      <point x="-30" y="1293" type="line"/>
      <point x="1798" y="1293" type="line"/>
    </contour>
    <contour>
      <point x="1218" y="1077" type="line"/>
      <point x="1565" y="1077" type="line"/>
      <point x="1565" y="707" type="line"/>
      <point x="521" y="707" type="line"/>
      <point x="424" y="707"/>
      <point x="385" y="668"/>
      <point x="385" y="616" type="curve" smooth="yes"/>
      <point x="385" y="563"/>
      <point x="431" y="531"/>
      <point x="526" y="509" type="curve"/>
      <point x="295" y="340" type="line"/>
      <point x="127" y="441"/>
      <point x="48" y="552"/>
      <point x="48" y="686" type="curve" smooth="yes"/>
      <point x="48" y="824"/>
      <point x="158" y="935"/>
      <point x="380" y="935" type="curve" smooth="yes"/>
      <point x="1257" y="935" type="line"/>
      <point x="1218" y="883" type="line"/>
    </contour>
    <contour>
      <point x="844" y="334" type="curve" smooth="yes"/>
      <point x="530" y="334"/>
      <point x="424" y="183"/>
      <point x="424" y="39" type="curve" smooth="yes"/>
      <point x="424" y="-88"/>
      <point x="489" y="-198"/>
      <point x="740" y="-404" type="curve"/>
      <point x="544" y="-551" type="line"/>
      <point x="244" y="-327"/>
      <point x="135" y="-109"/>
      <point x="135" y="105" type="curve" smooth="yes"/>
      <point x="135" y="315"/>
      <point x="298" y="588"/>
      <point x="832" y="588" type="curve" smooth="yes"/>
      <point x="1346" y="588"/>
      <point x="1607" y="388"/>
      <point x="1607" y="81" type="curve" smooth="yes"/>
      <point x="1607" y="-354" type="line"/>
      <point x="1304" y="-354" type="line"/>
      <point x="1304" y="91" type="line"/>
      <point x="1304" y="245"/>
      <point x="1183" y="334"/>
    </contour>
    <contour>
      <point x="1304" y="-354" type="move" name="btm"/>
    </contour>
    <contour>
      <point x="1218" y="1293" type="move" name="top"/>
    </contour>
  </outline>
</glyph>
<glyph name="hauudeva" format="1">
  <advance width="1247"/>
  <outline>
    <contour>
      <point x="711" y="1077" type="line"/>
      <point x="1059" y="1077" type="line"/>
      <point x="1059" y="707" type="line"/>
      <point x="520" y="707" type="line"/>
      <point x="423" y="707"/>
      <point x="384" y="668"/>
      <point x="384" y="616" type="curve" smooth="yes"/>
      <point x="384" y="563"/>
      <point x="431" y="531"/>
      <point x="526" y="509" type="curve"/>
      <point x="295" y="340" type="line"/>
      <point x="127" y="440"/>
      <point x="48" y="552"/>
      <point x="48" y="686" type="curve" smooth="yes"/>
      <point x="48" y="825"/>
      <point x="158" y="935"/>
      <point x="380" y="935" type="curve" smooth="yes"/>
      <point x="750" y="935" type="line"/>
      <point x="711" y="883" type="line"/>
    </contour>
    <contour>
      <point x="668" y="573" type="curve" smooth="yes"/>
      <point x="1015" y="573"/>
      <point x="1168" y="404"/>
      <point x="1168" y="227" type="curve" smooth="yes"/>
      <point x="1168" y="147"/>
      <point x="1150" y="89"/>
      <point x="1116" y="19" type="curve"/>
      <point x="834" y="67" type="line"/>
      <point x="857" y="114"/>
      <point x="868" y="148"/>
      <point x="868" y="198" type="curve" smooth="yes"/>
      <point x="868" y="261"/>
      <point x="817" y="319"/>
      <point x="693" y="319" type="curve" smooth="yes"/>
      <point x="567" y="319"/>
      <point x="488" y="229"/>
      <point x="488" y="140" type="curve" smooth="yes"/>
      <point x="488" y="19"/>
      <point x="592" y="-53"/>
      <point x="841" y="-103" type="curve"/>
      <point x="747" y="-326" type="line"/>
      <point x="407" y="-262"/>
      <point x="162" y="-105"/>
      <point x="162" y="180" type="curve" smooth="yes"/>
      <point x="162" y="391"/>
      <point x="331" y="573"/>
    </contour>
    <contour>
      <point x="1277" y="1065" type="line"/>
      <point x="-30" y="1065" type="line"/>
      <point x="-30" y="1293" type="line"/>
      <point x="1277" y="1293" type="line"/>
    </contour>
    <component base="uuvowelsigndeva" xOffset="1077" yOffset="-116"/>
  </outline>
</glyph>
<glyph name="havadeva" format="1">
  <advance width="1610"/>
  <outline>
    <contour>
      <point x="821" y="588" type="curve" smooth="yes"/>
      <point x="1242" y="588"/>
      <point x="1494" y="387"/>
      <point x="1494" y="81" type="curve" smooth="yes"/>
      <point x="1494" y="-354" type="line"/>
      <point x="1192" y="-354" type="line"/>
      <point x="1192" y="91" type="line"/>
      <point x="1192" y="243"/>
      <point x="1113" y="334"/>
      <point x="844" y="334" type="curve" smooth="yes"/>
      <point x="530" y="334"/>
      <point x="424" y="183"/>
      <point x="424" y="39" type="curve" smooth="yes"/>
      <point x="424" y="-88"/>
      <point x="480" y="-188"/>
      <point x="740" y="-404" type="curve"/>
      <point x="542" y="-552" type="line"/>
      <point x="242" y="-321"/>
      <point x="135" y="-109"/>
      <point x="135" y="105" type="curve" smooth="yes"/>
      <point x="135" y="315"/>
      <point x="305" y="588"/>
    </contour>
    <contour>
      <point x="1640" y="1065" type="line"/>
      <point x="-30" y="1065" type="line"/>
      <point x="-30" y="1293" type="line"/>
      <point x="1640" y="1293" type="line"/>
    </contour>
    <contour>
      <point x="1105" y="1077" type="line"/>
      <point x="1452" y="1077" type="line"/>
      <point x="1452" y="707" type="line"/>
      <point x="521" y="707" type="line"/>
      <point x="424" y="707"/>
      <point x="385" y="668"/>
      <point x="385" y="616" type="curve" smooth="yes"/>
      <point x="385" y="563"/>
      <point x="431" y="531"/>
      <point x="526" y="509" type="curve"/>
      <point x="295" y="340" type="line"/>
      <point x="127" y="441"/>
      <point x="48" y="552"/>
      <point x="48" y="686" type="curve" smooth="yes"/>
      <point x="48" y="824"/>
      <point x="158" y="935"/>
      <point x="380" y="935" type="curve" smooth="yes"/>
      <point x="1144" y="935" type="line"/>
      <point x="1105" y="883" type="line"/>
    </contour>
    <contour>
      <point x="1212" y="-6" type="curve"/>
      <point x="1212" y="-245" type="line"/>
      <point x="1157" y="-268"/>
      <point x="1117" y="-281"/>
      <point x="1016" y="-281" type="curve" smooth="yes"/>
      <point x="781" y="-281"/>
      <point x="645" y="-137"/>
      <point x="645" y="9" type="curve" smooth="yes"/>
      <point x="645" y="131"/>
      <point x="745" y="233"/>
      <point x="953" y="233" type="curve" smooth="yes"/>
      <point x="1087" y="233"/>
      <point x="1190" y="205"/>
      <point x="1261" y="170" type="curve"/>
      <point x="1260" y="3" type="line"/>
      <point x="1179" y="45"/>
      <point x="1147" y="63"/>
      <point x="1037" y="63" type="curve" smooth="yes"/>
      <point x="950" y="63"/>
      <point x="898" y="21"/>
      <point x="898" y="-30" type="curve" smooth="yes"/>
      <point x="898" y="-78"/>
      <point x="945" y="-106"/>
      <point x="1008" y="-106" type="curve" smooth="yes"/>
      <point x="1096" y="-106"/>
      <point x="1150" y="-76"/>
    </contour>
    <contour>
      <point x="1192" y="-354" type="move" name="btm"/>
    </contour>
    <contour>
      <point x="1105" y="1293" type="move" name="top"/>
    </contour>
  </outline>
</glyph>
<glyph name="ivowelsign03deva" format="1">
  <advance width="676"/>
  <outline>
    <contour>
      <point x="139" y="1254" type="line"/>
      <point x="139" y="1340" type="line"/>
      <point x="139" y="1595"/>
      <point x="311" y="1822"/>
      <point x="845" y="1822" type="curve" smooth="yes"/>
      <point x="1134" y="1822"/>
      <point x="1436" y="1774"/>
      <point x="1678" y="1691" type="curve"/>
      <point x="1613" y="1440" type="line"/>
      <point x="1365" y="1506"/>
      <point x="1105" y="1540"/>
      <point x="897" y="1540" type="curve" smooth="yes"/>
      <point x="579" y="1540"/>
      <point x="487" y="1429"/>
      <point x="487" y="1312" type="curve" smooth="yes"/>
      <point x="487" y="1254" type="line"/>
    </contour>
    <component base="aavowelsigndeva"/>
  </outline>
</glyph>
<glyph name="ivowelsign04deva" format="1">
  <advance width="676"/>
  <outline>
    <contour>
      <point x="139" y="1254" type="line"/>
      <point x="139" y="1339" type="line"/>
      <point x="139" y="1591"/>
      <point x="314" y="1822"/>
      <point x="841" y="1822" type="curve" smooth="yes"/>
      <point x="1176" y="1822"/>
      <point x="1615" y="1744"/>
      <point x="1902" y="1648" type="curve"/>
      <point x="1842" y="1412" type="line"/>
      <point x="1528" y="1498"/>
      <point x="1165" y="1550"/>
      <point x="917" y="1550" type="curve" smooth="yes"/>
      <point x="577" y="1550"/>
      <point x="487" y="1428"/>
      <point x="487" y="1312" type="curve" smooth="yes"/>
      <point x="487" y="1254" type="line"/>
    </contour>
    <component base="aavowelsigndeva"/>
  </outline>
</glyph>
<glyph name="ivowelsign08deva" format="1">
  <advance width="676"/>
  <outline>
    <contour>
      <point x="139" y="1254" type="line"/>
      <point x="139" y="1339" type="line"/>
      <point x="139" y="1599"/>
      <point x="332" y="1823"/>
      <point x="878" y="1823" type="curve" smooth="yes"/>
      <point x="1460" y="1823"/>
      <point x="2080" y="1785"/>
      <point x="2786" y="1686" type="curve"/>
      <point x="2746" y="1438" type="line"/>
      <point x="2041" y="1508"/>
      <point x="1469" y="1542"/>
      <point x="964" y="1542" type="curve" smooth="yes"/>
      <point x="581" y="1542"/>
      <point x="487" y="1429"/>
      <point x="487" y="1312" type="curve" smooth="yes"/>
      <point x="487" y="1254" type="line"/>
    </contour>
    <component base="aavowelsigndeva"/>
  </outline>
</glyph>
<glyph name="jajadeva" format="1">
  <advance width="2410"/>
  <outline>
    <contour>
      <point x="-30" y="1065" type="line"/>
      <point x="-30" y="1293" type="line"/>
      <point x="1194" y="1293" type="line"/>
      <point x="1194" y="1065" type="line"/>
    </contour>
    <contour>
      <point x="774" y="624" type="line"/>
      <point x="809" y="709" type="line"/>
      <point x="918" y="640"/>
      <point x="988" y="533"/>
      <point x="988" y="369" type="curve" smooth="yes"/>
      <point x="988" y="188"/>
      <point x="850" y="42"/>
      <point x="628" y="42" type="curve" smooth="yes"/>
      <point x="391" y="42"/>
      <point x="177" y="179"/>
      <point x="8" y="416" type="curve"/>
      <point x="166" y="648" type="line"/>
      <point x="353" y="404"/>
      <point x="461" y="343"/>
      <point x="553" y="343" type="curve" smooth="yes"/>
      <point x="628" y="343"/>
      <point x="677" y="391"/>
      <point x="677" y="461" type="curve" smooth="yes"/>
      <point x="677" y="548"/>
      <point x="607" y="629"/>
      <point x="441" y="668" type="curve"/>
      <point x="441" y="908" type="line"/>
      <point x="1346" y="908" type="line"/>
      <point x="1346" y="624" type="line"/>
    </contour>
    <component base="jadeva" xOffset="724"/>
    <contour>
      <point x="1874" y="1293" type="move" name="top"/>
    </contour>
  </outline>
</glyph>
<glyph name="janyadeva" format="1">
  <advance width="1628"/>
  <outline>
    <contour>
      <point x="492" y="144" type="curve"/>
      <point x="511" y="121" type="line"/>
      <point x="763" y="-205" type="line"/>
      <point x="534" y="-310" type="line"/>
      <point x="251" y="51" type="line"/>
      <point x="375" y="-16" type="line"/>
      <point x="130" y="-16"/>
      <point x="46" y="63"/>
      <point x="46" y="151" type="curve" smooth="yes"/>
      <point x="46" y="240"/>
      <point x="132" y="318"/>
      <point x="239" y="318" type="curve" smooth="yes"/>
      <point x="327" y="318"/>
      <point x="395" y="271"/>
    </contour>
    <contour>
      <point x="-30" y="1065" type="line"/>
      <point x="-30" y="1293" type="line"/>
      <point x="1658" y="1293" type="line"/>
      <point x="1658" y="1065" type="line"/>
    </contour>
    <contour>
      <point x="512" y="730" type="line"/>
      <point x="452" y="730"/>
      <point x="418" y="718"/>
      <point x="418" y="684" type="curve" smooth="yes"/>
      <point x="418" y="650"/>
      <point x="455" y="630"/>
      <point x="574" y="610" type="curve" smooth="yes"/>
      <point x="770" y="576"/>
      <point x="886" y="468"/>
      <point x="886" y="309" type="curve" smooth="yes"/>
      <point x="886" y="150"/>
      <point x="730" y="-14"/>
      <point x="423" y="-14" type="curve"/>
      <point x="390" y="207" type="line"/>
      <point x="511" y="207"/>
      <point x="580" y="258"/>
      <point x="580" y="306" type="curve" smooth="yes"/>
      <point x="580" y="358"/>
      <point x="549" y="383"/>
      <point x="372" y="432" type="curve" smooth="yes"/>
      <point x="187" y="483"/>
      <point x="98" y="592"/>
      <point x="98" y="707" type="curve" smooth="yes"/>
      <point x="98" y="853"/>
      <point x="203" y="950"/>
      <point x="402" y="950" type="curve" smooth="yes"/>
      <point x="1118" y="950" type="line"/>
      <point x="1118" y="730" type="line"/>
    </contour>
    <contour>
      <point x="1085" y="1105" type="line"/>
      <point x="1434" y="1105" type="line"/>
      <point x="1434" y="0" type="line"/>
      <point x="1085" y="0" type="line"/>
    </contour>
    <contour>
      <point x="1085" y="1293" type="move" name="top"/>
    </contour>
  </outline>
</glyph>
<glyph name="janyaradeva" format="1">
  <advance width="1628"/>
  <outline>
    <contour>
      <point x="1328" y="459" type="line"/>
      <point x="901" y="-22" type="line"/>
      <point x="674" y="154" type="line"/>
      <point x="1111" y="644" type="line"/>
    </contour>
    <contour>
      <point x="492" y="144" type="curve"/>
      <point x="511" y="121" type="line"/>
      <point x="763" y="-205" type="line"/>
      <point x="534" y="-310" type="line"/>
      <point x="251" y="51" type="line"/>
      <point x="375" y="-16" type="line"/>
      <point x="130" y="-16"/>
      <point x="46" y="63"/>
      <point x="46" y="151" type="curve" smooth="yes"/>
      <point x="46" y="240"/>
      <point x="132" y="318"/>
      <point x="239" y="318" type="curve" smooth="yes"/>
      <point x="327" y="318"/>
      <point x="395" y="271"/>
    </contour>
    <contour>
      <point x="-30" y="1065" type="line"/>
      <point x="-30" y="1293" type="line"/>
      <point x="1658" y="1293" type="line"/>
      <point x="1658" y="1065" type="line"/>
    </contour>
    <contour>
      <point x="512" y="730" type="line"/>
      <point x="451" y="730"/>
      <point x="418" y="718"/>
      <point x="418" y="684" type="curve" smooth="yes"/>
      <point x="418" y="651"/>
      <point x="454" y="630"/>
      <point x="572" y="609" type="curve" smooth="yes"/>
      <point x="768" y="573"/>
      <point x="882" y="467"/>
      <point x="882" y="308" type="curve" smooth="yes"/>
      <point x="882" y="149"/>
      <point x="727" y="-14"/>
      <point x="423" y="-14" type="curve"/>
      <point x="390" y="207" type="line"/>
      <point x="508" y="207"/>
      <point x="576" y="257"/>
      <point x="576" y="305" type="curve" smooth="yes"/>
      <point x="576" y="356"/>
      <point x="547" y="381"/>
      <point x="371" y="431" type="curve" smooth="yes"/>
      <point x="186" y="484"/>
      <point x="98" y="592"/>
      <point x="98" y="707" type="curve" smooth="yes"/>
      <point x="98" y="853"/>
      <point x="203" y="950"/>
      <point x="402" y="950" type="curve" smooth="yes"/>
      <point x="1118" y="950" type="line"/>
      <point x="1118" y="730" type="line"/>
    </contour>
    <contour>
      <point x="1085" y="1105" type="line"/>
      <point x="1434" y="1105" type="line"/>
      <point x="1434" y="0" type="line"/>
      <point x="1085" y="0" type="line"/>
    </contour>
    <contour>
      <point x="1085" y="1293" type="move" name="top"/>
    </contour>
  </outline>
</glyph>
<glyph name="jaradeva" format="1">
  <advance width="1745"/>
  <outline>
    <contour>
      <point x="1417" y="413" type="line"/>
      <point x="672" y="-257" type="line"/>
      <point x="473" y="-65" type="line"/>
      <point x="1253" y="631" type="line"/>
    </contour>
    <contour>
      <point x="-30" y="1065" type="line"/>
      <point x="-30" y="1293" type="line"/>
      <point x="1775" y="1293" type="line"/>
      <point x="1775" y="1065" type="line"/>
    </contour>
    <contour>
      <point x="779" y="624" type="line"/>
      <point x="813" y="709" type="line"/>
      <point x="934" y="644"/>
      <point x="992" y="542"/>
      <point x="992" y="407" type="curve" smooth="yes"/>
      <point x="992" y="245"/>
      <point x="844" y="80"/>
      <point x="627" y="80" type="curve" smooth="yes"/>
      <point x="401" y="80"/>
      <point x="205" y="199"/>
      <point x="28" y="446" type="curve"/>
      <point x="180" y="668" type="line"/>
      <point x="356" y="431"/>
      <point x="462" y="373"/>
      <point x="561" y="373" type="curve" smooth="yes"/>
      <point x="636" y="373"/>
      <point x="685" y="419"/>
      <point x="685" y="483" type="curve" smooth="yes"/>
      <point x="685" y="549"/>
      <point x="620" y="629"/>
      <point x="445" y="668" type="curve"/>
      <point x="445" y="908" type="line"/>
      <point x="1259" y="908" type="line"/>
      <point x="1259" y="624" type="line"/>
    </contour>
    <contour>
      <point x="1209" y="1104" type="line"/>
      <point x="1557" y="1104" type="line"/>
      <point x="1557" y="0" type="line"/>
      <point x="1209" y="0" type="line"/>
    </contour>
    <contour>
      <point x="1209" y="1293" type="move" name="top"/>
    </contour>
  </outline>
</glyph>
<glyph name="jaraprehalfdeva" format="1">
  <advance width="1193"/>
  <outline>
    <contour>
      <point x="777" y="601" type="line"/>
      <point x="811" y="686" type="line"/>
      <point x="924" y="627"/>
      <point x="991" y="510"/>
      <point x="991" y="402" type="curve" smooth="yes"/>
      <point x="991" y="240"/>
      <point x="844" y="76"/>
      <point x="626" y="76" type="curve" smooth="yes"/>
      <point x="401" y="76"/>
      <point x="204" y="194"/>
      <point x="27" y="441" type="curve"/>
      <point x="179" y="663" type="line"/>
      <point x="355" y="426"/>
      <point x="462" y="368"/>
      <point x="560" y="368" type="curve" smooth="yes"/>
      <point x="635" y="368"/>
      <point x="684" y="414"/>
      <point x="684" y="478" type="curve" smooth="yes"/>
      <point x="684" y="545"/>
      <point x="620" y="615"/>
      <point x="443" y="644" type="curve"/>
      <point x="443" y="884" type="line"/>
      <point x="1465" y="884" type="line"/>
      <point x="1418" y="601" type="line"/>
    </contour>
    <contour>
      <point x="1498" y="478" type="line"/>
      <point x="677" y="-260" type="line"/>
      <point x="478" y="-69" type="line"/>
      <point x="1372" y="730" type="line"/>
    </contour>
    <contour>
      <point x="-30" y="1065" type="line"/>
      <point x="-30" y="1293" type="line"/>
      <point x="1223" y="1293" type="line"/>
      <point x="1223" y="1065" type="line"/>
    </contour>
  </outline>
</glyph>
<glyph name="jasadeva" format="1">
  <advance width="2668"/>
  <outline>
    <contour>
      <point x="773" y="601" type="line"/>
      <point x="808" y="687" type="line"/>
      <point x="919" y="618"/>
      <point x="987" y="511"/>
      <point x="987" y="366" type="curve" smooth="yes"/>
      <point x="987" y="186"/>
      <point x="849" y="40"/>
      <point x="627" y="40" type="curve" smooth="yes"/>
      <point x="399" y="40"/>
      <point x="189" y="173"/>
      <point x="11" y="419" type="curve"/>
      <point x="164" y="645" type="line"/>
      <point x="351" y="400"/>
      <point x="464" y="335"/>
      <point x="556" y="335" type="curve" smooth="yes"/>
      <point x="632" y="335"/>
      <point x="681" y="381"/>
      <point x="681" y="451" type="curve" smooth="yes"/>
      <point x="681" y="530"/>
      <point x="615" y="605"/>
      <point x="440" y="644" type="curve"/>
      <point x="440" y="884" type="line"/>
      <point x="1230" y="884" type="line"/>
      <point x="1183" y="601" type="line"/>
    </contour>
    <contour>
      <point x="-30" y="1065" type="line"/>
      <point x="-30" y="1293" type="line"/>
      <point x="1219" y="1293" type="line"/>
      <point x="1219" y="1065" type="line"/>
    </contour>
    <component base="sadeva" xOffset="1059"/>
  </outline>
</glyph>
<glyph name="jhaprehalfdevaNEP" format="1">
  <advance width="1636"/>
  <outline>
    <contour>
      <point x="1263" y="348" type="curve"/>
      <point x="1254" y="818" type="line"/>
      <point x="1297" y="831"/>
      <point x="1373" y="847"/>
      <point x="1487" y="847" type="curve" smooth="yes"/>
      <point x="1677" y="847"/>
      <point x="1840" y="785"/>
      <point x="1975" y="655" type="curve"/>
      <point x="1919" y="426" type="line"/>
      <point x="1794" y="531"/>
      <point x="1675" y="567"/>
      <point x="1566" y="567" type="curve" smooth="yes"/>
      <point x="1430" y="567"/>
      <point x="1339" y="495"/>
    </contour>
    <contour>
      <point x="1281" y="1065" type="line"/>
      <point x="1281" y="1293" type="line"/>
      <point x="1666" y="1293" type="line"/>
      <point x="1666" y="1065" type="line"/>
    </contour>
    <component base="bhadeva"/>
  </outline>
</glyph>
<glyph name="kaprehalfdeva" format="1">
  <advance width="1326"/>
  <outline>
    <contour>
      <point x="952" y="293" type="curve"/>
      <point x="943" y="763" type="line"/>
      <point x="987" y="781"/>
      <point x="1062" y="804"/>
      <point x="1186" y="804" type="curve" smooth="yes"/>
      <point x="1363" y="804"/>
      <point x="1521" y="759"/>
      <point x="1674" y="638" type="curve"/>
      <point x="1599" y="410" type="line"/>
      <point x="1467" y="489"/>
      <point x="1375" y="521"/>
      <point x="1255" y="521" type="curve" smooth="yes"/>
      <point x="1137" y="521"/>
      <point x="1019" y="448"/>
    </contour>
    <contour>
      <point x="-30" y="1065" type="line"/>
      <point x="-30" y="1293" type="line"/>
      <point x="1356" y="1293" type="line"/>
      <point x="1356" y="1065" type="line"/>
    </contour>
    <contour>
      <point x="705" y="613" type="curve"/>
      <point x="705" y="247" type="line"/>
      <point x="638" y="212"/>
      <point x="574" y="194"/>
      <point x="487" y="194" type="curve" smooth="yes"/>
      <point x="229" y="194"/>
      <point x="51" y="384"/>
      <point x="51" y="596" type="curve" smooth="yes"/>
      <point x="51" y="782"/>
      <point x="178" y="925"/>
      <point x="410" y="928" type="curve" smooth="yes"/>
      <point x="539" y="930"/>
      <point x="630" y="907"/>
      <point x="724" y="864" type="curve"/>
      <point x="724" y="626" type="line"/>
      <point x="640" y="666"/>
      <point x="586" y="680"/>
      <point x="494" y="680" type="curve" smooth="yes"/>
      <point x="398" y="680"/>
      <point x="343" y="626"/>
      <point x="343" y="556" type="curve" smooth="yes"/>
      <point x="343" y="488"/>
      <point x="389" y="451"/>
      <point x="466" y="451" type="curve" smooth="yes"/>
      <point x="545" y="451"/>
      <point x="639" y="503"/>
    </contour>
    <contour>
      <point x="683" y="1104" type="line"/>
      <point x="1031" y="1104" type="line"/>
      <point x="1031" y="0" type="line"/>
      <point x="683" y="0" type="line"/>
    </contour>
  </outline>
</glyph>
<glyph name="katadeva" format="1">
  <advance width="1996"/>
  <outline>
    <contour>
      <point x="1193" y="1065" type="line"/>
      <point x="1193" y="1293" type="line"/>
      <point x="2026" y="1293" type="line"/>
      <point x="2026" y="1065" type="line"/>
    </contour>
    <contour>
      <point x="1226" y="354" type="curve"/>
      <point x="1217" y="824" type="line"/>
      <point x="1261" y="833"/>
      <point x="1337" y="843"/>
      <point x="1414" y="843" type="curve" smooth="yes"/>
      <point x="1688" y="843"/>
      <point x="1886" y="684"/>
      <point x="1886" y="445" type="curve" smooth="yes"/>
      <point x="1886" y="325"/>
      <point x="1838" y="205"/>
      <point x="1763" y="108" type="curve"/>
      <point x="1467" y="211" type="line"/>
      <point x="1532" y="305"/>
      <point x="1568" y="386"/>
      <point x="1568" y="466" type="curve" smooth="yes"/>
      <point x="1568" y="525"/>
      <point x="1530" y="564"/>
      <point x="1465" y="564" type="curve" smooth="yes"/>
      <point x="1386" y="564"/>
      <point x="1306" y="497"/>
    </contour>
    <component base="tatadeva"/>
    <contour>
      <point x="946" y="0" type="move" name="btm"/>
    </contour>
    <contour>
      <point x="946" y="1293" type="move" name="top"/>
    </contour>
  </outline>
</glyph>
<glyph name="kharaprehalfdeva" format="1">
  <advance width="1377"/>
  <outline>
    <contour>
      <point x="256" y="723" type="line"/>
      <point x="392" y="762"/>
      <point x="424" y="836"/>
      <point x="424" y="950" type="curve" smooth="yes"/>
      <point x="424" y="1151" type="line"/>
      <point x="772" y="1151" type="line"/>
      <point x="772" y="933" type="line"/>
      <point x="772" y="723"/>
      <point x="721" y="539"/>
      <point x="461" y="415" type="curve"/>
    </contour>
    <contour>
      <point x="1546" y="630" type="curve" smooth="yes"/>
      <point x="1546" y="457"/>
      <point x="1370" y="299"/>
      <point x="1147" y="299" type="curve" smooth="yes"/>
      <point x="908" y="299"/>
      <point x="734" y="480"/>
      <point x="734" y="669" type="curve" smooth="yes"/>
      <point x="734" y="833"/>
      <point x="843" y="966"/>
      <point x="1081" y="966" type="curve" smooth="yes"/>
      <point x="1386" y="966"/>
      <point x="1546" y="806"/>
    </contour>
    <contour>
      <point x="378" y="637" type="line"/>
      <point x="418" y="562"/>
      <point x="468" y="504"/>
      <point x="517" y="455" type="curve" smooth="yes"/>
      <point x="683" y="289"/>
      <point x="857" y="238"/>
      <point x="1070" y="238" type="curve"/>
      <point x="978" y="4" type="line"/>
      <point x="770" y="4"/>
      <point x="453" y="114"/>
      <point x="267" y="300" type="curve" smooth="yes"/>
      <point x="171" y="396"/>
      <point x="99" y="498"/>
      <point x="60" y="584" type="curve" smooth="yes"/>
      <point x="39" y="630"/>
      <point x="28" y="671"/>
      <point x="28" y="705" type="curve" smooth="yes"/>
      <point x="28" y="789"/>
      <point x="95" y="856"/>
      <point x="181" y="856" type="curve" smooth="yes"/>
      <point x="266" y="856"/>
      <point x="313" y="820"/>
      <point x="381" y="733" type="curve" smooth="yes"/>
      <point x="427" y="673" type="line"/>
    </contour>
    <contour>
      <point x="-30" y="1065" type="line"/>
      <point x="-30" y="1293" type="line"/>
      <point x="1407" y="1293" type="line"/>
      <point x="1407" y="1065" type="line"/>
    </contour>
    <contour>
      <point x="1308" y="661" type="curve" smooth="yes"/>
      <point x="1308" y="704"/>
      <point x="1245" y="741"/>
      <point x="1144" y="741" type="curve" smooth="yes"/>
      <point x="1061" y="741"/>
      <point x="1011" y="686"/>
      <point x="1011" y="635" type="curve" smooth="yes"/>
      <point x="1011" y="580"/>
      <point x="1052" y="539"/>
      <point x="1113" y="539" type="curve" smooth="yes"/>
      <point x="1225" y="539"/>
      <point x="1308" y="603"/>
    </contour>
    <contour>
      <point x="1654" y="476" type="line"/>
      <point x="653" y="-232" type="line"/>
      <point x="455" y="-9" type="line"/>
      <point x="1513" y="743" type="line"/>
    </contour>
  </outline>
</glyph>
<glyph name="labhadeva" format="1">
  <advance width="2601"/>
  <outline>
    <contour>
      <point x="-30" y="1065" type="line"/>
      <point x="-30" y="1293" type="line"/>
      <point x="1209" y="1293" type="line"/>
      <point x="1209" y="1065" type="line"/>
    </contour>
    <contour>
      <point x="1023" y="623" type="curve"/>
      <point x="811" y="454" type="line"/>
      <point x="733" y="566"/>
      <point x="653" y="615"/>
      <point x="570" y="615" type="curve" smooth="yes"/>
      <point x="449" y="615"/>
      <point x="384" y="536"/>
      <point x="384" y="437" type="curve" smooth="yes"/>
      <point x="384" y="325"/>
      <point x="451" y="231"/>
      <point x="555" y="117" type="curve"/>
      <point x="321" y="-14" type="line"/>
      <point x="192" y="116"/>
      <point x="70" y="322"/>
      <point x="70" y="508" type="curve" smooth="yes"/>
      <point x="70" y="737"/>
      <point x="232" y="905"/>
      <point x="493" y="905" type="curve" smooth="yes"/>
      <point x="710" y="905"/>
      <point x="891" y="805"/>
    </contour>
    <contour>
      <point x="881" y="237" type="curve"/>
      <point x="604" y="366" type="line"/>
      <point x="718" y="656"/>
      <point x="903" y="851"/>
      <point x="1137" y="851" type="curve" smooth="yes"/>
      <point x="1313" y="851"/>
      <point x="1448" y="777"/>
      <point x="1575" y="643" type="curve"/>
      <point x="1364" y="455" type="line"/>
      <point x="1306" y="521"/>
      <point x="1255" y="548"/>
      <point x="1178" y="548" type="curve" smooth="yes"/>
      <point x="1075" y="548"/>
      <point x="973" y="449"/>
    </contour>
    <component base="bhadeva" xOffset="1056"/>
  </outline>
</glyph>
<glyph name="lamadeva" format="1">
  <advance width="2608"/>
  <outline>
    <contour>
      <point x="1023" y="623" type="curve"/>
      <point x="811" y="454" type="line"/>
      <point x="733" y="566"/>
      <point x="653" y="615"/>
      <point x="570" y="615" type="curve" smooth="yes"/>
      <point x="449" y="615"/>
      <point x="384" y="536"/>
      <point x="384" y="437" type="curve" smooth="yes"/>
      <point x="384" y="325"/>
      <point x="451" y="231"/>
      <point x="555" y="117" type="curve"/>
      <point x="321" y="-14" type="line"/>
      <point x="192" y="116"/>
      <point x="70" y="322"/>
      <point x="70" y="508" type="curve" smooth="yes"/>
      <point x="70" y="737"/>
      <point x="232" y="905"/>
      <point x="493" y="905" type="curve" smooth="yes"/>
      <point x="710" y="905"/>
      <point x="891" y="805"/>
    </contour>
    <contour>
      <point x="881" y="237" type="curve"/>
      <point x="604" y="366" type="line"/>
      <point x="718" y="656"/>
      <point x="903" y="851"/>
      <point x="1137" y="851" type="curve" smooth="yes"/>
      <point x="1313" y="851"/>
      <point x="1448" y="777"/>
      <point x="1575" y="643" type="curve"/>
      <point x="1364" y="455" type="line"/>
      <point x="1306" y="521"/>
      <point x="1255" y="548"/>
      <point x="1178" y="548" type="curve" smooth="yes"/>
      <point x="1075" y="548"/>
      <point x="973" y="449"/>
    </contour>
    <contour>
      <point x="-30" y="1065" type="line"/>
      <point x="-30" y="1293" type="line"/>
      <point x="1213" y="1293" type="line"/>
      <point x="1213" y="1065" type="line"/>
    </contour>
    <component base="madeva" xOffset="1210"/>
  </outline>
</glyph>
<glyph name="laraprehalfdeva" format="1">
  <advance width="1111"/>
  <outline>
    <contour>
      <point x="-30" y="1065" type="line"/>
      <point x="-30" y="1293" type="line"/>
      <point x="1141" y="1293" type="line"/>
      <point x="1141" y="1065" type="line"/>
    </contour>
    <contour>
      <point x="1027" y="621" type="curve"/>
      <point x="815" y="453" type="line"/>
      <point x="736" y="568"/>
      <point x="655" y="618"/>
      <point x="570" y="618" type="curve" smooth="yes"/>
      <point x="449" y="618"/>
      <point x="384" y="539"/>
      <point x="384" y="439" type="curve" smooth="yes"/>
      <point x="384" y="325"/>
      <point x="452" y="231"/>
      <point x="556" y="116" type="curve"/>
      <point x="321" y="-15" type="line"/>
      <point x="192" y="116"/>
      <point x="70" y="321"/>
      <point x="70" y="509" type="curve" smooth="yes"/>
      <point x="70" y="739"/>
      <point x="233" y="908"/>
      <point x="493" y="908" type="curve" smooth="yes"/>
      <point x="711" y="908"/>
      <point x="894" y="807"/>
    </contour>
    <contour>
      <point x="1347" y="850" type="line"/>
      <point x="1421" y="548" type="line"/>
      <point x="754" y="176" type="line"/>
      <point x="566" y="403" type="line"/>
    </contour>
    <contour>
      <point x="1527" y="237" type="line"/>
      <point x="995" y="-167" type="line"/>
      <point x="816" y="19" type="line"/>
      <point x="1357" y="443" type="line"/>
    </contour>
  </outline>
</glyph>
<glyph name="lazadeva" format="1">
  <advance width="2985"/>
  <outline>
    <contour>
      <point x="1023" y="623" type="curve"/>
      <point x="811" y="454" type="line"/>
      <point x="733" y="566"/>
      <point x="653" y="615"/>
      <point x="570" y="615" type="curve" smooth="yes"/>
      <point x="449" y="615"/>
      <point x="384" y="536"/>
      <point x="384" y="437" type="curve" smooth="yes"/>
      <point x="384" y="325"/>
      <point x="451" y="231"/>
      <point x="555" y="117" type="curve"/>
      <point x="321" y="-15" type="line"/>
      <point x="192" y="116"/>
      <point x="70" y="321"/>
      <point x="70" y="508" type="curve" smooth="yes"/>
      <point x="70" y="737"/>
      <point x="232" y="905"/>
      <point x="493" y="905" type="curve" smooth="yes"/>
      <point x="710" y="905"/>
      <point x="891" y="805"/>
    </contour>
    <contour>
      <point x="-30" y="1065" type="line"/>
      <point x="-30" y="1293" type="line"/>
      <point x="1293" y="1293" type="line"/>
      <point x="1293" y="1065" type="line"/>
    </contour>
    <contour>
      <point x="880" y="237" type="curve"/>
      <point x="603" y="366" type="line"/>
      <point x="718" y="656"/>
      <point x="906" y="850"/>
      <point x="1117" y="850" type="curve" smooth="yes"/>
      <point x="1272" y="850"/>
      <point x="1381" y="767"/>
      <point x="1470" y="642" type="curve"/>
      <point x="1309" y="413" type="line"/>
      <point x="1250" y="499"/>
      <point x="1205" y="529"/>
      <point x="1148" y="529" type="curve" smooth="yes"/>
      <point x="1056" y="529"/>
      <point x="972" y="449"/>
    </contour>
    <component base="zadeva" xOffset="1299"/>
  </outline>
</glyph>
<glyph name="llanuktaradeva" format="1">
  <advance width="1696"/>
  <outline>
    <component base="llaradeva"/>
    <component base="nuktadeva" xOffset="1262" yOffset="88"/>
    <contour>
      <point x="1078" y="1293" type="move" name="top"/>
    </contour>
    <contour>
      <point x="1122" y="-440" type="move" name="btm"/>
    </contour>
  </outline>
</glyph>
<glyph name="llaprehalfdeva" format="1">
  <advance width="1367"/>
  <outline>
    <contour>
      <point x="1397" y="1065" type="line"/>
      <point x="-30" y="1065" type="line"/>
      <point x="-30" y="1293" type="line"/>
      <point x="1397" y="1293" type="line"/>
    </contour>
    <contour>
      <point x="687" y="558" type="curve" smooth="yes"/>
      <point x="779" y="768"/>
      <point x="889" y="922"/>
      <point x="1188" y="922" type="curve" smooth="yes"/>
      <point x="1497" y="922"/>
      <point x="1625" y="678"/>
      <point x="1625" y="474" type="curve" smooth="yes"/>
      <point x="1625" y="247"/>
      <point x="1465" y="52"/>
      <point x="1204" y="52" type="curve" smooth="yes"/>
      <point x="1019" y="52"/>
      <point x="856" y="126"/>
      <point x="703" y="250" type="curve"/>
      <point x="812" y="447" type="line"/>
      <point x="918" y="361"/>
      <point x="1024" y="306"/>
      <point x="1136" y="306" type="curve" smooth="yes"/>
      <point x="1249" y="306"/>
      <point x="1322" y="387"/>
      <point x="1322" y="507" type="curve" smooth="yes"/>
      <point x="1322" y="592"/>
      <point x="1277" y="640"/>
      <point x="1211" y="640" type="curve" smooth="yes"/>
      <point x="1139" y="640"/>
      <point x="1057" y="571"/>
      <point x="1009" y="462" type="curve" smooth="yes"/>
      <point x="911" y="239"/>
      <point x="766" y="42"/>
      <point x="508" y="42" type="curve" smooth="yes"/>
      <point x="216" y="42"/>
      <point x="42" y="236"/>
      <point x="42" y="491" type="curve" smooth="yes"/>
      <point x="42" y="721"/>
      <point x="203" y="909"/>
      <point x="467" y="909" type="curve" smooth="yes"/>
      <point x="643" y="909"/>
      <point x="796" y="850"/>
      <point x="940" y="737" type="curve"/>
      <point x="850" y="546" type="line"/>
      <point x="746" y="609"/>
      <point x="629" y="648"/>
      <point x="530" y="648" type="curve" smooth="yes"/>
      <point x="428" y="648"/>
      <point x="351" y="565"/>
      <point x="351" y="454" type="curve" smooth="yes"/>
      <point x="351" y="361"/>
      <point x="400" y="310"/>
      <point x="463" y="310" type="curve" smooth="yes"/>
      <point x="539" y="310"/>
      <point x="614" y="392"/>
    </contour>
  </outline>
</glyph>
<glyph name="namadeva" format="1">
  <advance width="2013"/>
  <outline>
    <contour>
      <point x="850" y="693" type="line"/>
      <point x="850" y="410" type="line"/>
      <point x="439" y="410" type="line"/>
      <point x="489" y="461" type="line"/>
      <point x="489" y="224" type="line"/>
      <point x="489" y="135"/>
      <point x="444" y="82"/>
      <point x="374" y="82" type="curve" smooth="yes"/>
      <point x="325" y="82"/>
      <point x="274" y="107"/>
      <point x="215" y="166" type="curve" smooth="yes"/>
      <point x="143" y="238"/>
      <point x="60" y="384"/>
      <point x="60" y="520" type="curve" smooth="yes"/>
      <point x="60" y="632"/>
      <point x="117" y="693"/>
      <point x="251" y="693" type="curve" smooth="yes"/>
    </contour>
    <contour>
      <point x="-30" y="1065" type="line"/>
      <point x="-30" y="1293" type="line"/>
      <point x="1348" y="1293" type="line"/>
      <point x="1348" y="1065" type="line"/>
    </contour>
    <component base="madeva" xOffset="615"/>
  </outline>
</glyph>
<glyph name="ngamadeva" format="1">
  <advance width="1284"/>
  <outline>
    <contour>
      <point x="761" y="246" type="line"/>
      <point x="1062" y="246" type="line"/>
      <point x="1062" y="-610" type="line"/>
      <point x="761" y="-610" type="line"/>
    </contour>
    <contour>
      <point x="38" y="-185" type="curve" smooth="yes"/>
      <point x="38" y="-124"/>
      <point x="82" y="-84"/>
      <point x="159" y="-84" type="curve" smooth="yes"/>
      <point x="247" y="-84" type="line"/>
      <point x="211" y="-113" type="line"/>
      <point x="211" y="245" type="line"/>
      <point x="511" y="245" type="line"/>
      <point x="511" y="-126" type="line"/>
      <point x="479" y="-83" type="line"/>
      <point x="809" y="-83" type="line"/>
      <point x="809" y="-329" type="line"/>
      <point x="462" y="-329" type="line"/>
      <point x="511" y="-280" type="line"/>
      <point x="511" y="-381" type="line"/>
      <point x="511" y="-470"/>
      <point x="477" y="-524"/>
      <point x="399" y="-524" type="curve" smooth="yes"/>
      <point x="314" y="-524"/>
      <point x="225" y="-463"/>
      <point x="152" y="-390" type="curve" smooth="yes"/>
      <point x="82" y="-320"/>
      <point x="38" y="-250"/>
    </contour>
    <contour>
      <point x="691" y="1086" type="line"/>
      <point x="1039" y="1086" type="line"/>
      <point x="1039" y="725" type="line"/>
      <point x="531" y="725" type="line"/>
      <point x="454" y="725"/>
      <point x="427" y="699"/>
      <point x="427" y="661" type="curve" smooth="yes"/>
      <point x="427" y="626"/>
      <point x="450" y="607"/>
      <point x="515" y="581" type="curve"/>
      <point x="402" y="598" type="line"/>
      <point x="491" y="635"/>
      <point x="602" y="661"/>
      <point x="727" y="661" type="curve" smooth="yes"/>
      <point x="997" y="661"/>
      <point x="1150" y="540"/>
      <point x="1150" y="365" type="curve" smooth="yes"/>
      <point x="1150" y="203"/>
      <point x="1005" y="55"/>
      <point x="659" y="55" type="curve" smooth="yes"/>
      <point x="472" y="55"/>
      <point x="297" y="94"/>
      <point x="76" y="197" type="curve"/>
      <point x="136" y="444" type="line"/>
      <point x="331" y="332"/>
      <point x="490" y="284"/>
      <point x="624" y="284" type="curve" smooth="yes"/>
      <point x="778" y="284"/>
      <point x="834" y="324"/>
      <point x="834" y="366" type="curve" smooth="yes"/>
      <point x="834" y="402"/>
      <point x="791" y="429"/>
      <point x="706" y="429" type="curve" smooth="yes"/>
      <point x="618" y="429"/>
      <point x="535" y="408"/>
      <point x="467" y="377" type="curve"/>
      <point x="459" y="377" type="line"/>
      <point x="222" y="457"/>
      <point x="124" y="577"/>
      <point x="124" y="713" type="curve" smooth="yes"/>
      <point x="124" y="833"/>
      <point x="211" y="948"/>
      <point x="454" y="948" type="curve" smooth="yes"/>
      <point x="758" y="948" type="line"/>
      <point x="691" y="882" type="line"/>
    </contour>
    <contour>
      <point x="1269" y="817" type="curve" smooth="yes"/>
      <point x="1401" y="817"/>
      <point x="1444" y="736"/>
      <point x="1444" y="672" type="curve" smooth="yes"/>
      <point x="1444" y="609"/>
      <point x="1393" y="528"/>
      <point x="1269" y="528" type="curve" smooth="yes"/>
      <point x="1136" y="528"/>
      <point x="1090" y="610"/>
      <point x="1090" y="672" type="curve" smooth="yes"/>
      <point x="1090" y="735"/>
      <point x="1139" y="817"/>
    </contour>
    <contour>
      <point x="1314" y="1065" type="line"/>
      <point x="-30" y="1065" type="line"/>
      <point x="-30" y="1293" type="line"/>
      <point x="1314" y="1293" type="line"/>
    </contour>
    <contour>
      <point x="449" y="-705" type="move" name="btm"/>
    </contour>
    <contour>
      <point x="690" y="1293" type="move" name="top"/>
    </contour>
  </outline>
</glyph>
<glyph name="nyaprehalfdeva" format="1">
  <advance width="1215"/>
  <outline>
    <contour>
      <point x="1042" y="513" type="curve" smooth="yes"/>
      <point x="1042" y="249"/>
      <point x="854" y="99"/>
      <point x="624" y="99" type="curve" smooth="yes"/>
      <point x="417" y="99"/>
      <point x="224" y="186"/>
      <point x="21" y="362" type="curve"/>
      <point x="132" y="599" type="line"/>
      <point x="311" y="439"/>
      <point x="434" y="378"/>
      <point x="556" y="378" type="curve" smooth="yes"/>
      <point x="683" y="378"/>
      <point x="742" y="451"/>
      <point x="741" y="535" type="curve" smooth="yes"/>
      <point x="740" y="614"/>
      <point x="671" y="677"/>
      <point x="577" y="677" type="curve" smooth="yes"/>
      <point x="486" y="677"/>
      <point x="404" y="638"/>
      <point x="347" y="592" type="curve"/>
      <point x="228" y="837" type="line"/>
      <point x="300" y="891"/>
      <point x="420" y="944"/>
      <point x="571" y="944" type="curve" smooth="yes"/>
      <point x="834" y="944"/>
      <point x="1042" y="776"/>
    </contour>
    <contour>
      <point x="928" y="415" type="curve"/>
      <point x="928" y="686" type="line"/>
      <point x="964" y="675"/>
      <point x="1043" y="670"/>
      <point x="1090" y="670" type="curve" smooth="yes"/>
      <point x="1217" y="670"/>
      <point x="1357" y="713"/>
      <point x="1471" y="784" type="curve"/>
      <point x="1528" y="467" type="line"/>
      <point x="1432" y="421"/>
      <point x="1279" y="390"/>
      <point x="1162" y="390" type="curve" smooth="yes"/>
      <point x="1089" y="390"/>
      <point x="980" y="403"/>
    </contour>
    <contour>
      <point x="-30" y="1065" type="line"/>
      <point x="-30" y="1293" type="line"/>
      <point x="1245" y="1293" type="line"/>
      <point x="1245" y="1065" type="line"/>
    </contour>
  </outline>
</glyph>
<glyph name="rephanusvaradeva" format="1">
  <advance width="-1"/>
  <outline>
    <contour>
      <point x="-125" y="1561" type="curve" smooth="yes"/>
      <point x="-32" y="1561"/>
      <point x="8" y="1503"/>
      <point x="8" y="1451" type="curve" smooth="yes"/>
      <point x="8" y="1402"/>
      <point x="-32" y="1342"/>
      <point x="-125" y="1342" type="curve" smooth="yes"/>
      <point x="-212" y="1342"/>
      <point x="-257" y="1399"/>
      <point x="-257" y="1451" type="curve" smooth="yes"/>
      <point x="-257" y="1504"/>
      <point x="-213" y="1561"/>
    </contour>
    <contour>
      <point x="-530" y="1244" type="line"/>
      <point x="-582" y="1311"/>
      <point x="-624" y="1407"/>
      <point x="-624" y="1503" type="curve" smooth="yes"/>
      <point x="-624" y="1667"/>
      <point x="-475" y="1822"/>
      <point x="-212" y="1822" type="curve" smooth="yes"/>
      <point x="-149" y="1822"/>
      <point x="-96" y="1814"/>
      <point x="-43" y="1801" type="curve"/>
      <point x="-54" y="1627" type="line"/>
      <point x="-83" y="1631"/>
      <point x="-106" y="1632"/>
      <point x="-149" y="1632" type="curve" smooth="yes"/>
      <point x="-259" y="1632"/>
      <point x="-335" y="1548"/>
      <point x="-335" y="1444" type="curve" smooth="yes"/>
      <point x="-335" y="1379"/>
      <point x="-310" y="1316"/>
      <point x="-248" y="1244" type="curve"/>
    </contour>
    <contour>
      <point x="-539" y="1293" type="move" name="_top"/>
    </contour>
  </outline>
</glyph>
<glyph name="rephdeva" format="1">
  <advance width="-1"/>
  <outline>
    <contour>
      <point x="-530" y="1244" type="line"/>
      <point x="-582" y="1311"/>
      <point x="-624" y="1407"/>
      <point x="-624" y="1503" type="curve" smooth="yes"/>
      <point x="-624" y="1667"/>
      <point x="-475" y="1822"/>
      <point x="-212" y="1822" type="curve" smooth="yes"/>
      <point x="-149" y="1822"/>
      <point x="-96" y="1814"/>
      <point x="-43" y="1802" type="curve"/>
      <point x="-54" y="1597" type="line"/>
      <point x="-91" y="1605"/>
      <point x="-120" y="1608"/>
      <point x="-165" y="1608" type="curve" smooth="yes"/>
      <point x="-254" y="1608"/>
      <point x="-310" y="1540"/>
      <point x="-310" y="1454" type="curve" smooth="yes"/>
      <point x="-310" y="1380"/>
      <point x="-282" y="1316"/>
      <point x="-220" y="1244" type="curve"/>
    </contour>
    <contour>
      <point x="-539" y="1293" type="move" name="_top"/>
    </contour>
  </outline>
</glyph>
<glyph name="rrvocaliclowdeva" format="1">
  <outline>
    <contour>
      <point x="-40" y="-628" type="line"/>
      <point x="-110" y="-649"/>
      <point x="-203" y="-664"/>
      <point x="-296" y="-664" type="curve" smooth="yes"/>
      <point x="-541" y="-664"/>
      <point x="-632" y="-564"/>
      <point x="-632" y="-464" type="curve" smooth="yes"/>
      <point x="-632" y="-340"/>
      <point x="-477" y="-254"/>
      <point x="-237" y="-253" type="curve"/>
      <point x="-188" y="-362" type="line"/>
      <point x="-301" y="-362"/>
      <point x="-372" y="-405"/>
      <point x="-372" y="-452" type="curve" smooth="yes"/>
      <point x="-372" y="-490"/>
      <point x="-338" y="-516"/>
      <point x="-259" y="-516" type="curve" smooth="yes"/>
      <point x="-202" y="-516"/>
      <point x="-158" y="-507"/>
      <point x="-76" y="-482" type="curve"/>
    </contour>
    <contour>
      <point x="-117" y="-372" type="line"/>
      <point x="-216" y="-391"/>
      <point x="-275" y="-395"/>
      <point x="-357" y="-395" type="curve" smooth="yes"/>
      <point x="-612" y="-395"/>
      <point x="-759" y="-293"/>
      <point x="-759" y="-162" type="curve" smooth="yes"/>
      <point x="-759" y="-44"/>
      <point x="-604" y="50"/>
      <point x="-363" y="50" type="curve" smooth="yes"/>
      <point x="-285" y="50"/>
      <point x="-225" y="43"/>
      <point x="-189" y="37" type="curve"/>
      <point x="-189" y="-105" type="line"/>
      <point x="-227" y="-105"/>
      <point x="-272" y="-105"/>
      <point x="-312" y="-105" type="curve" smooth="yes"/>
      <point x="-419" y="-105"/>
      <point x="-458" y="-135"/>
      <point x="-458" y="-173" type="curve" smooth="yes"/>
      <point x="-458" y="-212"/>
      <point x="-417" y="-240"/>
      <point x="-348" y="-240" type="curve" smooth="yes"/>
      <point x="-291" y="-240"/>
      <point x="-242" y="-234"/>
      <point x="-156" y="-217" type="curve"/>
    </contour>
    <contour>
      <point x="-445" y="0" type="move" name="_btm"/>
    </contour>
  </outline>
</glyph>
<glyph name="saradeva" format="1">
  <advance width="1644"/>
  <outline>
    <contour>
      <point x="1291" y="488" type="line"/>
      <point x="913" y="79" type="line"/>
      <point x="695" y="264" type="line"/>
      <point x="1092" y="664" type="line"/>
    </contour>
    <contour>
      <point x="755" y="94" type="line"/>
      <point x="505" y="-67" type="line"/>
      <point x="103" y="554" type="line"/>
      <point x="56" y="626"/>
      <point x="25" y="679"/>
      <point x="25" y="739" type="curve" smooth="yes"/>
      <point x="25" y="816"/>
      <point x="81" y="885"/>
      <point x="173" y="885" type="curve" smooth="yes"/>
      <point x="241" y="885"/>
      <point x="302" y="849"/>
      <point x="335" y="793" type="curve" smooth="yes"/>
      <point x="415" y="661" type="line"/>
      <point x="394" y="640" type="line"/>
    </contour>
    <contour>
      <point x="262" y="718" type="line"/>
      <point x="389" y="762"/>
      <point x="438" y="823"/>
      <point x="438" y="955" type="curve" smooth="yes"/>
      <point x="438" y="1123" type="line"/>
      <point x="786" y="1123" type="line"/>
      <point x="786" y="901" type="line"/>
      <point x="786" y="710"/>
      <point x="658" y="522"/>
      <point x="446" y="449" type="curve"/>
    </contour>
    <contour>
      <point x="-30" y="1065" type="line"/>
      <point x="-30" y="1293" type="line"/>
      <point x="1674" y="1293" type="line"/>
      <point x="1674" y="1065" type="line"/>
    </contour>
    <contour>
      <point x="508" y="535" type="curve"/>
      <point x="651" y="768" type="line"/>
      <point x="719" y="742"/>
      <point x="810" y="724"/>
      <point x="878" y="724" type="curve" smooth="yes"/>
      <point x="972" y="724"/>
      <point x="1048" y="732"/>
      <point x="1134" y="748" type="curve"/>
      <point x="1134" y="484" type="line"/>
      <point x="1073" y="471"/>
      <point x="1009" y="464"/>
      <point x="932" y="464" type="curve" smooth="yes"/>
      <point x="824" y="464"/>
      <point x="676" y="482"/>
    </contour>
    <contour>
      <point x="1107" y="1104" type="line"/>
      <point x="1455" y="1104" type="line"/>
      <point x="1455" y="0" type="line"/>
      <point x="1107" y="0" type="line"/>
    </contour>
    <contour>
      <point x="1107" y="1293" type="move" name="top"/>
    </contour>
  </outline>
</glyph>
<glyph name="shacadeva" format="1">
  <advance width="1632"/>
  <outline>
    <contour>
      <point x="198" y="327" type="line"/>
      <point x="48" y="576" type="line"/>
      <point x="334" y="722" type="line"/>
      <point x="575" y="845"/>
      <point x="635" y="911"/>
      <point x="635" y="982" type="curve" smooth="yes"/>
      <point x="635" y="1037"/>
      <point x="601" y="1076"/>
      <point x="547" y="1076" type="curve" smooth="yes"/>
      <point x="480" y="1076"/>
      <point x="450" y="1036"/>
      <point x="450" y="986" type="curve" smooth="yes"/>
      <point x="450" y="872"/>
      <point x="685" y="775"/>
      <point x="1270" y="691" type="curve"/>
      <point x="1199" y="456" type="line"/>
      <point x="421" y="536"/>
      <point x="148" y="768"/>
      <point x="148" y="1027" type="curve" smooth="yes"/>
      <point x="148" y="1180"/>
      <point x="274" y="1326"/>
      <point x="522" y="1326" type="curve" smooth="yes"/>
      <point x="776" y="1326"/>
      <point x="917" y="1166"/>
      <point x="917" y="977" type="curve" smooth="yes"/>
      <point x="917" y="787"/>
      <point x="787" y="631"/>
      <point x="477" y="471" type="curve" smooth="yes"/>
    </contour>
    <contour>
      <point x="1090" y="1104" type="line"/>
      <point x="1438" y="1104" type="line"/>
      <point x="1438" y="-339" type="line"/>
      <point x="1090" y="-339" type="line"/>
    </contour>
    <contour>
      <point x="1131" y="343" type="curve"/>
      <point x="1280" y="-25" type="line"/>
      <point x="1188" y="-140"/>
      <point x="1076" y="-227"/>
      <point x="891" y="-227" type="curve" smooth="yes"/>
      <point x="697" y="-227"/>
      <point x="549" y="-93"/>
      <point x="549" y="89" type="curve" smooth="yes"/>
      <point x="549" y="214"/>
      <point x="625" y="331"/>
      <point x="809" y="418" type="curve"/>
      <point x="927" y="247" type="line"/>
      <point x="850" y="211"/>
      <point x="818" y="155"/>
      <point x="817" y="107" type="curve" smooth="yes"/>
      <point x="817" y="54"/>
      <point x="847" y="19"/>
      <point x="902" y="19" type="curve" smooth="yes"/>
      <point x="1005" y="19"/>
      <point x="1129" y="136"/>
    </contour>
    <contour>
      <point x="1662" y="1065" type="line"/>
      <point x="1008" y="1065" type="line"/>
      <point x="1008" y="1293" type="line"/>
      <point x="1662" y="1293" type="line"/>
    </contour>
    <contour>
      <point x="404" y="-44" type="line"/>
      <point x="268" y="161" type="line"/>
      <point x="833" y="463" type="line"/>
      <point x="963" y="267" type="line"/>
    </contour>
    <contour>
      <point x="1090" y="-339" type="move" name="btm"/>
    </contour>
    <contour>
      <point x="1090" y="1293" type="move" name="top"/>
    </contour>
  </outline>
</glyph>
<glyph name="shacaprehalfdeva" format="1">
  <advance width="1039"/>
  <outline>
    <contour>
      <point x="198" y="327" type="line"/>
      <point x="48" y="576" type="line"/>
      <point x="334" y="722" type="line"/>
      <point x="575" y="845"/>
      <point x="635" y="911"/>
      <point x="635" y="982" type="curve" smooth="yes"/>
      <point x="635" y="1037"/>
      <point x="601" y="1076"/>
      <point x="547" y="1076" type="curve" smooth="yes"/>
      <point x="480" y="1076"/>
      <point x="450" y="1036"/>
      <point x="450" y="986" type="curve" smooth="yes"/>
      <point x="450" y="881"/>
      <point x="629" y="789"/>
      <point x="1242" y="694" type="curve"/>
      <point x="1284" y="444" type="line"/>
      <point x="404" y="527"/>
      <point x="148" y="778"/>
      <point x="148" y="1027" type="curve" smooth="yes"/>
      <point x="148" y="1180"/>
      <point x="274" y="1326"/>
      <point x="522" y="1326" type="curve" smooth="yes"/>
      <point x="776" y="1326"/>
      <point x="917" y="1166"/>
      <point x="917" y="977" type="curve" smooth="yes"/>
      <point x="917" y="787"/>
      <point x="787" y="631"/>
      <point x="477" y="471" type="curve" smooth="yes"/>
    </contour>
    <contour>
      <point x="376" y="-44" type="line"/>
      <point x="241" y="160" type="line"/>
      <point x="805" y="463" type="line"/>
      <point x="935" y="267" type="line"/>
    </contour>
    <contour>
      <point x="1145" y="527" type="curve"/>
      <point x="1245" y="681" type="line"/>
      <point x="1405" y="498" type="line"/>
      <point x="1392" y="20"/>
      <point x="1161" y="-227"/>
      <point x="864" y="-227" type="curve" smooth="yes"/>
      <point x="670" y="-227"/>
      <point x="521" y="-93"/>
      <point x="521" y="89" type="curve" smooth="yes"/>
      <point x="521" y="214"/>
      <point x="597" y="331"/>
      <point x="782" y="418" type="curve"/>
      <point x="899" y="247" type="line"/>
      <point x="823" y="211"/>
      <point x="791" y="155"/>
      <point x="790" y="107" type="curve" smooth="yes"/>
      <point x="790" y="54"/>
      <point x="820" y="19"/>
      <point x="875" y="19" type="curve" smooth="yes"/>
      <point x="994" y="19"/>
      <point x="1125" y="163"/>
    </contour>
  </outline>
</glyph>
<glyph name="shaladeva" format="1">
  <advance width="2502"/>
  <outline>
    <contour>
      <point x="198" y="327" type="line"/>
      <point x="48" y="576" type="line"/>
      <point x="334" y="722" type="line"/>
      <point x="575" y="845"/>
      <point x="635" y="911"/>
      <point x="635" y="982" type="curve" smooth="yes"/>
      <point x="635" y="1037"/>
      <point x="601" y="1076"/>
      <point x="547" y="1076" type="curve" smooth="yes"/>
      <point x="480" y="1076"/>
      <point x="450" y="1036"/>
      <point x="450" y="986" type="curve" smooth="yes"/>
      <point x="450" y="872"/>
      <point x="686" y="776"/>
      <point x="1263" y="691" type="curve"/>
      <point x="1192" y="457" type="line"/>
      <point x="422" y="537"/>
      <point x="148" y="768"/>
      <point x="148" y="1027" type="curve" smooth="yes"/>
      <point x="148" y="1180"/>
      <point x="274" y="1326"/>
      <point x="522" y="1326" type="curve" smooth="yes"/>
      <point x="776" y="1326"/>
      <point x="917" y="1166"/>
      <point x="917" y="977" type="curve" smooth="yes"/>
      <point x="917" y="787"/>
      <point x="787" y="631"/>
      <point x="477" y="471" type="curve" smooth="yes"/>
    </contour>
    <contour>
      <point x="1965" y="1104" type="line"/>
      <point x="2313" y="1104" type="line"/>
      <point x="2313" y="0" type="line"/>
      <point x="1965" y="0" type="line"/>
    </contour>
    <contour>
      <point x="1069" y="1065" type="line"/>
      <point x="1069" y="1293" type="line"/>
      <point x="2532" y="1293" type="line"/>
      <point x="2532" y="1065" type="line"/>
    </contour>
    <contour>
      <point x="1913" y="642" type="curve"/>
      <point x="1709" y="472" type="line"/>
      <point x="1619" y="577"/>
      <point x="1547" y="618"/>
      <point x="1446" y="618" type="curve" smooth="yes"/>
      <point x="1324" y="618"/>
      <point x="1259" y="539"/>
      <point x="1259" y="439" type="curve" smooth="yes"/>
      <point x="1259" y="325"/>
      <point x="1326" y="231"/>
      <point x="1432" y="116" type="curve"/>
      <point x="1196" y="-15" type="line"/>
      <point x="1067" y="116"/>
      <point x="945" y="321"/>
      <point x="945" y="509" type="curve" smooth="yes"/>
      <point x="945" y="740"/>
      <point x="1109" y="908"/>
      <point x="1369" y="908" type="curve" smooth="yes"/>
      <point x="1576" y="908"/>
      <point x="1725" y="825"/>
    </contour>
    <contour>
      <point x="2082" y="997" type="line"/>
      <point x="2082" y="598" type="line"/>
      <point x="1649" y="197" type="line"/>
      <point x="1433" y="396" type="line"/>
    </contour>
    <contour>
      <point x="1965" y="1293" type="move" name="top"/>
    </contour>
  </outline>
</glyph>
<glyph name="shanadeva" format="1">
  <advance width="1632"/>
  <outline>
    <contour>
      <point x="198" y="327" type="line"/>
      <point x="48" y="576" type="line"/>
      <point x="334" y="722" type="line"/>
      <point x="575" y="845"/>
      <point x="635" y="911"/>
      <point x="635" y="982" type="curve" smooth="yes"/>
      <point x="635" y="1037"/>
      <point x="601" y="1076"/>
      <point x="547" y="1076" type="curve" smooth="yes"/>
      <point x="480" y="1076"/>
      <point x="450" y="1036"/>
      <point x="450" y="986" type="curve" smooth="yes"/>
      <point x="450" y="872"/>
      <point x="685" y="775"/>
      <point x="1270" y="691" type="curve"/>
      <point x="1199" y="456" type="line"/>
      <point x="421" y="536"/>
      <point x="148" y="768"/>
      <point x="148" y="1027" type="curve" smooth="yes"/>
      <point x="148" y="1180"/>
      <point x="274" y="1326"/>
      <point x="522" y="1326" type="curve" smooth="yes"/>
      <point x="776" y="1326"/>
      <point x="917" y="1166"/>
      <point x="917" y="977" type="curve" smooth="yes"/>
      <point x="917" y="787"/>
      <point x="787" y="631"/>
      <point x="477" y="471" type="curve" smooth="yes"/>
    </contour>
    <contour>
      <point x="1122" y="618" type="line"/>
      <point x="1251" y="376" type="line"/>
      <point x="739" y="103" type="line"/>
      <point x="760" y="171" type="line"/>
      <point x="869" y="-30" type="line"/>
      <point x="885" y="-62"/>
      <point x="893" y="-82"/>
      <point x="893" y="-108" type="curve" smooth="yes"/>
      <point x="893" y="-157"/>
      <point x="864" y="-192"/>
      <point x="798" y="-192" type="curve" smooth="yes"/>
      <point x="700" y="-192"/>
      <point x="557" y="-113"/>
      <point x="462" y="-19" type="curve" smooth="yes"/>
      <point x="406" y="38"/>
      <point x="368" y="97"/>
      <point x="368" y="148" type="curve" smooth="yes"/>
      <point x="368" y="206"/>
      <point x="396" y="246"/>
      <point x="476" y="287" type="curve" smooth="yes"/>
    </contour>
    <contour>
      <point x="1090" y="1104" type="line"/>
      <point x="1438" y="1104" type="line"/>
      <point x="1438" y="0" type="line"/>
      <point x="1090" y="0" type="line"/>
    </contour>
    <contour>
      <point x="1662" y="1065" type="line"/>
      <point x="1008" y="1065" type="line"/>
      <point x="1008" y="1293" type="line"/>
      <point x="1662" y="1293" type="line"/>
    </contour>
    <contour>
      <point x="1090" y="1293" type="move" name="top"/>
    </contour>
  </outline>
</glyph>
<glyph name="takhadeva" format="1">
  <advance width="2539"/>
  <outline>
    <contour>
      <point x="855" y="856" type="line"/>
      <point x="835" y="568" type="line"/>
      <point x="652" y="568" type="line"/>
      <point x="470" y="568"/>
      <point x="412" y="477"/>
      <point x="412" y="369" type="curve" smooth="yes"/>
      <point x="412" y="274"/>
      <point x="460" y="166"/>
      <point x="552" y="3" type="curve"/>
      <point x="274" y="-79" type="line"/>
      <point x="154" y="116"/>
      <point x="87" y="299"/>
      <point x="89" y="457" type="curve" smooth="yes"/>
      <point x="92" y="682"/>
      <point x="234" y="856"/>
      <point x="571" y="856" type="curve" smooth="yes"/>
    </contour>
    <contour>
      <point x="-30" y="1065" type="line"/>
      <point x="-30" y="1293" type="line"/>
      <point x="728" y="1293" type="line"/>
      <point x="728" y="1065" type="line"/>
    </contour>
    <component base="khadeva" xOffset="678"/>
  </outline>
</glyph>
<glyph name="taprehalfdeva" format="1">
  <advance width="762"/>
  <outline>
    <contour>
      <point x="1066" y="867" type="line"/>
      <point x="1065" y="578" type="line"/>
      <point x="653" y="578" type="line"/>
      <point x="469" y="578"/>
      <point x="415" y="502"/>
      <point x="415" y="399" type="curve" smooth="yes"/>
      <point x="415" y="310"/>
      <point x="460" y="212"/>
      <point x="552" y="49" type="curve"/>
      <point x="274" y="-33" type="line"/>
      <point x="154" y="162"/>
      <point x="90" y="333"/>
      <point x="90" y="486" type="curve" smooth="yes"/>
      <point x="90" y="708"/>
      <point x="235" y="867"/>
      <point x="572" y="867" type="curve" smooth="yes"/>
    </contour>
    <contour>
      <point x="-30" y="1065" type="line"/>
      <point x="-30" y="1293" type="line"/>
      <point x="792" y="1293" type="line"/>
      <point x="792" y="1065" type="line"/>
    </contour>
  </outline>
</glyph>
